<svg xmlns="http://www.w3.org/2000/svg" width="114" height="154" viewBox="0 0 114 154">
  <path d="M5.38806646 147.708995L2.697114 147.708995 2.697114 151.563492 5.38806646 151.563492C6.58990705 151.563492 7.30596709 150.796998 7.30596709 149.634636 7.30596709 148.494494 6.58990705 147.708995 5.38806646 147.708995M5.52380789 154L0 154 0 140 9.12932998 140 9.12932998 142.436605 2.69711369 142.436605 2.69711369 145.269175 5.52380757 145.269175C8.29659013 145.269175 10 147.079817 10 149.634636 10 152.192574 8.31545931 154 5.52380789 154M38.0560036 144.12913L36.3358326 149.219472 39.7169431 149.219472 38.0560036 144.12913zM41.2286661 154L40.4229708 151.521976 35.5925958 151.521976 34.768296 154 32 154 36.9486473 140 39.0295205 140 44 154 41.2286661 154z"/>
  <polygon points="75.321 154 75.321 148.14 70.679 148.14 70.679 154 68 154 68 140 70.679 140 70.679 145.719 75.321 145.719 75.321 140 78 140 78 154"/>
  <polygon points="102 154 102 140 104.735 140 104.735 146.646 109.262 140 112.526 140 107.824 146.569 113 154 109.656 154 104.735 146.684 104.735 154"/>
  <path d="M40.2347374,106.75666 L6.71387496,106.75666 L6.71387496,92.5263654 L40.2347374,92.5263654 L40.2347374,106.75666 Z M46.948612,85.4112182 L3.55271368e-15,85.4112182 L3.55271368e-15,121 L6.71387464,121 L6.71387464,113.875068 L46.948612,113.875068 L46.948612,85.4112182 L46.948612,85.4112182 Z M6.71387496,21.3552261 L20.1319615,7.10536281 L20.1319615,56.9375836 L6.71387496,56.9375836 L6.71387496,21.3552261 Z M0,64.0591549 L26.820003,64.0591549 L26.820003,3.24934568e-07 L16.7653613,3.24934568e-07 L0,17.7926615 L0,17.7960219 L0,64.0591549 Z M40.2347374,7.10536281 L53.652824,7.10536281 L53.652824,56.9375836 L40.2347374,56.9375836 L40.2347374,7.10536281 Z M33.5305255,64.0591549 L60.3440207,64.0591549 L60.3440207,3.24934568e-07 L33.5305255,3.24934568e-07 L33.5305255,64.0591549 L33.5305255,64.0591549 Z M107.289477,64.0591549 L114,64.0591549 L114,0 L103.942203,0 L103.942203,0.0193716102 L93.8842086,10.6938219 L93.8842086,0 L83.8167489,0 L67.05474,17.7926612 L67.05474,64.0591549 L73.7555995,64.0591549 L73.7555995,21.3552261 L87.1801938,7.10536281 L87.1801938,64.0591549 L93.8842086,64.0591549 L93.8842086,21.3552261 L107.289477,7.10536281 L107.289477,64.0591549 Z M0,78.2895481 L114,78.2895481 L114,71.1712384 L0,71.1712384 L0,78.2895481 Z M87.1801941,92.5296267 L107.289477,92.5296267 L107.289477,106.766444 L87.1801941,106.766444 L87.1801941,92.5296267 Z M80.4726298,106.75666 L60.3440207,106.75666 L60.3440207,92.5263654 L80.4726298,92.5263654 L80.4726298,106.75666 Z M87.1801941,113.875068 L114,113.875068 L114,85.4112182 L53.652824,85.4112182 L53.652824,113.875068 L80.4726298,113.875068 L80.4726298,121 L87.1801941,121 L87.1801941,113.875068 Z"/>
</svg>
