<svg width="280" height="52" viewBox="0 0 280 52" fill="none" xmlns="http://www.w3.org/2000/svg">
<path d="M226.197 15.3281H237.363V17.0112H228.078V22.9922H233.719C235.571 22.9922 236.893 23.3228 237.627 24.014C238.362 24.6752 238.744 25.9075 238.744 27.7108C238.744 29.4841 238.362 30.7464 237.598 31.4977C236.834 32.2491 235.571 32.6398 233.778 32.6398H226.226V15.3281H226.197ZM228.048 24.6452V30.9267H233.602C234.895 30.9267 235.776 30.6863 236.217 30.1753C236.628 29.7245 236.834 28.913 236.834 27.6808C236.834 26.4184 236.599 25.5769 236.158 25.2162C235.688 24.8556 234.777 24.6752 233.367 24.6752H228.048V24.6452Z" fill="black"/>
<path d="M243.945 23.8035H242.123C242.123 22.3008 242.564 21.309 243.446 20.798C244.063 20.4674 245.179 20.2871 246.795 20.2871C248.647 20.2871 249.91 20.5276 250.615 20.9784C251.526 21.5795 251.967 22.7516 251.967 24.5249V32.5796H250.292L250.351 31.0168C249.939 31.7681 249.499 32.249 248.999 32.4594C248.5 32.6698 247.647 32.7599 246.384 32.7599C244.768 32.7599 243.622 32.5195 242.946 32.0687C242.123 31.4976 241.712 30.4457 241.712 28.8828C241.712 27.4102 242.123 26.4183 242.917 25.8773C243.592 25.4265 244.68 25.2161 246.208 25.2161C247.559 25.2161 248.5 25.3063 248.999 25.5167C249.499 25.7271 249.881 26.0877 250.145 26.6287V24.9456C250.145 23.503 249.939 22.6314 249.557 22.3008C249.175 21.9702 248.235 21.8199 246.707 21.8199C245.591 21.8199 244.856 21.9101 244.474 22.1205C244.092 22.3309 243.886 22.7817 243.886 23.4729V23.8035H243.945ZM250.174 29.0331C250.174 27.9812 249.939 27.32 249.44 27.0495C248.97 26.779 247.883 26.6588 246.237 26.6588C245.267 26.6588 244.592 26.779 244.21 27.0194C243.739 27.32 243.504 27.891 243.504 28.7326C243.504 29.7544 243.71 30.4157 244.121 30.7763C244.533 31.137 245.238 31.2873 246.266 31.2873C247.647 31.2873 248.558 31.167 249.058 30.9566C249.822 30.6561 250.174 29.9949 250.174 29.0331Z" fill="black"/>
<path d="M257.462 20.5273V25.4263H263.662V20.5273H265.454V32.6095H263.662V26.9291H257.462V32.6095H255.669V20.5273H257.462Z" fill="black"/>
<path d="M270.978 20.5273V25.4263H271.654L275.915 20.5273H278.089L273.065 26.0875L279 32.6095H276.679L271.654 26.9291H270.978V32.6095H269.156V20.5273H270.978Z" fill="black"/>
<path d="M210.506 0H209.008V51.7247H210.506V0Z" fill="#A8A8A7"/>
<path fill-rule="evenodd" clip-rule="evenodd" d="M16.7488 15.0574V21.5192H39.6682V34.4729H16.7488C16.7488 34.4729 16.7782 49.5906 16.7782 49.6207C18.5706 50.4622 20.4218 51.1234 22.3023 51.5141C33.4388 49.1398 43.9289 38.9812 44.2521 20.9482L44.3696 15.0273H16.7488V15.0574Z" fill="#3D803D"/>
<path d="M44.3697 15.0579L44.5754 1.08232C37.2294 0.481214 29.7953 0.180664 22.3024 0.180664C14.8095 0.180664 7.37536 0.481214 0 1.08232L0.146919 12.0223L0.352607 20.9788C0.352607 20.9788 0.440758 29.304 3.14408 35.2248C7.63981 46.0447 16.7782 49.6513 16.7782 49.6513L16.7488 34.4735H39.6682V21.5197H16.7488V15.0579H44.3697Z" fill="#76B82A"/>
<path d="M66.1431 10.0987V13.4648H73.0189V17.2217H66.1431V23.5333H61.6768V6.3418H73.6066V10.0987H66.1431Z" fill="black"/>
<path d="M85.9774 18.9649H82.51V23.5333H78.0437V6.3418H86.6826C88.0636 6.37185 89.1802 6.52213 90.0029 6.79262C90.8257 7.06312 91.4428 7.57405 91.8541 8.32543C92.2655 9.07681 92.4712 10.1287 92.4712 11.5413C92.4712 12.7135 92.4124 13.6151 92.3243 14.2162C92.2361 14.8173 91.9423 15.3583 91.5015 15.8091C91.0608 16.26 90.3262 16.5906 89.2977 16.831V17.0113C90.238 17.0414 90.9726 17.3119 91.5015 17.8529C92.0304 18.3638 92.2949 19.1152 92.2949 20.077V23.5333H87.7991V21.1289C87.8285 19.6862 87.2115 18.9649 85.9774 18.9649ZM82.51 14.9976H85.9774C86.565 14.9976 86.9764 14.9075 87.2409 14.7572C87.5053 14.6069 87.6522 14.3364 87.7404 14.0058C87.7992 13.6752 87.8285 13.1042 87.8285 12.3227C87.8285 11.5413 87.711 11.0304 87.4465 10.7599C87.1821 10.4894 86.7119 10.3692 85.9774 10.3692H82.51V14.9976Z" fill="black"/>
<path d="M101.727 10.0987V13.2545H108.926V16.4403H101.727V19.7764H109.543V23.5333H97.2607V6.3418H109.396V10.0987H101.727Z" fill="black"/>
<path d="M119.034 10.0987V13.2545H126.204V16.4403H119.034V19.7764H126.821V23.5333H114.538V6.3418H126.674V10.0987H119.034Z" fill="black"/>
<path d="M131.698 23.5333V6.3418H140.22C141.807 6.3418 143.099 6.55218 144.098 7.00301C145.098 7.45383 145.832 8.1451 146.302 9.13691C146.772 10.1287 147.007 11.4211 147.007 13.0441V16.6507C147.007 18.2736 146.802 19.566 146.42 20.5879C146.038 21.6098 145.391 22.3611 144.48 22.842C143.57 23.3229 142.365 23.5934 140.807 23.5934H131.698V23.5333ZM136.165 10.3391V19.536H140.073C141.571 19.536 142.335 18.5742 142.335 16.5906V12.984C142.335 12.2626 142.247 11.6916 142.1 11.3009C141.953 10.9102 141.718 10.6397 141.395 10.5194C141.072 10.3692 140.631 10.3091 140.073 10.3091H136.165V10.3391Z" fill="black"/>
<path d="M159.055 23.6834C157.821 23.6834 156.734 23.5933 155.823 23.4129C154.912 23.2326 154.089 22.9321 153.413 22.4812C152.738 22.0304 152.209 21.3993 151.827 20.5577C151.445 19.7162 151.268 18.6642 151.268 17.4019V12.503C151.268 11.2106 151.445 10.1587 151.827 9.31713C152.209 8.47559 152.738 7.84443 153.413 7.39361C154.089 6.94278 154.883 6.64223 155.793 6.4619C156.704 6.28157 157.792 6.19141 159.026 6.19141C160.26 6.19141 161.347 6.28157 162.287 6.4619C163.198 6.64223 164.021 6.94278 164.697 7.39361C165.373 7.84443 165.901 8.47559 166.254 9.31713C166.636 10.1587 166.812 11.2106 166.812 12.503V17.3719C166.812 18.6642 166.636 19.7162 166.254 20.5277C165.872 21.3692 165.373 22.0004 164.667 22.4512C163.992 22.902 163.198 23.2326 162.258 23.3829C161.376 23.5933 160.289 23.6834 159.055 23.6834ZM159.055 19.6861C159.907 19.6861 160.554 19.626 160.994 19.5058C161.435 19.3856 161.729 19.1151 161.935 18.7244C162.14 18.3336 162.229 17.7025 162.229 16.8609V12.9838C162.229 12.3527 162.17 11.8418 162.052 11.4811C161.935 11.1204 161.758 10.8499 161.523 10.6396C161.288 10.4592 160.965 10.339 160.583 10.2789C160.201 10.2188 159.701 10.1887 159.055 10.1887C158.203 10.1887 157.586 10.2488 157.145 10.3691C156.734 10.4893 156.411 10.7297 156.234 11.1505C156.029 11.5412 155.94 12.1724 155.911 13.0139V16.891C155.94 17.7325 156.029 18.3637 156.234 18.7544C156.44 19.1451 156.734 19.4156 157.145 19.5358C157.556 19.626 158.203 19.6861 159.055 19.6861Z" fill="black"/>
<path d="M175.539 10.3692L175.98 23.5333H171.514V6.3418H178.595L181.798 17.1316H181.974L185.03 6.3418H192.288V23.5333H187.822L188.262 10.3692H188.116L183.855 23.5333H179.976L175.686 10.3692H175.539Z" fill="black"/>
<path d="M67.2892 32.9406V34.4133H64.2333V44.9927H62.4409V34.4133H60.6484V32.9406H62.4409V31.1674C62.4409 29.8449 62.7347 28.9132 63.3224 28.3723C63.91 27.8613 64.8797 27.5908 66.202 27.5908L67.2892 27.6509V29.1537C66.966 29.1236 66.6427 29.0936 66.3195 29.0936H65.9963C65.3205 29.0936 64.8503 29.2438 64.5859 29.5444C64.3214 29.8449 64.2039 30.3559 64.2039 31.0471V32.9707H67.2892V32.9406Z" fill="black"/>
<path d="M72.0786 29.7541H70.2861V27.7705H72.0786V29.7541ZM72.0786 44.962H70.2861V32.94H72.0786V44.962Z" fill="black"/>
<path d="M77.8967 37.5984V44.9619H76.1042V32.9399H77.7791V34.4727C78.1905 33.8115 78.7782 33.3306 79.5128 33.0601C80.1005 32.8497 80.8644 32.7295 81.8047 32.7295C83.3915 32.7295 84.508 33.03 85.1545 33.6311C85.8009 34.2322 86.0948 35.3443 86.0948 36.9973V44.9619H84.3024V37.1776C84.3024 35.9754 84.1261 35.1639 83.7734 34.8033C83.4208 34.4126 82.6275 34.2322 81.4521 34.2322C80.2768 34.2322 79.3952 34.5027 78.8076 35.0137C78.1905 35.5547 77.8967 36.3962 77.8967 37.5984Z" fill="black"/>
<path d="M98.0835 39.1012V37.388C98.0835 35.9454 97.8778 35.0137 97.4664 34.653C97.055 34.2924 96.1148 34.082 94.6456 34.082C93.5584 34.082 92.8238 34.2022 92.4418 34.4426C92.0598 34.6831 91.8541 35.1639 91.8541 35.9153V36.2459H90.0617C90.0617 34.7432 90.5024 33.7514 91.3839 33.2705C92.001 32.9098 93.1176 32.7295 94.7337 32.7295C96.5555 32.7295 97.819 32.9699 98.5242 33.4508C99.4351 34.0519 99.8759 35.2241 99.8759 36.9673V44.9318H98.201L98.2598 43.4291C97.8484 44.1805 97.4076 44.6613 96.9081 44.8717C96.4086 45.0821 95.5565 45.1723 94.3223 45.1723C92.7356 45.1723 91.5896 44.9318 90.9138 44.481C90.0911 43.91 89.6797 42.858 89.6797 41.3252C89.6797 39.8826 90.0911 38.8908 90.8844 38.3498C91.5309 37.899 92.6181 37.6886 94.146 37.6886C95.4977 37.6886 96.4086 37.7787 96.9081 37.9891C97.437 38.1995 97.819 38.5602 98.0835 39.1012ZM98.0835 41.4755C98.0835 40.4236 97.8484 39.7924 97.3489 39.5219C96.8787 39.2514 95.7915 39.1312 94.1754 39.1312C93.2057 39.1312 92.5299 39.2514 92.1773 39.4919C91.7072 39.7924 91.4721 40.3635 91.4721 41.175C91.4721 42.1968 91.6778 42.858 92.0892 43.2488C92.5005 43.6094 93.2057 43.7897 94.2048 43.7897C95.6152 43.7897 96.5261 43.6996 96.9963 43.4892C97.7015 43.1886 98.0835 42.4974 98.0835 41.4755Z" fill="black"/>
<path d="M105.694 37.5984V44.9619H103.901V32.9399H105.576V34.4727C105.988 33.8115 106.575 33.3306 107.31 33.0601C107.898 32.8497 108.662 32.7295 109.602 32.7295C111.189 32.7295 112.305 33.03 112.952 33.6311C113.598 34.2322 113.892 35.3443 113.892 36.9973V44.9619H112.099V37.1776C112.099 35.9754 111.923 35.1639 111.571 34.8033C111.218 34.4126 110.425 34.2322 109.249 34.2322C108.074 34.2322 107.192 34.5027 106.605 35.0137C105.988 35.5547 105.694 36.3962 105.694 37.5984Z" fill="black"/>
<path d="M125.969 40.6043H127.702C127.702 42.4076 127.32 43.6399 126.527 44.3011C125.822 44.9022 124.529 45.2028 122.648 45.2028C120.68 45.2028 119.357 44.782 118.652 43.9104C117.947 43.0388 117.594 41.4158 117.594 39.0114C117.594 36.6371 117.947 34.9841 118.623 34.1125C119.328 33.2409 120.65 32.79 122.589 32.79C124.206 32.79 125.41 33.0305 126.145 33.5114C127.056 34.0824 127.497 35.1043 127.497 36.5169V36.9076H125.792C125.792 35.8857 125.616 35.2245 125.234 34.8638C124.793 34.4731 123.912 34.2627 122.589 34.2627C121.267 34.2627 120.415 34.5633 120.004 35.1343C119.592 35.7054 119.387 36.9977 119.387 38.9513C119.387 40.9049 119.592 42.1672 120.033 42.7984C120.444 43.4295 121.326 43.7301 122.619 43.7301C124 43.7301 124.911 43.5197 125.322 43.129C125.763 42.7082 125.969 41.8667 125.969 40.6043Z" fill="black"/>
<path d="M141.307 39.312H132.874C132.874 41.1153 133.08 42.3175 133.52 42.8885C133.961 43.4596 134.843 43.7601 136.224 43.7601C137.605 43.7601 138.486 43.6399 138.898 43.3694C139.309 43.0989 139.515 42.5579 139.515 41.7164V41.3257H141.307C141.307 42.9186 140.866 44.0006 140.014 44.5716C139.338 45.0224 138.075 45.2328 136.224 45.2328C134.255 45.2328 132.903 44.8121 132.169 43.9405C131.434 43.0689 131.082 41.4158 131.082 38.9814C131.082 36.6671 131.464 35.0442 132.257 34.1425C133.021 33.2409 134.343 32.79 136.194 32.79C138.016 32.79 139.338 33.2108 140.132 34.0524C140.925 34.8939 141.307 36.3666 141.307 38.4404V39.312V39.312ZM139.515 37.8994C139.515 36.5169 139.28 35.5551 138.81 35.0141C138.339 34.4731 137.458 34.2026 136.194 34.2026C134.931 34.2026 134.049 34.4731 133.579 35.0141C133.109 35.5551 132.874 36.5169 132.874 37.8994H139.515Z" fill="black"/>
</svg>
