<svg xmlns="http://www.w3.org/2000/svg" xmlns:xlink="http://www.w3.org/1999/xlink" viewBox="0 0 323 100">
  <defs>
    <polygon id="a" points="0 .182 28.251 .182 28.251 28.434 0 28.434"/>
    <polygon id="c" points="0 .258 59.528 .258 59.528 56.951 0 56.951"/>
  </defs>
  <g fill="none" fill-rule="evenodd" transform="translate(0 -1)">
    <g transform="translate(0 71.742)">
      <mask id="b" fill="white">
        <use xlink:href="#a"/>
      </mask>
      <path fill="#00539B" d="M11.3008,0.1816 L11.3008,1.5546 L8.5568,2.2016 C8.3138,2.2406 7.6678,2.4826 7.6678,3.5726 L7.6678,12.3706 L20.5838,12.3706 L20.5838,3.5726 C20.5838,2.4826 19.9378,2.2406 19.6948,2.2016 L16.9498,1.5546 L16.9498,0.1816 L28.2508,0.1816 L28.2508,1.5546 L25.5058,2.2016 C25.2638,2.2406 24.6188,2.4826 24.6188,3.5726 L24.6188,25.0446 C24.6188,26.1346 25.2638,26.3766 25.5058,26.4196 L28.2508,27.0626 L28.2508,28.4336 L16.9498,28.4336 L16.9498,27.0626 L19.6948,26.4196 C19.9378,26.3766 20.5838,26.1346 20.5838,25.0446 L20.5838,14.5486 L7.6678,14.5486 L7.6678,25.0446 C7.6678,26.1346 8.3138,26.3766 8.5568,26.4196 L11.3008,27.0626 L11.3008,28.4336 L-0.0002,28.4336 L-0.0002,27.0626 L2.7438,26.4196 C2.9848,26.3766 3.6308,26.1346 3.6308,25.0446 L3.6308,3.5726 C3.6308,2.4826 2.9848,2.2406 2.7438,2.2016 L-0.0002,1.5546 L-0.0002,0.1816 L11.3008,0.1816 Z" mask="url(#b)"/>
    </g>
    <path fill="#00539B" d="M51.415 94.9292C52.788 92.5482 53.352 89.1172 53.352 86.0482 53.352 82.9822 52.788 79.5522 51.415 77.1712 50.004 74.7492 48.024 73.2962 44.797 73.2962 41.568 73.2962 39.59 74.7492 38.178 77.1712 36.805 79.5522 36.24 82.9822 36.24 86.0482 36.24 89.1172 36.805 92.5482 38.178 94.9292 39.59 97.3532 41.568 98.8042 44.797 98.8042 48.024 98.8042 50.004 97.3532 51.415 94.9292M53.918 74.9522C56.541 77.7772 57.631 82.0132 57.631 86.0482 57.631 90.0872 56.541 94.3242 53.918 97.1502 51.174 100.0952 47.783 100.7412 44.797 100.7412 41.81 100.7412 38.419 100.0952 35.676 97.1502 33.052 94.3242 31.961 90.0872 31.961 86.0482 31.961 82.0132 33.052 77.7772 35.676 74.9522 38.419 72.0052 41.81 71.3592 44.797 71.3592 47.783 71.3592 51.174 72.0052 53.918 74.9522M69.0107 97.5131C70.0977 97.9951 71.1487 98.2381 72.6007 98.2381 74.2547 98.2381 76.4767 97.9561 78.0507 96.3411 79.2607 95.1301 79.6657 93.6381 79.6657 92.0271 79.6657 90.3701 79.2207 88.7121 78.2527 87.6221 76.7987 86.0481 74.6197 85.8901 73.4487 85.8901L69.0107 85.8901 69.0107 97.5131zM69.0107 83.8701L71.8757 83.8701C73.1657 83.8701 75.1037 83.7901 76.6377 82.3781 77.6067 81.4901 78.2917 80.0771 78.2917 78.4231 78.2917 76.8081 77.7277 75.5581 76.9197 74.7901 75.5897 73.4991 73.7717 73.4581 72.7207 73.4581 71.4317 73.4581 70.2207 73.6581 69.0107 74.0641L69.0107 83.8701zM66.5077 71.9231C68.2017 71.9231 68.9287 71.8841 70.4217 71.7631 71.4707 71.6831 72.7207 71.5211 74.2957 71.5211 76.3567 71.5211 78.6967 71.8041 80.3907 73.3741 81.6017 74.5071 82.3277 76.2841 82.3277 78.1791 82.3277 79.7121 81.7637 81.2491 80.7947 82.3781 79.9067 83.3861 78.4927 84.1541 77.4047 84.5171L77.4047 84.5991C79.0197 84.8411 80.5937 85.5661 81.6017 86.4131 82.6917 87.3411 83.9437 89.0381 83.9437 91.9451 83.9437 94.9291 82.6117 96.8261 81.2787 97.9151 79.4627 99.4111 76.5977 100.1751 74.0147 100.1751L61.3397 100.1751 61.3397 98.8041 64.0857 98.1611C64.3267 98.1181 64.9737 97.8761 64.9737 96.7861L64.9737 75.3141C64.9737 74.2241 64.3267 73.9821 64.0857 73.9431L61.3397 73.2961 61.3397 71.9231 66.5077 71.9231zM98.0664 71.9233L98.0664 73.2963 95.3214 73.9433C95.0804 73.9823 94.4344 74.2243 94.4344 75.3143L94.4344 92.8313 108.1564 75.8003 108.1564 75.3143C108.1564 74.2243 107.5114 73.9823 107.2694 73.9433L104.5234 73.2963 104.5234 71.9233 115.8274 71.9233 115.8274 73.2963 113.0834 73.9433C112.8404 73.9823 112.1944 74.2243 112.1944 75.3143L112.1944 96.7863C112.1944 97.8763 112.8404 98.1183 113.0834 98.1613L115.8274 98.8043 115.8274 100.1753 104.5234 100.1753 104.5234 98.8043 107.2694 98.1613C107.5114 98.1183 108.1564 97.8763 108.1564 96.7863L108.1564 79.0283 94.4344 96.0603 94.4344 96.7863C94.4344 97.8763 95.0804 98.1183 95.3214 98.1613L98.0664 98.8043 98.0664 100.1753 86.7654 100.1753 86.7654 98.8043 89.5094 98.1613C89.7524 98.1183 90.3984 97.8763 90.3984 96.7863L90.3984 75.3143C90.3984 74.2243 89.7524 73.9823 89.5094 73.9433L86.7654 73.2963 86.7654 71.9233 98.0664 71.9233zM166.0283 94.9292C167.4033 92.5482 167.9653 89.1172 167.9653 86.0482 167.9653 82.9822 167.4033 79.5522 166.0283 77.1712 164.6163 74.7492 162.6353 73.2962 159.4113 73.2962 156.1803 73.2962 154.2023 74.7492 152.7903 77.1712 151.4173 79.5522 150.8523 82.9822 150.8523 86.0482 150.8523 89.1172 151.4173 92.5482 152.7903 94.9292 154.2023 97.3532 156.1803 98.8042 159.4113 98.8042 162.6353 98.8042 164.6163 97.3532 166.0283 94.9292M168.5303 74.9522C171.1553 77.7772 172.2453 82.0132 172.2453 86.0482 172.2453 90.0872 171.1553 94.3242 168.5303 97.1502 165.7883 100.0952 162.3953 100.7412 159.4113 100.7412 156.4243 100.7412 153.0323 100.0952 150.2903 97.1502 147.6673 94.3242 146.5753 90.0872 146.5753 86.0482 146.5753 82.0132 147.6673 77.7772 150.2903 74.9522 153.0323 72.0052 156.4243 71.3592 159.4113 71.3592 162.3953 71.3592 165.7883 72.0052 168.5303 74.9522M183.1396 71.9233C183.2996 73.4173 183.6626 74.1833 184.0266 75.0713L191.8956 94.1613 191.9776 94.1613 200.3326 75.0713C200.9796 73.5383 201.1786 72.7733 201.2196 71.9233L208.3256 71.9233 208.3256 73.2963 205.5786 73.9433C204.9736 74.0643 204.6516 74.5873 204.6906 75.3143L205.4166 96.7863C205.4166 97.1913 205.4966 97.9563 206.3036 98.1613L209.0476 98.8043 209.0476 100.1753 197.7506 100.1753 197.7506 98.8043 200.4916 98.1613C201.4226 97.9563 201.3836 97.1093 201.3836 96.7863L200.9366 78.9893 200.8566 78.9893 192.5826 98.2373C192.3816 98.6833 191.9776 99.7343 191.8566 100.7413L190.2436 100.7413C190.1216 99.7343 189.7176 98.6833 189.5146 98.2373L181.3236 78.9893 181.2436 78.9893 180.7176 96.7863C180.6766 97.5133 181.0006 98.0383 181.6066 98.1613L184.3506 98.8043 184.3506 100.1753 175.1476 100.1753 175.1476 98.8043 177.4896 98.1613C178.2976 97.9153 178.3736 97.2713 178.3736 96.7863L179.1846 75.3143C179.2256 74.5873 178.8626 74.0643 178.2976 73.9433L175.5516 73.2963 175.5516 71.9233 183.1396 71.9233zM219.9443 97.4331C221.0343 97.9151 222.2063 98.2381 223.6963 98.2381 226.3193 98.2381 227.8543 97.3921 228.7023 96.6241 229.7943 95.6561 230.5983 94.1221 230.5983 91.9021 230.5983 89.8451 229.7943 88.1091 228.7023 87.0991 227.8543 86.3331 226.3623 85.5661 224.0203 85.5661 222.6083 85.5661 221.1533 85.8471 219.9443 86.2121L219.9443 97.4331zM232.8603 71.9231L232.8603 78.3821 231.2453 78.3821 230.7193 75.8781C230.5983 75.3141 230.2333 74.8311 229.8743 74.5871 229.3443 74.2241 228.3783 74.1051 227.7723 74.1051L219.9443 74.1051 219.9443 84.0331C221.4363 83.7901 223.2553 83.6281 224.6263 83.6281 226.8443 83.6281 229.5873 83.9531 231.9303 85.8061 234.0283 87.5031 234.8783 89.6011 234.8783 91.9451 234.8783 94.9291 233.5053 96.8261 232.2143 97.9151 230.3973 99.4121 227.5303 100.1751 224.9523 100.1751L212.2743 100.1751 212.2743 98.8041 215.0183 98.1621C215.2623 98.1191 215.9073 97.8761 215.9073 96.7871L215.9073 75.3141C215.9073 74.2241 215.2623 73.9821 215.0183 73.9431L212.2743 73.2961 212.2743 71.9231 232.8603 71.9231zM252.6357 87.7456L248.7997 77.4936 248.7177 77.4936 245.1277 87.7456 252.6357 87.7456zM250.3737 71.3586C250.4947 72.0056 250.6967 72.6516 250.9797 73.3376L260.2627 96.4236C260.5027 96.9896 260.9487 97.6756 261.4307 98.0776 261.8347 98.3996 262.4407 98.7256 263.1257 98.8046L263.1257 100.1756 253.3197 100.1756 253.3197 98.8046 255.3387 98.3996C255.6627 98.3216 256.1867 98.0776 256.1867 97.3916 256.1867 97.0266 256.0247 96.7046 255.9037 96.4236L253.3997 89.9256 244.2787 89.9256 242.0577 96.3026C241.8587 96.9076 241.8177 97.1906 241.8177 97.4336 241.8177 97.7556 242.0187 98.2786 242.5847 98.3996L244.3197 98.8046 244.3197 100.1756 236.0867 100.1756 236.0867 98.8046 236.9327 98.5616C237.4577 98.3996 238.1027 98.0386 238.5477 97.6346 239.0727 97.1086 239.3937 96.3826 239.5577 95.9796L248.0737 73.3376C248.3567 72.6106 248.5187 72.1266 248.6807 71.3586L250.3737 71.3586zM276.8466 71.9233L276.8466 73.2963 274.1006 73.9433C273.8606 73.9823 273.2136 74.2243 273.2136 75.3143L273.2136 84.1123 286.1276 84.1123 286.1276 75.3143C286.1276 74.2243 285.4836 73.9823 285.2426 73.9433L282.4966 73.2963 282.4966 71.9233 293.7976 71.9233 293.7976 73.2963 291.0536 73.9433C290.8116 73.9823 290.1666 74.2243 290.1666 75.3143L290.1666 96.7863C290.1666 97.8763 290.8116 98.1183 291.0536 98.1613L293.7976 98.8043 293.7976 100.1753 282.4966 100.1753 282.4966 98.8043 285.2426 98.1613C285.4836 98.1183 286.1276 97.8763 286.1276 96.7863L286.1276 86.2903 273.2136 86.2903 273.2136 96.7863C273.2136 97.8763 273.8606 98.1183 274.1006 98.1613L276.8466 98.8043 276.8466 100.1753 265.5456 100.1753 265.5456 98.8043 268.2896 98.1613C268.5326 98.1183 269.1786 97.8763 269.1786 96.7863L269.1786 75.3143C269.1786 74.2243 268.5326 73.9823 268.2896 73.9433L265.5456 73.2963 265.5456 71.9233 276.8466 71.9233zM141.7177 98.392C141.0007 98.226 140.5787 97.535 140.5787 97.535L138.0927 91.97C136.9537 89.398 136.2377 88.386 135.7297 87.796 134.8877 86.828 133.4777 85.865 131.6847 85.636L131.6847 85.566C133.2997 84.841 134.0657 83.509 134.6707 82.095L136.3267 78.14C136.8527 76.847 137.2547 76.324 137.3737 76.163 137.7797 75.679 138.2237 75.314 138.9087 75.314 139.7627 75.314 139.7627 76.527 140.9657 76.527 142.1537 76.527 143.0267 75.372 143.0267 74.146 143.0267 72.41 141.7357 71.359 139.8777 71.359 138.7487 71.359 137.7407 71.763 136.8097 72.691 135.7217 73.781 135.1557 75.314 134.6707 76.402L132.6137 81.206C132.0477 82.499 131.4837 83.386 130.7957 83.871 129.9887 84.476 129.0617 84.517 128.3757 84.517L126.7217 84.517 126.7217 75.314C126.7217 74.224 127.3657 73.982 127.6087 73.943L130.3527 73.296 130.3527 71.923 119.0517 71.923 119.0517 73.296 121.7957 73.943C122.0377 73.982 122.6847 74.224 122.6847 75.314L122.6847 96.787C122.6847 97.876 122.0377 98.119 121.7957 98.162L119.0517 98.804 119.0517 100.175 130.3527 100.175 130.3527 98.804 127.6087 98.162C127.3657 98.119 126.7217 97.876 126.7217 96.787L126.7217 86.697 128.0067 86.697C131.1867 86.708 132.6567 88.566 133.7917 91.548 133.7917 91.548 135.6947 96.537 136.0497 97.441 136.4037 98.345 136.6157 99.853 136.6157 100.163 136.6537 100.199 144.6257 100.191 144.6257 100.191L144.6257 98.833C144.6257 98.833 142.4927 98.568 141.7177 98.392M319.6924 98.392C318.9734 98.226 318.5514 97.535 318.5514 97.535L316.0634 91.97C314.9284 89.398 314.2104 88.386 313.7044 87.796 312.8604 86.828 311.4524 85.865 309.6574 85.636L309.6574 85.566C311.2744 84.841 312.0384 83.509 312.6454 82.095L314.2994 78.14C314.8254 76.847 315.2274 76.324 315.3504 76.163 315.7534 75.679 316.1984 75.314 316.8814 75.314 317.7374 75.314 317.7374 76.527 318.9384 76.527 320.1264 76.527 320.9994 75.372 320.9994 74.146 320.9994 72.41 319.7124 71.359 317.8504 71.359 316.7214 71.359 315.7134 71.763 314.7844 72.691 313.6944 73.781 313.1284 75.314 312.6454 76.402L310.5874 81.206C310.0224 82.499 309.4584 83.386 308.7704 83.871 307.9634 84.476 307.0364 84.517 306.3484 84.517L304.6944 84.517 304.6944 75.314C304.6944 74.224 305.3404 73.982 305.5814 73.943L308.3274 73.296 308.3274 71.923 297.0244 71.923 297.0244 73.296 299.7704 73.943C300.0144 73.982 300.6574 74.224 300.6574 75.314L300.6574 96.787C300.6574 97.876 300.0144 98.119 299.7704 98.162L297.0244 98.804 297.0244 100.175 308.3274 100.175 308.3274 98.804 305.5814 98.162C305.3404 98.119 304.6944 97.876 304.6944 96.787L304.6944 86.697 305.9794 86.697C309.1614 86.708 310.6314 88.566 311.7644 91.548 311.7644 91.548 313.6714 96.537 314.0204 97.441 314.3764 98.345 314.5904 99.853 314.5904 100.163 314.6264 100.199 322.6004 100.191 322.6004 100.191L322.6004 98.833C322.6004 98.833 320.4654 98.568 319.6924 98.392"/>
    <g transform="translate(0 .742)">
      <mask id="d" fill="white">
        <use xlink:href="#c"/>
      </mask>
      <path fill="#00539B" d="M51.7363,22.9218 C47.2653,25.9618 41.5153,28.5048 39.2353,29.3808 C37.9243,31.7468 35.9953,35.9538 34.7723,40.5178 C33.0203,47.0388 37.5563,47.9788 44.3163,41.7448 C48.2803,38.0898 57.8103,27.3638 59.4703,25.3438 L59.4703,16.6678 C57.3683,18.7718 53.8923,21.4548 51.7363,22.9218 M50.1793,11.8578 C48.2303,14.0638 43.7363,19.8438 41.8963,23.2758 C44.8463,22.0408 48.3053,20.1148 51.8673,17.8948 C55.4433,15.6688 61.0123,11.1898 59.1613,8.9268 C57.3093,6.6718 52.8993,8.7718 50.1793,11.8578 M23.4473,28.6658 C25.7503,24.6268 31.7243,15.4458 33.1373,13.4458 C30.4833,15.2648 27.5713,14.2868 26.4653,13.4708 C22.0753,10.3928 24.3913,4.3048 15.1943,5.7068 C9.5033,6.5858 3.2133,11.6638 4.3493,16.6028 C5.0353,19.8438 7.7033,21.2648 9.9613,21.2648 C14.4543,21.2648 15.8533,19.2058 16.9003,17.5428 C17.9523,15.8748 19.9683,14.4728 22.0753,15.0868 C24.1733,15.7008 25.1023,18.7808 22.5413,21.3338 C21.1773,22.7158 19.7563,23.7188 18.3063,24.5258 C14.8643,26.4178 11.0223,26.9948 7.1703,26.2068 C4.1173,25.4838 1.7803,23.8798 0.0003,21.2018 L0.0003,43.3258 C4.8933,36.6878 16.1993,30.8698 23.4473,28.6658 M47.9173,4.1668 C46.0723,5.5008 42.1323,8.1488 38.2703,13.6528 C33.7033,20.1628 30.9863,25.3918 30.3893,26.6588 C32.3243,26.0758 36.0523,24.9968 36.0523,24.9968 C36.0523,24.9968 40.1163,17.7168 44.9323,11.7548 C49.6773,5.8828 55.6953,3.5858 59.3093,3.9368 C58.6823,1.8258 56.6563,0.2578 54.2483,0.2578 L47.8243,0.2578 C49.3943,0.6438 50.0863,2.5938 47.9173,4.1668 M5.4343,6.8058 C10.2603,2.8848 18.7483,1.4838 23.2753,2.7388 C27.8083,3.9978 26.9143,7.7758 31.4823,8.9758 C36.0523,10.1748 40.2663,4.3328 41.5683,2.9298 C43.8793,0.4438 46.2713,0.2578 46.2713,0.2578 L5.2813,0.2578 C2.3773,0.2578 0.0003,2.5218 0.0003,5.2878 L0.0003,13.3368 C0.0003,13.3368 1.4453,10.0448 5.4343,6.8058 M20.5813,35.2568 C20.5813,35.2568 13.4653,38.8828 9.7833,41.8028 C7.6513,43.3028 -3.1507,52.0008 1.0523,56.2088 C5.4323,59.5458 11.7413,49.1998 13.4013,47.1828 C16.3623,43.3918 20.5813,35.2568 20.5813,35.2568 M33.0203,54.2798 C29.5183,53.9288 27.4223,50.7578 27.8493,45.7758 C28.0973,42.2018 30.6103,36.1058 33.0203,31.2188 C31.0333,31.7468 28.3513,32.6218 27.4323,32.9788 C25.1403,37.9738 24.5863,39.4918 21.3083,44.5168 C18.0423,49.5498 14.4543,53.9288 11.1233,56.9508 L54.2483,56.9508 C56.9533,56.9508 59.1753,54.9818 59.4703,52.4768 L59.4703,29.8558 C57.9553,31.9638 53.1663,38.4118 47.2073,45.0718 C41.2493,51.7368 36.5243,54.6318 33.0203,54.2798" mask="url(#d)"/>
    </g>
  </g>
</svg>
