<svg xmlns="http://www.w3.org/2000/svg" xmlns:xlink="http://www.w3.org/1999/xlink" viewBox="0 0 245 65">
  <defs>
    <polygon id="a" points=".273 .591 21.105 .591 21.105 21.622 .273 21.622"/>
    <polygon id="c" points="0 .326 47.347 .326 47.347 47.882 0 47.882"/>
  </defs>
  <g fill="none" fill-rule="evenodd" transform="translate(0 -.867)">
    <path fill="#58585B" d="M179.26719 14.4534867L197.089215 14.4534867 197.089215 18.4444867 195.798651 18.4444867C195.798651 18.4444867 195.583845 16.39742 193.546204 16.39742L190.434532 16.39742 190.434532 34.83662 186.028845 34.83662 186.028845 16.39742 182.807613 16.39742C181.094338 16.39742 180.662137 17.7996867 180.555165 18.4444867L179.26719 18.4444867 179.26719 14.4534867zM216.511417 14.4534867L219.731787 14.4534867 219.731787 34.83662 215.434798 34.83662 215.434798 20.60162 204.810942 34.83662 201.587121 34.83662 201.587121 18.2260867C201.587121 15.8557533 199.547755 15.5350867 199.547755 15.5350867L199.547755 14.4534867 205.879798 14.4534867 205.879798 28.7985533 216.511417 14.4534867zM123.344905 34.8374867L117.764254 34.8374867 113.789042 27.2870867C113.789042 27.2870867 112.608901 25.0250867 111.320063 25.0250867L109.712035 25.0250867 109.712035 34.8374867 105.307211 34.8374867 105.307211 18.2269533C105.307211 15.85662 103.160873 15.6451533 103.160873 15.6451533L103.160873 14.4543533 109.712035 14.4543533 109.712035 22.9710867 111.641842 22.9710867C111.641842 22.9710867 112.93068 22.8670867 114.003849 21.1415533 117.442475 15.5307533 117.010275 14.4543533 118.513056 14.4543533L122.805732 14.4543533 122.805732 15.85662C119.799306 15.85662 118.942669 22.0047533 116.041489 23.9460867 117.442475 24.48082 117.976472 25.7773533 121.087282 31.4964867 121.087282 31.4964867 121.841261 33.4334867 123.344905 33.4334867L123.344905 34.8374867z"/>
    <g transform="translate(223.433 13.54)">
      <mask id="b" fill="white">
        <use xlink:href="#a"/>
      </mask>
      <path fill="#58585B" d="M5.53743134,9.00206667 L16.0560405,9.00206667 L16.0560405,7.92133333 C16.0560405,5.01366667 13.6966215,2.63813333 10.7980299,2.63813333 C7.89685035,2.63813333 5.53743134,5.01366667 5.53743134,7.92133333 L5.53743134,9.00206667 Z M19.8147201,16.874 C17.7744912,19.6776667 14.7680651,21.6216 10.7980299,21.6216 C5.42959683,21.6216 0.273382042,17.4130667 0.273382042,11.9114667 L0.273382042,10.7276 C0.273382042,4.79353333 4.9982588,0.591066667 10.7980299,0.591066667 C16.595213,0.591066667 21.1052835,5.3352 21.1052835,11.0517333 L5.53743134,11.0517333 L5.53743134,14.3953333 C5.53743134,17.303 7.89685035,19.6776667 11.3354771,19.6776667 C14.3410405,19.6776667 16.3804067,18.3863333 17.9918856,16.6556 L19.8147201,16.874 Z" mask="url(#b)"/>
    </g>
    <path fill="#58585B" d="M138.506609 14.1326467C136.035042 14.1326467 133.674761 15.2064467 132.60418 16.71878L132.60418 14.45418 126.159989 14.45418 126.159989 15.6406467C126.159989 15.6406467 128.200218 15.9613133 128.200218 18.22938L128.200218 44.11498 132.60418 44.11498 132.60418 32.68018C134.64182 35.0531133 137.32388 35.16318 138.184831 35.16318 143.873317 35.0531133 147.738106 30.6331133 147.738106 25.12978L147.738106 23.8332467C147.738106 17.9052467 144.087261 14.1326467 138.506609 14.1326467zM142.584479 27.82598C142.584479 30.4147133 140.759056 32.8951133 137.967437 33.0060467L137.543 33.0060467C135.074021 33.0060467 132.92337 31.16958 132.60418 29.2308467L132.60418 20.49658C132.816398 18.44518 134.856627 16.1797133 137.543 16.1797133L138.397049 16.1797133C138.397049 16.1797133 142.477507 16.3981133 142.584479 21.3589133L142.584479 27.82598zM71.610912 14.1292667C63.9857183 14.1292667 60.8723204 20.0616 60.8723204 23.9442667L60.8723204 25.6680667C60.8723204 30.1981333 65.2762817 35.1598 71.610912 35.1598 77.5159296 35.1598 82.452162 30.7398 82.452162 25.5597333L82.452162 24.1548667C82.452162 18.9834667 78.3725669 14.1292667 71.610912 14.1292667zM77.1915634 27.7151333C77.1915634 30.6297333 74.9391162 33.2158667 71.610912 33.2158667 68.2827077 33.2158667 66.135507 30.6297333 66.135507 27.7151333L66.135507 21.2454667C66.135507 18.3334667 68.6018979 16.0706 71.610912 16.0706 74.9391162 16.0706 77.1915634 18.4409333 77.1915634 21.3555333L77.1915634 27.7151333zM176.262144 14.4534867L169.820542 14.4534867 169.820542 15.6425533C169.820542 15.6425533 171.966018 15.9614867 171.966018 18.33442L171.966018 34.83662 176.262144 34.83662 176.262144 14.4534867zM157.362465 22.2221133L157.362465 14.45418 150.92 14.45418 150.92 15.64498C150.92 15.64498 152.852394 15.8564467 152.852394 18.22678L152.852394 34.8373133 162.835282 34.8373133C166.702658 34.8373133 169.492553 32.46698 169.492553 29.1225133L169.492553 28.1544467C169.492553 24.47978 166.80963 22.2221133 162.620475 22.2221133L157.362465 22.2221133zM157.362465 32.7876467L157.362465 24.26658 161.119419 24.26658C163.15706 24.26658 164.767676 25.8846467 164.767676 28.25758L164.767676 29.1225133C164.767676 31.0647133 162.944842 32.7876467 161.012447 32.7876467L157.362465 32.7876467zM83.2056232 14.4534867L101.028511 14.4534867 101.028511 18.4444867 99.7379472 18.4444867C99.7379472 18.4444867 99.5231408 16.39742 97.482912 16.39742L94.3695141 16.39742 94.3695141 34.83662 89.9672782 34.83662 89.9672782 16.39742 86.7460458 16.39742C85.0284577 16.39742 84.5971197 17.7996867 84.4944613 18.4444867L83.2056232 18.4444867 83.2056232 14.4534867z"/>
    <g transform="translate(0 .54)">
      <mask id="d" fill="white">
        <use xlink:href="#c"/>
      </mask>
      <path fill="#00BAE3" d="M23.6725211,0.325693333 C10.6003908,0.325693333 -0.000172535211,10.97096 -0.000172535211,24.10356 C-0.000172535211,37.2378933 10.6003908,47.8822933 23.6725211,47.8822933 C36.7472394,47.8822933 47.3469401,37.2378933 47.3469401,24.10356 C47.3469401,10.97096 36.7472394,0.325693333 23.6725211,0.325693333 Z M18.6888415,35.7732267 C18.8812183,35.8772267 19.5230493,36.2940933 19.6955845,37.1208933 C19.8051444,37.71976 19.7266408,38.24236 19.4402324,38.7268267 C19.0848099,39.31096 18.48525,39.6324933 17.7312711,39.6324933 C17.3456549,39.6324933 16.9445106,39.5362933 16.5795986,39.3664267 L15.4676092,38.8438267 C10.6409366,36.27416 7.644,31.0828267 7.644,25.29696 L7.644,22.9118933 C7.644,17.12776 10.647838,11.9364267 15.4934894,9.35289333 C15.5392113,9.33556 16.5795986,8.83982667 16.5795986,8.83982667 C16.9445106,8.66736 17.3456549,8.57809333 17.7295458,8.57809333 C18.4809366,8.57809333 19.0848099,8.90396 19.4402324,9.48722667 C19.7266408,9.96389333 19.8051444,10.4908267 19.6955845,11.08796 C19.5040704,12.0464933 18.6646866,12.4520933 18.6551972,12.4590267 C15.8368345,13.7408267 14.016588,16.6562933 14.016588,19.8872267 L14.016588,28.3268267 C14.016588,31.55256 15.8394225,34.4740933 18.6888415,35.7732267 Z M39.7036303,25.29696 C39.7036303,31.0828267 36.7066937,36.27416 31.8774331,38.8438267 L30.7706197,39.3664267 C30.4057077,39.5362933 30.0019754,39.6324933 29.6154965,39.6324933 C28.8615176,39.6324933 28.2628204,39.31096 27.9073979,38.7268267 C27.6235775,38.24236 27.5450739,37.71976 27.6520458,37.1208933 C27.821993,36.2940933 28.4655493,35.8772267 28.6562007,35.7732267 C31.5056197,34.4740933 33.3353556,31.55256 33.3353556,28.3268267 L33.3353556,19.8872267 C33.3353556,16.6562933 31.5125211,13.7408267 28.6924331,12.4590267 C28.687257,12.4520933 27.8452852,12.0464933 27.6520458,11.08796 C27.5450739,10.4908267 27.6235775,9.96389333 27.9073979,9.48722667 C28.2628204,8.90396 28.8615176,8.57809333 29.6154965,8.57809333 C30.0019754,8.57809333 30.4057077,8.66736 30.7680317,8.83982667 C30.7680317,8.83982667 31.811007,9.33556 31.8506901,9.35289333 C36.7015176,11.9364267 39.7036303,17.12776 39.7036303,22.9118933 L39.7036303,25.29696 Z" mask="url(#d)"/>
    </g>
    <path fill="#58585B" d="M65.9912676 58.9610667L64.347007 58.9610667 64.347007 63.7667333 65.8722183 63.7667333C67.7209331 63.7667333 68.818257 62.9997333 68.818257 61.3071333 68.818257 59.7497333 67.835669 58.9610667 65.9912676 58.9610667M65.7790493 65.4038667L62.5103697 65.4038667 62.5103697 51.8162667 69.5032218 51.8162667 69.7801408 53.508 64.347007 53.508 64.347007 57.3282667 66.0939261 57.3282667C68.9519718 57.3282667 70.679912 58.7262 70.679912 61.2482 70.679912 64.0232667 68.7207746 65.4038667 65.7790493 65.4038667M76.730118 59.6940067L81.0409102 59.6940067 78.8842201 53.9220067 76.730118 59.6940067zM78.0042905 51.75534L79.8461039 51.75534 85.0592553 65.1462067 83.2407342 65.5396733 81.6473715 61.32334 76.1400475 61.32334 74.6277764 65.40274 72.7048715 65.40274 78.0042905 51.75534z"/>
    <polygon fill="#58585B" points="96.751 65.403 96.751 59.139 89.914 59.139 89.914 65.403 88.067 65.403 88.067 51.814 89.914 51.814 89.914 57.447 96.751 57.447 96.751 51.814 98.59 51.814 98.59 65.403"/>
    <polygon fill="#58585B" points="110.7 65.541 104.45 58.511 104.45 65.402 102.603 65.402 102.603 51.813 104.45 51.813 104.45 57.918 110.053 51.813 112.406 51.813 106.447 58.196 112.74 65.105"/>
  </g>
</svg>
