<svg xmlns="http://www.w3.org/2000/svg" viewBox="0 0 317 58">
  <g fill="none" fill-rule="evenodd">
    <path fill="#C8A564" d="M13.275,22.241 L32.315,22.241 C32.265,18.351 32.492,16.871 33.662,14.757 L52.64,14.764 C52.598,14.812 35.307,36.191 31.077,40.81 C26.839,45.435 25.43,48.216 22.396,48.11 C19.352,47.999 17.21,44.686 17.21,39.508 L0.076,39.517 C0.527,42.549 2.642,49.152 10.195,50.439 C17.739,51.729 24.442,51 25.041,51.36 C25.638,51.721 29.341,52.218 31.95,51.934 C34.562,51.667 39.851,51.58 44.574,47.259 C47.063,49.22 50.289,52.407 60.006,52.407 C69.709,52.407 79.551,47.232 82.457,40.044 C85.369,32.858 80.794,26.524 74.507,24.854 C68.218,23.187 64.153,23.954 64.153,23.954 L71.809,14.757 L94.618,14.678 L103.473,1.157 L46.351,1.235 C40.965,1.245 34.442,4.283 31.182,9.343 C22.039,10.696 16.197,14.678 13.275,22.241 Z M67.184,5.082 L63.666,9.321 L92.235,9.321 L94.993,5.082 L67.184,5.082 Z M37.751,9.327 L57.13,9.338 L60.679,5.082 L46.46,5.082 C42.842,5.082 39.177,7.739 37.751,9.327 Z M27.949,14.796 C27.226,16.822 27.015,17.711 26.863,20.126 L20.142,20.126 C20.979,18.584 22.962,15.952 27.949,14.796 Z M46.101,30.542 C46.101,30.542 47.721,29.846 51.849,29.805 L64.401,14.757 L59.23,14.757 L46.101,30.542 Z M16.888,48.597 C15.757,47.661 14.748,47.126 13.744,45.666 C12.741,44.218 12.283,43.168 12.139,42.136 L6.045,42.136 C6.601,44.042 9.101,46.543 11.415,47.489 C13.732,48.432 14.803,48.575 16.888,48.597 Z M29.367,49.061 C33.886,46.102 38.053,40.799 40.217,38.831 C40.146,40.633 40.579,41.912 41,42.868 C38.178,45.553 33.796,49.611 29.367,49.061 Z M47.29,44.254 L55.748,34.074 C55.748,34.074 57.69,34.951 58.688,36.234 C59.694,37.516 59.915,39.508 59.915,39.508 L66.883,39.501 C66.571,37.966 65.497,35.608 63.809,34.034 C62.12,32.451 60.475,31.353 58.396,30.886 L61.077,27.66 C61.077,27.66 66.628,27.287 69.261,28.619 C72.068,30.03 75.788,33.151 74.674,38.505 C73.564,43.85 66.08,47.274 62.139,47.748 C58.209,48.216 55.675,48.258 52.64,47.145 C49.601,46.031 47.29,44.254 47.29,44.254 Z M49.085,33.174 L43.922,39.357 C43.773,39.531 42.874,37.079 44.827,34.674 C46.791,32.265 49.085,33.174 49.085,33.174 Z"/>
    <path fill="#1A1919" d="M132.446 20.744L131.265 20.744C131.034 20.744 130.917 20.637 130.917 20.422L130.917 3.579 120.589 3.579 120.589 20.422C120.589 20.637 120.472 20.744 120.24 20.744L119.06 20.744C118.827 20.744 118.713 20.637 118.713 20.422L118.713 2.291C118.713 2.077 118.827 1.969 119.06 1.969L132.446 1.969C132.68 1.969 132.795 2.077 132.795 2.291L132.795 20.422C132.795 20.637 132.68 20.744 132.446 20.744M145.651 20.852C144.965 20.923 144.268 20.959 143.574 20.959 138.995 20.959 136.709 18.607 136.709 13.904L136.709 13.315C136.709 11.205 137.252 9.564 138.343 8.392 139.433 7.222 140.953 6.636 142.901 6.636 143.868 6.636 144.716 6.77 145.452 7.038 146.183 7.305 146.792 7.682 147.274 8.165 147.757 8.648 148.124 9.23 148.372 9.908 148.626 10.587 148.75 11.329 148.75 12.135 148.75 13.118 148.474 13.829 147.916 14.266 147.365 14.705 146.522 14.924 145.398 14.924L138.529 14.924C138.691 16.462 139.181 17.601 140.007 18.343 140.827 19.085 142.091 19.456 143.789 19.456 144.411 19.456 145.039 19.431 145.666 19.376 146.293 19.323 146.889 19.242 147.462 19.136 147.71 19.081 147.837 19.17 147.837 19.404L147.837 20.126C147.837 20.325 147.739 20.449 147.543 20.502 146.97 20.664 146.339 20.779 145.651 20.852zM146.644 13.153C146.87 12.974 146.978 12.644 146.978 12.16 146.978 10.819 146.628 9.814 145.919 9.142 145.214 8.474 144.21 8.137 142.901 8.137 141.562 8.137 140.499 8.593 139.725 9.506 138.946 10.418 138.541 11.722 138.505 13.422L145.585 13.422C146.066 13.422 146.422 13.332 146.644 13.153zM150.514 8.031L150.514 7.171C150.514 6.957 150.632 6.851 150.865 6.851L162.183 6.851C162.416 6.851 162.533 6.957 162.533 7.171L162.533 8.031C162.533 8.245 162.416 8.352 162.183 8.352L157.407 8.352 157.407 20.422C157.407 20.637 157.295 20.744 157.062 20.744L155.986 20.744C155.754 20.744 155.64 20.637 155.64 20.422L155.64 8.352 150.865 8.352C150.632 8.352 150.514 8.245 150.514 8.031M173.244 20.852C172.555 20.923 171.862 20.959 171.166 20.959 166.586 20.959 164.3 18.607 164.3 13.904L164.3 13.315C164.3 11.205 164.844 9.564 165.934 8.392 167.026 7.222 168.547 6.636 170.497 6.636 171.459 6.636 172.31 6.77 173.041 7.038 173.775 7.305 174.382 7.682 174.867 8.165 175.35 8.648 175.715 9.23 175.967 9.908 176.215 10.587 176.344 11.329 176.344 12.135 176.344 13.118 176.065 13.829 175.511 14.266 174.955 14.705 174.116 14.924 172.99 14.924L166.122 14.924C166.285 16.462 166.778 17.601 167.599 18.343 168.42 19.085 169.682 19.456 171.38 19.456 172.006 19.456 172.629 19.431 173.255 19.376 173.884 19.323 174.483 19.242 175.053 19.136 175.305 19.081 175.43 19.17 175.43 19.404L175.43 20.126C175.43 20.325 175.331 20.449 175.133 20.502 174.56 20.664 173.932 20.779 173.244 20.852zM174.234 13.153C174.46 12.974 174.572 12.644 174.572 12.16 174.572 10.819 174.218 9.814 173.514 9.142 172.805 8.474 171.8 8.137 170.497 8.137 169.154 8.137 168.094 8.593 167.317 9.506 166.539 10.418 166.132 11.722 166.096 13.422L173.178 13.422C173.658 13.422 174.012 13.332 174.234 13.153zM183.459 20.798C182.824 20.691 182.257 20.539 181.753 20.342L181.753 25.599C181.753 25.814 181.641 25.92 181.408 25.92L180.332 25.92C180.102 25.92 179.987 25.814 179.987 25.599L179.987 8.352C179.987 7.781 180.235 7.405 180.738 7.226 181.345 7.03 182.023 6.882 182.774 6.783 183.525 6.685 184.243 6.636 184.919 6.636 186.101 6.636 187.125 6.797 187.991 7.119 188.859 7.441 189.581 7.902 190.164 8.5 190.746 9.099 191.176 9.824 191.454 10.672 191.729 11.522 191.867 12.474 191.867 13.529L191.867 14.522C191.867 15.63 191.712 16.592 191.398 17.405 191.085 18.219 190.647 18.89 190.084 19.416 189.521 19.945 188.849 20.333 188.074 20.584 187.295 20.833 186.441 20.959 185.512 20.959 184.777 20.959 184.095 20.905 183.459 20.798zM183.232 19.404C183.767 19.44 184.322 19.456 184.895 19.456 186.575 19.456 187.863 19.067 188.755 18.29 189.651 17.513 190.099 16.194 190.099 14.334L190.099 13.717C190.099 11.857 189.64 10.463 188.729 9.533 187.818 8.604 186.496 8.137 184.76 8.137 184.223 8.137 183.686 8.169 183.152 8.233 182.615 8.294 182.15 8.396 181.753 8.54L181.753 19.217C182.205 19.304 182.697 19.367 183.232 19.404zM207.022 1.433L207.022 2.102C207.022 2.281 206.885 2.388 206.616 2.424 205.381 2.531 204.236 2.729 203.184 3.014 202.128 3.3 201.185 3.703 200.354 4.221 199.52 4.74 198.819 5.384 198.246 6.153 197.673 6.922 197.273 7.841 197.042 8.916 197.612 8.468 198.301 8.11 199.106 7.841 199.912 7.575 200.743 7.441 201.6 7.441 203.495 7.441 204.899 8.007 205.813 9.142 206.724 10.279 207.179 11.983 207.179 14.253 207.179 16.559 206.664 18.254 205.639 19.336 204.61 20.418 203.165 20.959 201.303 20.959 200.107 20.959 199.106 20.757 198.301 20.355 197.498 19.953 196.849 19.371 196.358 18.612 195.863 17.853 195.512 16.918 195.298 15.809 195.084 14.701 194.975 13.44 194.975 12.027 194.975 10.186 195.259 8.585 195.837 7.226 196.404 5.867 197.206 4.74 198.235 3.846 199.264 2.953 200.49 2.277 201.923 1.821 203.353 1.365 204.928 1.11 206.644 1.057 206.892 1.057 207.022 1.182 207.022 1.433zM197.011 15.42C197.195 16.358 197.472 17.128 197.845 17.727 198.222 18.325 198.694 18.765 199.267 19.041 199.84 19.319 200.516 19.456 201.303 19.456 202.772 19.456 203.823 19.009 204.458 18.116 205.094 17.221 205.409 15.934 205.409 14.253 205.409 12.483 205.096 11.155 204.471 10.27 203.842 9.386 202.808 8.942 201.358 8.942 200.552 8.942 199.75 9.085 198.944 9.372 198.141 9.657 197.425 10.042 196.801 10.524 196.763 10.739 196.745 10.981 196.745 11.249L196.745 12.027C196.745 13.351 196.836 14.481 197.011 15.42zM214.122 25.988C213.389 25.907 212.764 25.796 212.246 25.653 212.048 25.599 211.951 25.465 211.951 25.25L211.951 24.553C211.951 24.32 212.076 24.231 212.324 24.285 213.47 24.499 214.739 24.607 216.136 24.607 216.991 24.607 217.698 24.531 218.252 24.379 218.809 24.227 219.248 23.994 219.568 23.681 219.891 23.368 220.113 22.967 220.238 22.474 220.363 21.982 220.425 21.396 220.425 20.717L220.425 20.126C220.141 20.216 219.826 20.301 219.49 20.382 219.148 20.463 218.794 20.53 218.427 20.584 218.062 20.637 217.698 20.677 217.342 20.704 216.983 20.73 216.644 20.744 216.324 20.744 214.463 20.744 213.081 20.306 212.182 19.431 211.278 18.554 210.825 17.061 210.825 14.951L210.825 7.171C210.825 6.957 210.942 6.851 211.172 6.851L212.246 6.851C212.477 6.851 212.597 6.957 212.597 7.171L212.597 15.299C212.597 16.73 212.928 17.745 213.598 18.343 214.271 18.943 215.401 19.242 216.991 19.242 217.512 19.242 218.081 19.225 218.697 19.187 219.312 19.153 219.891 19.09 220.425 19.001L220.425 7.171C220.425 6.957 220.541 6.851 220.775 6.851L221.846 6.851C222.08 6.851 222.197 6.957 222.197 7.171L222.197 20.932C222.197 22.738 221.754 24.052 220.869 24.875 219.983 25.697 218.505 26.108 216.43 26.108 215.628 26.108 214.856 26.067 214.122 25.988M230.118 20.798C229.484 20.691 228.914 20.539 228.416 20.342L228.416 25.599C228.416 25.814 228.299 25.92 228.066 25.92L226.993 25.92C226.761 25.92 226.644 25.814 226.644 25.599L226.644 8.352C226.644 7.781 226.894 7.405 227.396 7.226 228.004 7.03 228.684 6.882 229.434 6.783 230.185 6.685 230.901 6.636 231.579 6.636 232.762 6.636 233.782 6.797 234.652 7.119 235.519 7.441 236.242 7.902 236.825 8.5 237.404 9.099 237.832 9.824 238.113 10.672 238.391 11.522 238.527 12.474 238.527 13.529L238.527 14.522C238.527 15.63 238.371 16.592 238.06 17.405 237.743 18.219 237.307 18.89 236.742 19.416 236.182 19.945 235.509 20.333 234.732 20.584 233.954 20.833 233.1 20.959 232.171 20.959 231.439 20.959 230.753 20.905 230.118 20.798zM229.893 19.404C230.427 19.44 230.983 19.456 231.551 19.456 233.234 19.456 234.522 19.067 235.415 18.29 236.31 17.513 236.757 16.194 236.757 14.334L236.757 13.717C236.757 11.857 236.302 10.463 235.39 9.533 234.477 8.604 233.156 8.137 231.42 8.137 230.881 8.137 230.347 8.169 229.81 8.233 229.273 8.294 228.81 8.396 228.416 8.54L228.416 19.217C228.861 19.304 229.356 19.367 229.893 19.404zM251.13 7.171L251.13 8.031C251.13 8.245 251.015 8.352 250.781 8.352L243.942 8.352 243.942 20.422C243.942 20.637 243.827 20.744 243.593 20.744L242.519 20.744C242.286 20.744 242.174 20.637 242.174 20.422L242.174 7.171C242.174 6.957 242.286 6.851 242.519 6.851L250.781 6.851C251.015 6.851 251.13 6.957 251.13 7.171M254.267 19.162C253.176 17.965 252.628 16.345 252.628 14.306L252.628 13.315C252.628 11.276 253.17 9.654 254.252 8.447 255.334 7.24 256.993 6.636 259.227 6.636 259.889 6.636 260.536 6.672 261.173 6.743 261.807 6.815 262.364 6.922 262.847 7.065 263.045 7.119 263.146 7.244 263.146 7.441L263.146 8.137C263.146 8.37 263.018 8.459 262.769 8.406 262.231 8.317 261.682 8.249 261.121 8.205 260.556 8.161 260.004 8.137 259.471 8.137 257.733 8.137 256.456 8.571 255.631 9.438 254.809 10.307 254.398 11.634 254.398 13.422L254.398 14.199C254.398 15.969 254.805 17.288 255.618 18.155 256.433 19.024 257.726 19.456 259.495 19.456 260.069 19.456 260.645 19.435 261.226 19.39 261.807 19.344 262.364 19.278 262.901 19.187 263.152 19.136 263.278 19.225 263.278 19.456L263.278 20.153C263.278 20.351 263.178 20.476 262.984 20.53 262.5 20.673 261.927 20.779 261.265 20.852 260.603 20.923 259.933 20.959 259.252 20.959 257.02 20.959 255.357 20.36 254.267 19.162M278.186 20.316C278.276 20.405 278.316 20.498 278.308 20.596 278.297 20.695 278.204 20.744 278.024 20.744L276.551 20.744C276.337 20.744 276.14 20.656 275.96 20.476L268.556 13.636 268.556 20.422C268.556 20.637 268.441 20.744 268.209 20.744L267.138 20.744C266.904 20.744 266.787 20.637 266.787 20.422L266.787 7.171C266.787 6.957 266.904 6.851 267.138 6.851L268.209 6.851C268.441 6.851 268.556 6.957 268.556 7.171L268.556 13.206 275.262 7.038C275.387 6.913 275.558 6.851 275.772 6.851L277.166 6.851C277.365 6.851 277.471 6.895 277.49 6.984 277.506 7.074 277.462 7.171 277.354 7.279L270.678 13.422 278.186 20.316M290.548 6.93C290.621 6.876 290.736 6.851 290.898 6.851L292.32 6.851C292.548 6.851 292.665 6.957 292.665 7.171L292.665 20.422C292.665 20.637 292.548 20.744 292.32 20.744L291.244 20.744C291.012 20.744 290.898 20.637 290.898 20.422L290.898 9.292 283.226 20.449C283.101 20.646 282.923 20.744 282.689 20.744L281.24 20.744C281.008 20.744 280.893 20.637 280.893 20.422L280.893 7.171C280.893 6.957 281.008 6.851 281.24 6.851L282.314 6.851C282.548 6.851 282.663 6.957 282.663 7.171L282.663 18.302 290.334 7.146C290.405 7.056 290.478 6.984 290.548 6.93M306.771 6.93C306.842 6.876 306.958 6.851 307.12 6.851L308.542 6.851C308.774 6.851 308.89 6.957 308.89 7.171L308.89 20.422C308.89 20.637 308.774 20.744 308.542 20.744L307.471 20.744C307.235 20.744 307.12 20.637 307.12 20.422L307.12 9.292 299.45 20.449C299.325 20.646 299.143 20.744 298.912 20.744L297.464 20.744C297.235 20.744 297.114 20.637 297.114 20.422L297.114 7.171C297.114 6.957 297.235 6.851 297.464 6.851L298.536 6.851C298.77 6.851 298.886 6.957 298.886 7.171L298.886 18.302 306.557 7.146C306.632 7.056 306.698 6.984 306.771 6.93zM300.026 3.82C299.282 3.139 298.877 2.174 298.807.923 298.807.744 298.904.654 299.101.654L299.797.654C299.993.654 300.112.761 300.147.976 300.292 1.817 300.616 2.428 301.124 2.812 301.635 3.197 302.255 3.39 302.99 3.39 303.722 3.39 304.342 3.197 304.853 2.812 305.361 2.428 305.688 1.817 305.833.976 305.868.761 305.984.654 306.18.654L306.876.654C307.075.654 307.174.744 307.174.923 307.102 2.174 306.695 3.139 305.953 3.82 305.213 4.498 304.225 4.839 302.99 4.839 301.755 4.839 300.767 4.498 300.026 3.82zM119.06 33.223L129.898 33.223C130.132 33.223 130.244 33.33 130.244 33.544L130.244 34.509C130.244 34.723 130.132 34.832 129.898 34.832L120.589 34.832 120.589 51.675C120.589 51.889 120.472 51.998 120.24 51.998L119.06 51.998C118.827 51.998 118.713 51.889 118.713 51.675L118.713 33.544C118.713 33.33 118.827 33.223 119.06 33.223M141.146 50.483C140.082 51.636 138.559 52.212 136.573 52.212 134.591 52.212 133.064 51.636 132.001 50.483 130.937 49.329 130.405 47.671 130.405 45.507L130.405 44.596C130.405 42.432 130.937 40.773 132.001 39.62 133.064 38.467 134.591 37.889 136.573 37.889 138.559 37.889 140.082 38.467 141.146 39.62 142.21 40.773 142.743 42.432 142.743 44.596L142.743 45.507C142.743 47.671 142.21 49.329 141.146 50.483zM139.899 40.746C139.186 39.843 138.076 39.391 136.573 39.391 135.073 39.391 133.963 39.843 133.248 40.746 132.532 41.649 132.177 42.977 132.177 44.729L132.177 45.373C132.177 47.126 132.532 48.453 133.248 49.354 133.963 50.258 135.073 50.709 136.573 50.709 138.076 50.709 139.186 50.258 139.899 49.354 140.614 48.453 140.973 47.126 140.973 45.373L140.973 44.729C140.973 42.977 140.614 41.649 139.899 40.746zM149.86 52.052C149.226 51.944 148.658 51.792 148.158 51.595L148.158 56.853C148.158 57.067 148.04 57.174 147.807 57.174L146.737 57.174C146.503 57.174 146.386 57.067 146.386 56.853L146.386 39.605C146.386 39.034 146.638 38.659 147.138 38.48 147.746 38.283 148.424 38.136 149.175 38.037 149.927 37.938 150.642 37.889 151.324 37.889 152.5 37.889 153.526 38.052 154.394 38.373 155.259 38.694 155.986 39.155 156.567 39.753 157.146 40.352 157.574 41.077 157.852 41.927 158.132 42.775 158.268 43.728 158.268 44.782L158.268 45.775C158.268 46.883 158.113 47.845 157.802 48.659 157.487 49.472 157.048 50.144 156.484 50.67 155.921 51.198 155.254 51.586 154.475 51.837 153.696 52.087 152.843 52.212 151.913 52.212 151.181 52.212 150.494 52.158 149.86 52.052zM149.635 50.657C150.168 50.692 150.722 50.709 151.294 50.709 152.976 50.709 154.264 50.322 155.157 49.543 156.052 48.766 156.497 47.447 156.497 45.587L156.497 44.971C156.497 43.111 156.044 41.715 155.131 40.787 154.219 39.856 152.895 39.391 151.161 39.391 150.623 39.391 150.091 39.422 149.55 39.486 149.015 39.548 148.552 39.65 148.158 39.794L148.158 50.47C148.604 50.559 149.097 50.621 149.635 50.657zM171.85 50.483C170.789 51.636 169.264 52.212 167.278 52.212 165.293 52.212 163.766 51.636 162.705 50.483 161.641 49.329 161.112 47.671 161.112 45.507L161.112 44.596C161.112 42.432 161.641 40.773 162.705 39.62 163.766 38.467 165.293 37.889 167.278 37.889 169.264 37.889 170.789 38.467 171.85 39.62 172.913 40.773 173.444 42.432 173.444 44.596L173.444 45.507C173.444 47.671 172.913 49.329 171.85 50.483zM170.601 40.746C169.888 39.843 168.778 39.391 167.278 39.391 165.777 39.391 164.667 39.843 163.955 40.746 163.237 41.649 162.879 42.977 162.879 44.729L162.879 45.373C162.879 47.126 163.237 48.453 163.955 49.354 164.667 50.258 165.777 50.709 167.278 50.709 168.778 50.709 169.888 50.258 170.601 49.354 171.318 48.453 171.675 47.126 171.675 45.373L171.675 44.729C171.675 42.977 171.318 41.649 170.601 40.746zM180.001 38.6C180.349 38.269 180.908 38.104 181.676 38.104L185.862 38.104C186.094 38.104 186.21 38.21 186.21 38.424L186.21 50.495 187.739 50.495C187.972 50.495 188.087 50.603 188.087 50.818L188.087 54.358C188.087 54.572 187.972 54.68 187.739 54.68L186.638 54.68C186.424 54.68 186.316 54.572 186.316 54.358L186.316 51.998 176.045 51.998 176.045 54.358C176.045 54.572 175.928 54.68 175.696 54.68L174.596 54.68C174.382 54.68 174.275 54.572 174.275 54.358L174.275 50.818C174.275 50.603 174.39 50.495 174.624 50.495L175.508 50.495C176.527 48.832 177.377 47.107 178.057 45.319 178.735 43.531 179.172 41.761 179.37 40.008 179.441 39.401 179.65 38.931 180.001 38.6zM184.441 39.605L181.945 39.605C181.676 39.605 181.478 39.664 181.342 39.78 181.207 39.897 181.122 40.072 181.088 40.304 180.799 42.092 180.349 43.867 179.733 45.628 179.113 47.389 178.377 49.012 177.52 50.495L184.441 50.495 184.441 39.605zM192.026 50.415C190.933 49.218 190.391 47.599 190.391 45.559L190.391 44.568C190.391 42.53 190.933 40.907 192.015 39.7 193.094 38.493 194.753 37.889 196.989 37.889 197.65 37.889 198.297 37.926 198.933 37.996 199.567 38.068 200.127 38.175 200.61 38.319 200.805 38.373 200.902 38.497 200.902 38.694L200.902 39.391C200.902 39.624 200.781 39.713 200.529 39.66 199.99 39.57 199.442 39.503 198.881 39.459 198.316 39.414 197.768 39.391 197.229 39.391 195.496 39.391 194.219 39.825 193.395 40.691 192.572 41.56 192.16 42.887 192.16 44.675L192.16 45.454C192.16 47.223 192.568 48.542 193.378 49.409 194.193 50.277 195.486 50.709 197.258 50.709 197.829 50.709 198.405 50.689 198.986 50.643 199.567 50.598 200.127 50.532 200.666 50.441 200.914 50.389 201.039 50.478 201.039 50.709L201.039 51.409C201.039 51.604 200.941 51.73 200.743 51.784 200.263 51.926 199.687 52.034 199.028 52.106 198.366 52.176 197.693 52.212 197.016 52.212 194.78 52.212 193.117 51.613 192.026 50.415M215.949 51.568C216.037 51.658 216.078 51.751 216.071 51.85 216.06 51.949 215.966 51.998 215.787 51.998L214.314 51.998C214.096 51.998 213.901 51.909 213.721 51.73L206.321 44.889 206.321 51.675C206.321 51.889 206.204 51.998 205.97 51.998L204.899 51.998C204.665 51.998 204.549 51.889 204.549 51.675L204.549 38.424C204.549 38.21 204.665 38.104 204.899 38.104L205.97 38.104C206.204 38.104 206.321 38.21 206.321 38.424L206.321 44.461 213.025 38.291C213.149 38.166 213.317 38.104 213.535 38.104L214.93 38.104C215.125 38.104 215.233 38.149 215.252 38.238 215.269 38.327 215.223 38.424 215.117 38.533L208.438 44.675 215.949 51.568M227.785 50.483C226.722 51.636 225.198 52.212 223.214 52.212 221.228 52.212 219.704 51.636 218.64 50.483 217.575 49.329 217.045 47.671 217.045 45.507L217.045 44.596C217.045 42.432 217.575 40.773 218.64 39.62 219.704 38.467 221.228 37.889 223.214 37.889 225.198 37.889 226.722 38.467 227.785 39.62 228.851 40.773 229.382 42.432 229.382 44.596L229.382 45.507C229.382 47.671 228.851 49.329 227.785 50.483zM226.539 40.746C225.825 39.843 224.713 39.391 223.214 39.391 221.71 39.391 220.605 39.843 219.887 40.746 219.174 41.649 218.817 42.977 218.817 44.729L218.817 45.373C218.817 47.126 219.174 48.453 219.887 49.354 220.605 50.258 221.71 50.709 223.214 50.709 224.713 50.709 225.825 50.258 226.539 49.354 227.253 48.453 227.613 47.126 227.613 45.373L227.613 44.729C227.613 42.977 227.253 41.649 226.539 40.746zM242.681 38.185C242.752 38.13 242.869 38.104 243.031 38.104L244.453 38.104C244.687 38.104 244.8 38.21 244.8 38.424L244.8 51.675C244.8 51.889 244.687 51.998 244.453 51.998L243.379 51.998C243.145 51.998 243.031 51.889 243.031 51.675L243.031 40.545 235.36 51.702C235.236 51.899 235.056 51.998 234.823 51.998L233.373 51.998C233.143 51.998 233.028 51.889 233.028 51.675L233.028 38.424C233.028 38.21 233.143 38.104 233.373 38.104L234.449 38.104C234.683 38.104 234.795 38.21 234.795 38.424L234.795 49.556 242.467 38.398C242.538 38.31 242.611 38.238 242.681 38.185zM235.937 35.073C235.197 34.394 234.788 33.428 234.717 32.176 234.717 31.999 234.814 31.908 235.009 31.908L235.71 31.908C235.905 31.908 236.022 32.016 236.057 32.23 236.202 33.07 236.524 33.682 237.038 34.066 237.547 34.453 238.169 34.644 238.9 34.644 239.632 34.644 240.255 34.453 240.766 34.066 241.274 33.682 241.602 33.07 241.743 32.23 241.782 32.016 241.897 31.908 242.093 31.908L242.792 31.908C242.986 31.908 243.087 31.999 243.087 32.176 243.012 33.428 242.608 34.394 241.863 35.073 241.123 35.753 240.135 36.092 238.9 36.092 237.665 36.092 236.677 35.753 235.937 35.073zM259.44 40.464C259.977 40.375 260.553 40.309 261.168 40.263 261.788 40.218 262.425 40.195 263.088 40.195 265.324 40.195 266.98 40.701 268.066 41.712 269.143 42.721 269.687 44.237 269.687 46.258 269.687 48.261 269.159 49.77 268.105 50.791 267.048 51.81 265.43 52.32 263.248 52.32 262.302 52.32 261.41 52.275 260.568 52.185 259.727 52.097 258.966 51.953 258.286 51.756 257.804 51.631 257.564 51.273 257.564 50.684L257.564 33.544C257.564 33.33 257.677 33.223 257.911 33.223L267.676 33.223C267.907 33.223 268.022 33.33 268.022 33.544L268.022 34.509C268.022 34.723 267.907 34.832 267.676 34.832L259.44 34.832 259.44 40.464zM266.695 49.556C267.438 48.807 267.808 47.715 267.808 46.285 267.808 44.837 267.428 43.728 266.668 42.958 265.91 42.19 264.614 41.805 262.795 41.805 262.239 41.805 261.658 41.828 261.049 41.871 260.442 41.918 259.906 41.985 259.44 42.073L259.44 50.361C259.993 50.488 260.568 50.577 261.157 50.63 261.749 50.684 262.344 50.709 262.951 50.709 264.708 50.692 265.952 50.308 266.695 49.556zM281.107 52.064C280.213 52.164 279.34 52.212 278.478 52.212 277.368 52.212 276.435 52.123 275.676 51.944 274.915 51.765 274.303 51.502 273.838 51.153 273.375 50.803 273.038 50.367 272.836 49.838 272.629 49.311 272.525 48.699 272.525 48.001 272.525 46.571 272.973 45.51 273.868 44.823 274.759 44.136 276.046 43.789 277.729 43.789 278.12 43.789 278.529 43.807 278.95 43.843 279.368 43.88 279.783 43.934 280.197 44.005 280.609 44.076 281.001 44.157 281.376 44.247 281.75 44.337 282.099 44.434 282.42 44.541L282.42 43.737C282.42 42.913 282.362 42.226 282.233 41.671 282.11 41.118 281.871 40.67 281.524 40.33 281.175 39.991 280.696 39.749 280.088 39.605 279.48 39.463 278.693 39.391 277.729 39.391 277.14 39.391 276.53 39.418 275.905 39.472 275.277 39.526 274.706 39.596 274.188 39.687 274.099 39.704 274.011 39.696 273.932 39.66 273.852 39.624 273.813 39.552 273.813 39.445L273.813 38.694C273.813 38.551 273.892 38.452 274.055 38.398 274.628 38.238 275.265 38.113 275.971 38.024 276.677 37.934 277.407 37.889 278.155 37.889 279.285 37.889 280.236 37.996 281.015 38.21 281.793 38.424 282.412 38.756 282.879 39.203 283.345 39.65 283.677 40.21 283.883 40.881 284.088 41.55 284.192 42.342 284.192 43.254L284.192 50.603C284.192 51.193 283.942 51.55 283.441 51.675 282.78 51.837 282.001 51.967 281.107 52.064zM280.573 50.63C281.232 50.577 281.858 50.478 282.451 50.335L282.42 50.335 282.42 45.695C281.833 45.551 281.197 45.448 280.52 45.386 279.838 45.324 279.152 45.292 278.451 45.292 276.95 45.292 275.882 45.503 275.246 45.923 274.613 46.342 274.297 47.037 274.297 48.001 274.297 48.985 274.628 49.683 275.29 50.092 275.947 50.504 277.047 50.709 278.587 50.709 279.249 50.709 279.911 50.684 280.573 50.63zM290.278 45.186L290.278 51.675C290.278 51.889 290.162 51.998 289.929 51.998L288.857 51.998C288.623 51.998 288.507 51.889 288.507 51.675L288.507 38.424C288.507 38.21 288.623 38.104 288.857 38.104L289.929 38.104C290.162 38.104 290.278 38.21 290.278 38.424L290.278 43.684 298.325 43.684 298.325 38.424C298.325 38.21 298.439 38.104 298.671 38.104L299.746 38.104C299.98 38.104 300.092 38.21 300.092 38.424L300.092 51.675C300.092 51.889 299.98 51.998 299.746 51.998L298.671 51.998C298.439 51.998 298.325 51.889 298.325 51.675L298.325 45.186 290.278 45.186M315.942 51.568C316.033 51.658 316.072 51.751 316.064 51.85 316.056 51.949 315.959 51.998 315.783 51.998L314.307 51.998C314.091 51.998 313.895 51.909 313.716 51.73L306.313 44.889 306.313 51.675C306.313 51.889 306.197 51.998 305.965 51.998L304.892 51.998C304.66 51.998 304.542 51.889 304.542 51.675L304.542 38.424C304.542 38.21 304.66 38.104 304.892 38.104L305.965 38.104C306.197 38.104 306.313 38.21 306.313 38.424L306.313 44.461 313.02 38.291C313.143 38.166 313.314 38.104 313.528 38.104L314.923 38.104C315.118 38.104 315.228 38.149 315.246 38.238 315.26 38.327 315.219 38.424 315.11 38.533L308.431 44.675 315.942 51.568"/>
  </g>
</svg>
