<svg xmlns="http://www.w3.org/2000/svg" width="306" height="51" viewBox="0 0 306 51">
  <g fill="none" fill-rule="evenodd">
    <path fill="#1B4288" d="M35.368,19.521 L35.368,19.468 C36.348,19.158 37.654,18.343 37.654,16.201 C37.654,13.789 35.695,12.681 32.937,12.681 L28.254,12.681 L28.254,18.453 L25.5,18.453 C21.799,18.453 21.035,21.046 21.035,22.462 C21.035,24.474 22.197,25.365 24.34,26.431 C25.645,27.086 27.203,27.484 27.203,28.974 C27.203,29.755 26.481,30.699 24.92,30.699 L22.016,30.699 C22.451,29.953 22.633,29.14 22.633,28.429 C22.633,27.507 22.307,23.804 17.152,23.804 L12.943,23.804 L12.943,38.082 L15.81,38.082 L15.81,31.861 L16.971,33.021 L24.811,33.021 C28.472,33.021 30.215,31.136 30.215,28.886 C30.215,28.088 30.069,27.449 29.815,26.927 L32.756,26.927 C37.291,26.927 38.344,24.675 38.344,22.912 C38.344,21.121 37.183,19.793 35.368,19.521 Z M17.152,30.699 L15.81,30.699 L15.81,26.033 L17.152,26.033 C18.822,26.033 19.584,27.048 19.584,28.283 C19.584,29.429 18.895,30.699 17.152,30.699 Z M28.254,21.845 L28.254,25.308 C27.565,24.894 26.77,24.566 25.936,24.203 C25.027,23.804 24.049,23.296 24.049,22.15 C24.049,21.568 24.412,20.701 26.153,20.701 L29.381,20.701 L28.254,21.845 Z M31.121,14.914 L32.428,14.914 C34.643,14.914 34.751,16.275 34.751,16.691 C34.751,17.308 34.424,18.453 32.537,18.453 L31.121,18.453 L31.121,14.914 Z M32.756,24.675 L31.121,24.675 L31.121,20.701 L32.756,20.701 C34.751,20.701 35.295,21.664 35.295,22.679 C35.295,23.697 34.57,24.675 32.756,24.675 Z"/>
    <path fill="#1B4288" d="M50.803,12.361 C50.803,5.533 45.269,0 38.442,0 L20.98,0 C15.345,0 10.539,3.796 9.081,9.046 L30.19,9.046 C38.309,9.046 41.756,12.824 41.756,21.687 L41.756,41.72 C46.992,40.261 50.803,35.439 50.803,29.826 L50.803,12.361"/>
    <path fill="#E15D29" d="M0,38.406 C0,45.234 5.535,50.767 12.361,50.767 L29.824,50.767 C35.459,50.767 40.264,46.97 41.723,41.72 L20.613,41.72 C12.494,41.72 9.047,37.943 9.047,29.08 L9.047,9.046 C3.811,10.505 0,15.328 0,20.941 L0,38.406"/>
    <polyline fill="#1B4288" points="269.559 38.048 269.559 19.656 274.887 19.656 274.887 26.488 280.674 26.488 280.674 19.656 285.928 19.656 285.928 38.048 280.674 38.048 280.674 29.847 274.887 29.847 274.887 38.048 269.559 38.048"/>
    <path fill="#1B4288" d="M261.889 35.14L261.889 28.605C259.651 28.904 256.35 29.293 256.35 32.492 256.35 36.416 260.574 35.687 261.889 35.14zM251.485 32.795C251.485 30.275 252.799 28.406 255.32 27.433 256.457 27.043 257.486 26.738 258.373 26.595 259.26 26.439 260.434 26.296 261.852 26.097L261.852 25.515C261.959 22.851 260.434 22.355 258.551 22.355 256.846 22.355 255.07 22.902 253.508 23.74L253.154 20.437C255.32 19.656 257.522 19.265 259.795 19.265 261.215 19.265 262.457 19.406 263.418 19.761 265.439 20.349 266.506 21.929 266.754 23.789 266.824 24.181 266.824 24.818 266.824 25.658L266.824 37.105C262.211 38.882 251.485 40.072 251.485 32.795zM243.567 34.515C243.035 35.246 242.326 35.58 241.402 35.58 238.347 35.58 237.637 30.572 237.637 28.322 237.637 26.439 238.029 24.464 239.094 23.244 239.627 22.568 240.371 22.263 241.295 22.263 242.504 22.263 243.567 22.994 244.102 24.464 244.74 26.05 244.883 27.681 244.883 29.15 244.883 31.07 244.598 33.08 243.567 34.515zM249.957 24.714C249.602 23.293 248.785 22.015 247.651 20.935 245.842 19.212 239.449 17.791 236.357 22.406 236.357 17.543 238.42 15.146 242.539 14.453 246.623 13.814 248.926 13.371 248.926 13.371L248.537 9.429C248.537 9.429 244.314 10.015 240.834 10.814 237.07 11.701 233.445 14.453 232.559 19.957 231.955 23.543 232.027 29.74 233.091 32.632 234.334 35.97 236.82 38.494 241.367 38.494 247.615 38.494 250.49 34.658 250.49 28.654 250.49 27.468 250.313 26.191 249.957 24.714z"/>
    <polyline fill="#1B4288" points="288.983 38.048 288.983 19.656 294.238 19.656 294.238 28.123 300.133 19.656 305.316 19.656 299.314 27.875 305.922 38.048 300.061 38.048 294.238 28.904 294.238 38.048 288.983 38.048"/>
    <path fill="#1B4288" d="M205.183 38.439C203.514 38.439 201.738 38.296 200.176 37.711L200.602 34.515C201.845 35.246 203.016 35.58 204.438 35.58 207.102 35.58 208.555 34.357 208.486 32.632 208.486 31.8 208.237 31.162 207.668 30.714 207.137 30.275 206.568 30.025 205.822 29.99 205.111 29.935 204.543 29.882 204.047 29.882L202.768 29.882 202.768 27.127 203.123 27.127C205.076 27.127 208.13 27.043 208.13 24.521 208.167 22.568 206.107 22.121 205.076 22.121 203.407 22.121 202.094 22.511 200.602 23.293L200.318 20.261C202.164 19.513 204.188 19.212 206.214 19.212 210.475 19.123 213.137 21.041 213.03 23.931 213.102 26.296 211.077 27.681 209.657 28.123 210.582 28.322 211.361 28.548 212.002 28.996 213.279 29.847 213.777 31.269 213.777 32.548 213.777 34.904 212.498 36.519 210.651 37.41 208.805 38.244 206.817 38.439 205.183 38.439M157.85 38.439C151.78 38.439 148.406 34.75 148.406 28.761 148.406 22.796 151.993 19.212 157.92 19.212 159.555 19.212 160.727 19.406 162.252 19.957L161.685 23.293C160.691 22.796 159.838 22.511 158.772 22.511 155.221 22.511 153.697 25.41 153.697 28.605 153.697 31.851 155.186 35.082 158.807 35.082 159.908 35.082 160.795 34.855 161.756 34.357L162.145 37.746C160.691 38.244 159.412 38.439 157.85 38.439M216.05 38.048L216.05 19.656 221.268 19.656 221.268 25.459C222.366 25.41 223.078 25.41 223.361 25.41 225.776 25.41 227.588 25.8 228.688 26.63 230.003 27.625 230.891 29.384 230.818 31.304 230.677 37.302 224.604 38.439 221.303 38.439 217.858 38.439 216.05 38.048 216.05 38.048zM221.268 35.082C221.268 35.082 226.026 36.078 226.026 31.552 226.026 30.714 225.884 30.076 225.564 29.65 225.03 28.712 223.822 28.548 222.545 28.548L221.799 28.548C221.728 28.548 221.551 28.548 221.268 28.605L221.268 35.082zM170.136 27.326L170.136 22.263C170.136 22.263 170.67 22.212 171.983 22.212 174.503 22.212 175.002 23.683 175.002 24.629 175.002 26.439 173.901 27.326 171.344 27.326L170.136 27.326zM171.45 30.183C171.947 30.183 172.481 30.183 173.119 30.24 173.758 30.275 174.29 30.464 174.788 30.877 175.287 31.213 175.533 31.851 175.533 32.691 175.533 34.714 173.758 35.437 171.45 35.437 170.811 35.437 170.136 35.402 170.136 35.402L170.136 30.183 171.45 30.183zM176.67 28.263C178.872 27.576 179.973 26.191 179.973 24.093 179.973 23.152 179.76 22.406 179.369 21.765 178.943 21.091 178.232 20.492 177.345 20.154 175.676 19.406 173.368 19.212 171.344 19.212 167.473 19.212 165.024 19.656 165.024 19.656L165.024 38.048C165.024 38.048 167.615 38.439 171.344 38.439 175.037 38.439 180.649 37.515 180.791 32.832 180.791 32.795 180.791 32.738 180.791 32.632 180.897 30.629 179.617 28.654 176.67 28.263zM192.292 27.625L190.979 27.625C188.457 27.625 187.426 26.795 187.426 24.714 187.426 22.603 189.061 22.121 190.375 22.121 191.652 22.121 192.292 22.212 192.292 22.212L192.292 27.625zM191.12 19.212C187.248 19.212 182.422 19.851 182.422 24.818 182.422 27.433 183.701 29.045 186.254 29.74L181.322 38.048 186.788 38.048 190.73 30.714 192.292 30.714 192.292 38.048 197.477 38.048 197.477 19.656C197.477 19.656 194.955 19.212 191.12 19.212z"/>
    <polyline fill="#1B4288" points="63.504 38.048 63.504 12.679 82.822 12.679 82.822 38.048 77.211 38.048 77.211 16.265 69.151 16.265 69.151 38.048 63.504 38.048"/>
    <path fill="#1B4288" d="M97.806 28.214C97.806 21.326 93.01 21.929 91.235 22.355L91.235 34.357C91.946 34.515 97.806 36.769 97.806 28.214zM85.912 45.47L85.912 20.154C90.524 19.212 103.026 16.619 103.026 27.824 103.026 30.771 102.244 33.328 100.717 35.082 97.735 38.687 92.833 38.296 91.235 37.658L91.235 45.47 85.912 45.47zM113.998 35.545C115.526 35.545 116.556 34.302 116.982 32.691 117.373 31.019 117.443 29.847 117.443 28.605 117.443 26.83 117.23 25.515 116.733 24.181 116.199 22.796 115.065 22.121 113.998 22.121 112.471 22.121 111.371 23.209 110.908 24.714 110.411 26.154 110.306 27.625 110.306 28.605 110.306 30.877 110.838 35.545 113.998 35.545zM113.609 38.439C107.535 38.439 104.907 34.607 104.907 28.853 104.907 22.902 108.033 19.212 114.141 19.212 116.307 19.212 118.082 19.711 119.397 20.705 120.707 21.679 121.594 22.902 121.985 24.379 122.447 25.851 122.66 27.291 122.66 28.712 122.66 34.904 120.032 38.439 113.609 38.439z"/>
    <polyline fill="#1B4288" points="123.762 38.048 125.678 19.656 131.786 19.656 135.586 32.191 139.351 19.656 145.389 19.656 147.163 38.048 142.299 38.048 141.268 24.818 137.291 38.048 133.065 38.048 129.017 24.714 127.987 38.048 123.762 38.048"/>
  </g>
</svg>
