<svg xmlns="http://www.w3.org/2000/svg" viewBox="0 0 430 157">
  <path fill="#E9832C" fill-rule="evenodd" d="M104.982604,137.51036 C118.350175,137.51036 132.852756,142.092491 148.905453,156.316399 C150.513625,157.741693 152.654468,155.970961 151.252397,154.201681 C135.476922,134.283855 120.885804,130.489845 106.333875,127.28366 C88.5351213,123.361926 79.3795688,113.347133 72.9991299,102.351181 C71.7291381,100.162441 71.1601818,100.548518 71.0455196,103.359917 C70.9061834,106.799781 71.1427647,111.351432 71.9134683,115.82906 C71.1950158,115.862442 70.472209,115.852283 69.7464994,115.852283 C44.2828005,115.852283 23.6407163,95.2101983 23.6407163,69.7464994 C23.6407163,44.2828005 44.2828005,23.6407163 69.7464994,23.6407163 C95.2101983,23.6407163 115.853734,44.2828005 115.853734,69.7464994 C115.853734,71.5578706 115.765197,73.3489219 115.561999,75.1065906 C112.193255,74.4998974 105.567526,74.4316807 100.91863,74.8337238 C99.16967,74.9846714 99.4149598,75.7989176 100.737203,76.0384018 C115.978556,78.791744 126.450546,88.2375804 128.843936,105.37739 C128.89909,105.772176 129.414344,105.889741 129.618994,105.548657 C135.890576,95.0839248 139.492999,82.835398 139.492999,69.7464994 C139.492999,31.2272846 108.267166,0 69.7464994,0 C31.2272846,0 0,31.2272846 0,69.7464994 C0,108.267166 31.2272846,139.497353 69.7464994,139.497353 C79.9659422,139.497353 90.1041055,137.51036 104.982604,137.51036 Z M110.174331,112.185998 C113.277465,114.810164 114.222339,117.929263 112.580784,120.129615 C111.667841,121.335744 110.188845,122.000494 108.41521,122.000494 C106.673507,122.000494 104.899873,121.356064 103.66907,120.282014 C100.847511,117.816053 100.01875,113.818844 101.860601,111.547373 C102.580505,110.659105 103.750349,110.169976 105.15242,110.169976 C106.854935,110.169976 108.638729,110.886977 110.174331,112.185998 Z M124.492581,105.523983 C124.948327,108.580672 123.981682,109.84631 123.012134,109.84631 C121.954049,109.84631 120.626,108.606798 119.058468,106.162608 C117.512706,103.748898 116.946653,100.97959 117.713002,99.5804216 C118.219547,98.6544161 119.279083,98.252373 120.61584,98.7574669 C123.203721,99.7357235 124.219714,103.698098 124.492581,105.523983 Z M221.174519,89.5511148 L213.133656,79.8803085 C212.291833,78.8657664 213.013188,77.3287135 214.331077,77.3287135 L231.153026,77.3287135 C231.954209,74.9440317 232.407052,72.3967909 232.407052,69.7508537 C232.407052,57.6358574 223.389384,47.1899933 211.013133,47.1899933 C198.636881,47.1899933 189.619213,57.6358574 189.619213,69.7508537 C189.619213,81.86585 198.636881,92.1636694 211.013133,92.1636694 C214.7636,92.1636694 218.199109,91.2057327 221.174519,89.5511148 Z M257.557244,105.895547 C258.430999,106.862192 257.713998,108.418113 256.39756,108.418113 L238.04001,108.418113 C237.29398,108.418113 236.584236,108.085738 236.10672,107.510976 L232.994877,103.769217 C226.65798,107.878185 219.112052,110.27593 211.013133,110.27593 C188.667082,110.27593 170.488056,92.0969041 170.488056,69.7508537 C170.488056,47.4048033 188.667082,29.2243261 211.013133,29.2243261 C233.359183,29.2243261 251.538209,47.4048033 251.538209,69.7508537 C251.538209,77.8062304 249.16659,85.3129706 245.098262,91.6280957 L257.557244,105.895547 Z M427.138164,31.0893998 L412.156614,31.0893998 C411.056439,31.0893998 410.163816,31.9820226 410.163816,33.0836498 L410.163816,106.418058 C410.163816,107.518233 411.056439,108.410856 412.156614,108.410856 L427.138164,108.410856 C428.238339,108.410856 429.130962,107.518233 429.130962,106.418058 L429.130962,33.0836498 C429.130962,31.9820226 428.238339,31.0893998 427.138164,31.0893998 Z M401.928463,31.0893998 L385.166023,31.0893998 C384.289365,31.0893998 383.515759,31.6583561 383.260309,32.4900193 L369.995789,75.827946 L355.417734,32.4421225 C355.146319,31.6351334 354.385775,31.0893998 353.527986,31.0893998 L341.830999,31.0893998 C340.97321,31.0893998 340.211215,31.6351334 339.939799,32.4421225 L325.361745,75.827946 L312.097224,32.4900193 C311.841775,31.6583561 311.068168,31.0893998 310.191511,31.0893998 L293.42907,31.0893998 C292.788995,31.0893998 292.186656,31.3956493 291.812189,31.9109031 C291.437723,32.4261569 291.336124,33.0894555 291.539323,33.6917945 L316.158295,107.066842 C316.429711,107.873831 317.191706,108.418113 318.049495,108.418113 L331.353203,108.418113 C332.210992,108.418113 332.971536,107.873831 333.244403,107.068293 L347.678767,64.2006266 L362.113131,107.068293 C362.385998,107.873831 363.146541,108.418113 364.00433,108.418113 L377.308039,108.418113 C378.165828,108.418113 378.927823,107.873831 379.199238,107.066842 L403.818211,33.6917945 C404.02141,33.0894555 403.91981,32.4261569 403.545344,31.9109031 C403.170878,31.3956493 402.568539,31.0893998 401.928463,31.0893998 Z M285.193718,33.0836498 L285.193718,106.418058 C285.193718,107.518233 284.301095,108.410856 283.200919,108.410856 L268.21937,108.410856 C267.119194,108.410856 266.226571,107.518233 266.226571,106.418058 L266.226571,33.0836498 C266.226571,31.9820226 267.119194,31.0893998 268.21937,31.0893998 L283.200919,31.0893998 C284.301095,31.0893998 285.193718,31.9820226 285.193718,33.0836498 Z"/>
</svg>
