<svg xmlns="http://www.w3.org/2000/svg" width="329" height="107" viewBox="0 0 329 107">
  <path fill="#000000" d="M69.8744258,12.2548062 C64.7128352,12.0875344 60.1075705,15.4753153 58.7305053,20.4526327 C57.7996425,23.4636303 57.7996425,26.6855386 58.7305053,29.6965361 C59.758611,33.9406823 63.3007672,37.1090858 67.6328326,37.6595292 C71.9955269,38.5989567 76.4692874,36.6373847 78.7340561,32.7920696 C81.5125244,28.4342604 81.7566295,22.9256217 79.3745113,18.3391306 C77.7423773,14.5431723 73.9622621,12.124575 69.8317288,12.2334577 L69.8744258,12.2548062 Z M69.6609407,49.785481 C63.1727846,49.990758 56.8532577,47.6983057 52.0057257,43.380929 C46.7826586,38.6086453 43.9772773,31.7440811 44.3629603,24.6796371 C44.2447993,18.7961088 46.2793779,13.0719584 50.0843601,8.58286301 C53.5925914,4.50122763 58.3773839,1.72514518 63.6620103,0.705264035 C70.1897976,-0.825334163 77.0550712,0.173944549 82.8756664,3.50191841 C90.0386778,7.45298431 94.5116441,14.9623438 94.574648,23.1425446 C95.3545655,30.4524907 92.7796042,37.722046 87.5723378,42.9112618 C82.7754631,47.5030141 76.3415698,49.9858666 69.7036377,49.8068295 L69.6609407,49.785481 Z M236.286036,29.3976571 C234.129716,27.9721608 231.662178,27.0861903 229.091589,26.8144877 C226.455596,26.2785414 223.715192,26.8497806 221.512869,28.3942772 C219.430834,29.9735782 218.574593,32.6964238 219.378018,35.1831024 C220.15046,37.3650894 222.149097,38.8766633 224.458963,39.0258336 C226.766885,39.2525756 229.094692,38.8927569 231.22644,37.9797568 C234.809616,36.8016477 236.958603,33.1437974 236.243339,29.4403541 L236.286036,29.3976571 Z M236.499521,20.4953298 C236.600832,19.1380294 236.600832,17.7750653 236.499521,16.417765 C236.104116,14.2797594 234.505546,12.5646263 232.400607,12.0199726 C225.370299,9.98189526 217.83981,10.5582469 211.20154,13.6424591 L209.429614,3.88619153 C212.177197,2.5476514 215.103679,1.61290285 218.118456,1.11088566 C224.362682,-0.159174869 230.807658,-0.0645029036 237.011885,1.38841625 C243.608573,3.05359977 248.219851,6.87498247 249.500761,13.8772927 C249.762737,15.6579472 249.86988,17.4579579 249.820989,19.2571164 L249.820989,36.9550284 C250.055822,40.5842746 250.37605,40.9471992 254.09069,41.5022604 L254.09069,48.9955862 C250.441561,50.2272514 246.471258,50.1060207 242.904073,48.6540101 C240.980946,47.6788857 239.662868,45.8176 239.381569,43.679808 C239.381569,43.2528379 239.274827,42.8045193 239.189433,42.1640641 C234.684898,48.5686161 228.237649,50.2337996 221.149944,49.828178 C213.315042,49.1450258 207.123975,43.8719446 206.099247,37.5741351 C204.263276,27.3482004 209.429614,19.705435 219.740943,18.1683425 C226.337631,17.1222657 228.130906,17.5919328 236.563566,20.4739813 L236.499521,20.4953298 Z M175.933807,29.6111421 L168.675315,30.0594608 L168.675315,48.6753586 L155.076316,48.6753586 L155.076316,1.5592043 L168.46183,1.5592043 L168.46183,18.9795858 C171.403049,19.2456243 174.368028,19.0219884 177.236066,18.3177821 C180.650441,17.3061268 183.299037,14.6010056 184.238376,11.1660323 C185.113665,8.04915034 185.540635,4.76148031 186.202439,1.45246177 L198.584573,1.45246177 C198.862103,11.1660323 196.919389,19.7267835 187.632789,25.0639102 C187.995713,25.7470624 188.294593,26.3448206 188.61482,26.8998818 C192.436203,33.3044338 196.257586,39.7089858 200.05762,46.0067953 C200.500247,46.8919306 200.88532,47.8046951 201.210439,48.7394041 L186.90694,48.7394041 L175.912459,29.6324906 L175.933807,29.6111421 Z M131.080595,1.49515878 L144.316669,1.49515878 L144.316669,48.7607526 L130.952503,48.7607526 L130.952503,33.6033129 C128.497425,34.1583741 126.234484,34.8415263 123.928845,35.1404054 C118.018046,36.2912354 111.897785,34.8447696 107.12757,31.1695831 C103.509879,28.0841608 101.116701,23.8052201 100.381442,19.1076768 C99.2286225,13.3222315 99.9331232,7.45139216 99.7409867,1.49515878 L113.553471,1.49515878 L113.553471,3.63000945 C113.553471,7.45139216 113.553471,11.2941234 113.745607,15.0941576 C113.812318,17.4103975 114.80146,19.6040368 116.493193,21.1875315 C118.184927,22.7710262 120.439086,23.6131787 122.754677,23.5268177 C125.731146,23.6229043 128.656651,22.7377513 131.080595,21.0076939 L131.080595,1.49515878 Z M27.2628064,48.5686161 L13.9840352,48.5686161 L13.9840352,13.5570651 L0.0434603266,13.5570651 L0.0434603266,1.5378558 L41.0539417,1.5378558 L41.0539417,13.428974 L27.2628064,13.428974 L27.2628064,48.5686161 Z M6.44801234,98.9083949 C4.48394972,98.9083949 3.30978185,97.4993935 3.28843335,94.9802697 C4.00239568,93.9234709 5.17396736,93.2664408 6.44801234,93.2083436 C7.18503114,93.1585096 7.90812249,93.4265933 8.43452816,93.9448376 C8.96093383,94.463082 9.2402824,95.1818965 9.20196971,95.919604 C9.248617,96.6851068 8.98125055,97.4365556 8.46156429,98.0005562 C7.94187802,98.5645568 7.21476795,98.8923848 6.44801234,98.9083949 Z M7.40869514,90.3689922 C5.75119425,90.3165038 4.16700549,91.0531516 3.1389938,92.3544034 C3.15399419,91.3806627 3.55297937,90.4522549 4.24911615,89.771234 C4.67222516,89.3318086 5.19088766,88.9957737 5.76486013,88.7892027 C6.40505149,88.5292169 7.07038595,88.3360553 7.75027125,88.212793 L8.8603936,87.9779595 L10.0772585,87.7644744 L11.3154719,87.5509893 L11.3154719,84.6048954 C9.62926025,84.8556171 7.96586397,85.2411252 6.34126981,85.7577148 C5.11774305,86.1482587 3.96458168,86.7320467 2.92550873,87.4869438 C0.889000738,89.0492542 -0.199948209,91.5498036 0.0434603266,94.1049809 C-0.0565072467,96.091649 0.531605889,98.0520262 1.70864385,99.6555926 C2.85534121,101.085191 4.61748418,101.878949 6.44801234,101.790443 C8.03942388,101.821355 9.57700188,101.214012 10.7177137,100.103911 C11.872551,98.9880393 12.5074096,97.4396038 12.4682912,95.8342099 C12.6073774,94.3690133 12.1096651,92.9147603 11.1019868,91.8420392 C10.1033396,90.8967828 8.76047983,90.4028574 7.38734664,90.4757348 L7.40869514,90.3689922 Z M21.391967,97.9477121 C20.7581871,98.7551747 19.7695743,99.201645 18.7447522,99.1432285 C17.5278873,99.1432285 16.6099015,98.6522128 16.6099015,97.6274845 C16.6099015,96.6027562 17.5492358,96.1117405 18.9368888,96.1117405 C19.7984896,96.0885934 20.6469236,96.3267502 21.3706185,96.7948927 L21.391967,97.9477121 Z M25.4908803,98.8443494 C24.9571677,98.8443494 24.6796371,98.5454703 24.6796371,97.9477121 L24.6796371,93.9768899 C24.737476,92.6711688 24.1658901,91.4168552 23.1425446,90.6038258 C21.9862057,89.745234 20.5674737,89.3150865 19.1290253,89.3869609 C17.6505854,89.348244 16.1850088,89.6706709 14.859324,90.3262952 L14.859324,93.1229496 C15.9224364,92.48159 17.1402363,92.1420821 18.3818276,92.1409183 C20.5166783,92.1409183 21.4773611,92.8667675 21.4773611,94.275769 L21.4773611,94.6173451 C20.3891011,94.1166421 19.1927716,93.8964588 17.9975545,93.9768899 C16.8385321,93.9474724 15.7008046,94.2917847 14.7525815,94.9589212 C13.8371087,95.6154242 13.3215159,96.6949467 13.386277,97.8196211 C13.3815099,98.921821 13.8425498,99.9747526 14.6557234,100.718806 C15.468897,101.46286 16.5585352,101.828799 17.6559784,101.726398 C19.1587891,101.777028 20.6142057,101.19641 21.6694976,100.12526 C22.1343746,101.144834 23.2035811,101.748418 24.3167125,101.619655 C24.9456404,101.658699 25.5695075,101.48582 26.0886385,101.12864 L26.0886385,98.6949098 C25.8966465,98.7920481 25.6846957,98.8432087 25.4695318,98.8443494 L25.4908803,98.8443494 Z M31.1055376,101.40617 L31.1055376,96.8162413 L35.9089516,96.8162413 L35.9089516,101.40617 L39.1966216,101.40617 L39.1966216,89.728537 L35.9089516,89.728537 L35.9089516,94.0409354 L31.1055376,94.0409354 L31.1055376,89.728537 L27.7965191,89.728537 L27.7965191,101.40617 L31.1055376,101.40617 Z M45.0888095,101.40617 L45.0888095,96.3679226 L49.7000869,101.40617 L53.9484398,101.40617 L48.0776004,94.9802697 L53.158545,89.728537 L49.1023288,89.728537 L45.0888095,93.9768899 L45.0888095,89.728537 L41.7797909,89.728537 L41.7797909,101.40617 L45.0888095,101.40617 Z M64.8788752,98.6308643 C65.612012,96.6662021 65.9599236,94.5787328 65.9036035,92.4824944 L69.5541982,92.4824944 L69.5541982,98.6308643 L64.8788752,98.6308643 Z M63.1709947,104.352264 L63.1709947,101.384822 L71.5823063,101.384822 L71.5823063,104.352264 L74.7632338,104.352264 L74.7632338,98.6308643 L72.8418682,98.6308643 L72.8418682,89.7071885 L63.0215551,89.7071885 L63.0215551,91.9701302 C63.1480402,94.2689768 62.6618037,96.5601822 61.6125537,98.6095158 L60.1181582,98.6095158 L60.1181582,104.330916 L63.1709947,104.352264 Z M84.6262439,92.4824944 L84.6262439,101.384822 L87.9352625,101.384822 L87.9352625,89.7071885 L77.8374188,89.7071885 L77.8374188,93.1442981 C77.8794136,94.4930001 77.7502937,95.8415865 77.4531457,97.1578174 C77.1969636,98.2038942 76.7059479,98.6522128 75.9374017,98.6522128 C75.7113947,98.6916843 75.4802564,98.6916843 75.2542495,98.6522128 L75.2542495,101.342125 C75.6450226,101.507749 76.0687887,101.580812 76.4924629,101.55561 C78.4414677,101.579947 80.113536,100.171411 80.4205881,98.2465912 C80.7727494,96.9086743 80.9521127,95.5311643 80.9543008,94.1476779 L80.9543008,92.5038429 L84.6262439,92.4824944 Z M95.4285883,95.1510577 C94.318466,95.1510577 93.6780108,94.6386936 93.6780108,93.7207078 C93.6780108,92.802722 94.3398145,92.2903578 95.4285883,92.2903578 L97.8623181,92.2903578 L97.8623181,95.1510577 L95.4285883,95.1510577 Z M93.1869951,101.40617 L95.876907,97.5420905 L97.8623181,97.5420905 L97.8623181,101.40617 L101.149988,101.40617 L101.149988,89.7071885 L94.8948756,89.7071885 C91.8206907,89.7071885 90.3049467,91.329675 90.3049467,93.5072227 C90.1818837,95.0493793 91.1370043,96.4732165 92.6105854,96.9443323 L89.4723549,101.384822 L93.1869951,101.40617 Z M113.041106,101.40617 L113.041106,92.4824944 L117.695081,92.4824944 L117.695081,101.40617 L120.982751,101.40617 L120.982751,89.728537 L109.732088,89.728537 L109.732088,101.40617 L113.041106,101.40617 Z M129.778336,92.2903578 C130.632737,92.2629062 131.457473,92.6052496 132.041277,93.2296921 C133.221545,94.5565263 133.221545,96.5568324 132.041277,97.8836666 C131.457473,98.5081091 130.632737,98.8504525 129.778336,98.8230009 C128.565688,98.8261589 127.449763,98.1615267 126.874939,97.0937718 L126.874939,93.9768899 C127.447594,92.90424 128.562409,92.2320723 129.778336,92.2263123 L129.778336,92.2903578 Z M130.71767,89.3442639 C129.23018,89.252845 127.793023,89.8995656 126.874939,91.0734929 L126.874939,89.7071885 L123.587269,89.7071885 L123.587269,106.060145 L126.896287,106.060145 L126.896287,99.9758202 C127.82353,101.138009 129.25424,101.781829 130.739018,101.705049 C132.245404,101.74384 133.688812,101.100582 134.667144,99.9544717 C135.691163,98.7696369 136.245585,97.2506724 136.225585,95.6847704 C136.257778,94.1168173 135.70181,92.5936184 134.667144,91.4150691 C133.73985,90.1618512 132.276621,89.4183726 130.71767,89.4083094 L130.71767,89.3442639 Z M140.516634,94.361163 C140.617865,93.0253802 141.738927,91.9977397 143.078455,92.0128272 C143.717907,91.9897466 144.339516,92.2262447 144.801912,92.6685363 C145.264307,93.110828 145.528185,93.7213168 145.533534,94.361163 L140.516634,94.361163 Z M143.71891,101.705049 C145.289685,101.799909 146.848577,101.380208 148.1594,100.509533 L148.1594,97.8623181 C147.02621,98.5273387 145.737311,98.8808654 144.423411,98.8870464 C142.288561,98.8870464 140.858211,98.0544546 140.516634,96.4533166 L148.885249,96.4533166 L148.885249,95.5780279 C148.903649,94.0198584 148.36627,92.5061125 147.369505,91.3083265 C146.369387,90.1129595 144.870512,89.4502991 143.313289,89.515052 C141.661056,89.4475282 140.059397,90.0928569 138.915496,91.286978 C137.813434,92.4328703 137.207461,93.9669784 137.228964,95.5566794 C137.169989,97.2476018 137.856913,98.8790454 139.107633,100.018517 C140.371602,101.151187 142.022424,101.754959 143.71891,101.705049 Z M154.499906,98.6308643 C155.233043,96.6662021 155.580955,94.5787328 155.524635,92.4824944 L159.175229,92.4824944 L159.175229,98.6308643 L154.499906,98.6308643 Z M152.792026,104.352264 L152.792026,101.384822 L161.224686,101.384822 L161.224686,104.352264 L164.426962,104.352264 L164.426962,98.6308643 L162.505596,98.6308643 L162.505596,89.7071885 L152.685283,89.7071885 L152.685283,91.9701302 C152.811768,94.2689768 152.325532,96.5601822 151.276282,98.6095158 L149.781886,98.6095158 L149.781886,104.330916 L152.792026,104.352264 Z M169.251725,101.40617 L169.251725,92.4824944 L173.905699,92.4824944 L173.905699,101.40617 L177.214718,101.40617 L177.214718,89.728537 L165.964054,89.728537 L165.964054,101.40617 L169.251725,101.40617 Z M186.010302,92.2903578 C186.864704,92.2629062 187.68944,92.6052496 188.273244,93.2296921 C189.453512,94.5565263 189.453512,96.5568324 188.273244,97.8836666 C187.68944,98.5081091 186.864704,98.8504525 186.010302,98.8230009 C184.797655,98.8261589 183.681729,98.1615267 183.106905,97.0937718 L183.106905,93.9768899 C183.679561,92.90424 184.794375,92.2320723 186.010302,92.2263123 L186.010302,92.2903578 Z M186.949637,89.3442639 C185.462146,89.252845 184.02499,89.8995656 183.106905,91.0734929 L183.106905,89.7071885 L179.797887,89.7071885 L179.797887,106.060145 L183.106905,106.060145 L183.106905,99.9758202 C184.034148,101.138009 185.464858,101.781829 186.949637,101.705049 C188.456022,101.74384 189.89943,101.100582 190.877762,99.9544717 C191.901781,98.7696369 192.456203,97.2506724 192.436203,95.6847704 C192.468396,94.1168173 191.912428,92.5936184 190.877762,91.4150691 C189.954974,90.1678198 188.501051,89.4250548 186.949637,89.4083094 L186.949637,89.3442639 Z M197.325011,101.40617 L202.619441,94.5106025 L202.619441,101.40617 L205.864414,101.40617 L205.864414,89.728537 L202.76888,89.728537 L197.495799,96.6027562 L197.495799,89.728537 L194.229477,89.728537 L194.229477,101.40617 L197.325011,101.40617 Z M211.756601,101.40617 L211.756601,96.8162413 L216.560015,96.8162413 L216.560015,101.40617 L219.847685,101.40617 L219.847685,89.728537 L216.560015,89.728537 L216.560015,94.0409354 L211.756601,94.0409354 L211.756601,89.728537 L208.468931,89.728537 L208.468931,101.40617 L211.756601,101.40617 Z M225.526388,101.40617 L230.820818,94.5106025 L230.820818,101.40617 L234.065791,101.40617 L234.065791,89.728537 L230.991606,89.728537 L225.697176,96.6027562 L225.697176,89.728537 L222.452203,89.728537 L222.452203,101.40617 L225.526388,101.40617 Z M239.787191,101.40617 L239.787191,94.1903749 L242.647891,97.8196211 L243.971498,97.8196211 L246.853546,94.1903749 L246.853546,101.40617 L249.970428,101.40617 L249.970428,89.728537 L246.725455,89.728537 L243.309694,94.0836324 L239.915282,89.728537 L236.670309,89.728537 L236.670309,101.40617 L239.787191,101.40617 Z M259.577256,97.9477121 C258.943476,98.7551747 257.954864,99.201645 256.930042,99.1432285 C255.713177,99.1432285 254.795191,98.6522128 254.795191,97.6274845 C254.795191,96.6027562 255.691828,96.1117405 257.079481,96.1117405 C257.941082,96.0885934 258.789516,96.3267502 259.513211,96.7948927 L259.577256,97.9477121 Z M263.67617,98.8443494 C263.142457,98.8443494 262.864926,98.5454703 262.864926,97.9477121 L262.864926,93.9768899 C262.922765,92.6711688 262.351179,91.4168552 261.327834,90.6038258 C260.171495,89.745234 258.752763,89.3150865 257.314315,89.3869609 C255.835875,89.348244 254.370298,89.6706709 253.044613,90.3262952 L253.044613,93.1229496 C254.107726,92.48159 255.325526,92.1420821 256.567117,92.1409183 C258.701968,92.1409183 259.66265,92.8667675 259.66265,94.275769 L259.66265,94.6173451 C258.587308,94.1236379 257.406532,93.9036175 256.225541,93.9768899 C255.066519,93.9474724 253.928791,94.2917847 252.980568,94.9589212 C252.065095,95.6154242 251.549502,96.6949467 251.614263,97.8196211 C251.609496,98.921821 252.070536,99.9747526 252.88371,100.718806 C253.696883,101.46286 254.786522,101.828799 255.883965,101.726398 C257.386776,101.777028 258.842192,101.19641 259.897484,100.12526 C260.362361,101.144834 261.431567,101.748418 262.544699,101.619655 C263.173627,101.658699 263.797494,101.48582 264.316625,101.12864 L264.316625,98.6949098 C264.118199,98.7953234 263.898545,98.8465759 263.67617,98.8443494 Z M271.703208,101.40617 L271.703208,92.4824944 L275.3965,92.4824944 L275.3965,89.728537 L264.764944,89.728537 L264.764944,92.4824944 L268.39419,92.4824944 L268.39419,101.40617 L271.703208,101.40617 Z M279.217883,94.361163 C279.320463,92.9827797 280.506207,91.939325 281.886446,92.0128272 C282.525898,91.9897466 283.147506,92.2262447 283.609902,92.6685363 C284.072298,93.110828 284.336176,93.7213168 284.341524,94.361163 L279.217883,94.361163 Z M282.420159,101.705049 C283.990933,101.799909 285.549825,101.380208 286.860648,100.509533 L286.860648,97.8623181 C285.727458,98.5273387 284.438559,98.8808654 283.124659,98.8870464 C280.989809,98.8870464 279.559459,98.0544546 279.217883,96.4533166 L287.586497,96.4533166 L287.586497,95.5780279 C287.604898,94.0198584 287.067518,92.5061125 286.070753,91.3083265 C285.070635,90.1129595 283.571761,89.4502991 282.014537,89.515052 C280.362304,89.4475282 278.760645,90.0928569 277.616745,91.286978 C276.514682,92.4328703 275.908709,93.9669784 275.930213,95.5566794 C275.871238,97.2476018 276.558161,98.8790454 277.808881,100.018517 C279.07285,101.151187 280.723672,101.754959 282.420159,101.705049 Z M297.748386,92.4824944 L297.748386,101.384822 L301.057405,101.384822 L301.057405,89.7071885 L290.98091,89.7071885 L290.98091,93.1442981 C291.022905,94.4930001 290.893785,95.8415865 290.596637,97.1578174 C290.340455,98.2038942 289.849439,98.6522128 289.080893,98.6522128 C288.854886,98.6916843 288.623747,98.6916843 288.39774,98.6522128 L288.39774,101.342125 C288.788514,101.507749 289.21228,101.580812 289.635954,101.55561 C291.584959,101.579947 293.257027,100.171411 293.564079,98.2465912 C293.91624,96.9086743 294.095604,95.5311643 294.097792,94.1476779 L294.097792,92.5038429 L297.748386,92.4824944 Z M306.159698,94.361163 C306.262278,92.9827797 307.448022,91.939325 308.828261,92.0128272 C309.467714,91.9897466 310.089322,92.2262447 310.551718,92.6685363 C311.014113,93.110828 311.277992,93.7213168 311.28334,94.361163 L306.159698,94.361163 Z M309.361974,101.705049 C310.932748,101.799909 312.491641,101.380208 313.802463,100.509533 L313.802463,97.8623181 C312.669274,98.5273387 311.380375,98.8808654 310.066475,98.8870464 C307.931624,98.8870464 306.501274,98.0544546 306.159698,96.4533166 L314.528313,96.4533166 L314.528313,95.5780279 C314.546713,94.0198584 314.009333,92.5061125 313.012569,91.3083265 C312.012451,90.1129595 310.513576,89.4502991 308.956352,89.515052 C307.30412,89.4475282 305.70246,90.0928569 304.55856,91.286978 C303.456497,92.4328703 302.850525,93.9669784 302.872028,95.5566794 C302.813053,97.2476018 303.499977,98.8790454 304.750697,100.018517 C306.014666,101.151187 307.665487,101.754959 309.361974,101.705049 Z M322.213775,88.4262781 C323.310182,88.4677021 324.380456,88.0854612 325.202566,87.3588528 C326.009852,86.604253 326.453209,85.538639 326.419431,84.4341074 L323.921656,84.4341074 C323.921656,85.3891342 323.147453,86.1633364 322.192427,86.1633364 C321.2374,86.1633364 320.463198,85.3891342 320.463198,84.4341074 L317.986771,84.4341074 C317.964347,85.5489679 318.416803,86.620823 319.231315,87.3823917 C320.045827,88.1439605 321.14563,88.5234676 322.256472,88.4262781 L322.213775,88.4262781 Z M319.545212,101.384822 L324.839641,94.5106025 L324.839641,101.384822 L328.084614,101.384822 L328.084614,89.7071885 L324.989081,89.7071885 L319.694651,96.5814077 L319.694651,89.7071885 L316.449678,89.7071885 L316.449678,101.384822 L319.545212,101.384822 Z"/>
</svg>
