<svg xmlns="http://www.w3.org/2000/svg" width="340" height="71" viewBox="0 0 340 71">
  <g fill="none" fill-rule="evenodd">
    <polyline fill="#233375" points="72.967 59.033 64.724 59.033 68.482 52.407 59.148 35.785 67.512 35.785 72.36 45.661 77.209 35.785 85.451 35.785 72.967 59.033"/>
    <path fill="#233375" d="M177.082644,59.032681 L166.779017,59.032681 C161.083439,59.032681 156.598579,54.3341654 156.598579,47.7108176 C156.598579,40.2405435 161.083439,35.7845568 166.779017,35.7845568 L177.082644,35.7845568 L177.082644,41.566753 L170.415025,41.566753 C166.415224,41.566753 164.113125,42.771698 164.113125,47.5895531 C164.113125,52.2880687 166.415224,53.2504849 170.415025,53.2504849 L177.082644,53.2504849 L177.082644,59.032681"/>
    <polyline fill="#233375" points="204.111 59.033 196.475 59.033 196.475 42.65 187.748 59.033 178.657 59.033 178.657 35.785 186.172 35.785 186.172 51.686 194.899 35.785 204.111 35.785 204.111 59.033"/>
    <polyline fill="#233375" points="105.812 59.033 115.63 35.785 124.115 35.785 132.236 55.058 140.357 35.785 148.72 35.785 158.537 59.033 150.537 59.033 144.599 42.289 138.538 59.033 125.934 59.033 124.115 54.215 115.63 54.215 113.813 59.033 105.812 59.033"/>
    <polyline fill="#FFFFFE" points="119.873 42.289 117.449 48.914 122.298 48.914 119.873 42.289"/>
    <path fill="#233375" d="M93.5718713,59.032681 L86.0573261,59.032681 L86.0573261,35.7845568 L101.692739,35.7845568 C109.571077,35.7845568 109.571077,42.2885651 109.571077,43.7341141 C109.571077,45.3009276 109.571077,52.2880687 101.692739,52.2880687 L93.5718713,52.2880687 L93.5718713,59.032681"/>
    <path fill="#FFFFFE" d="M93.5718713,46.5058726 L99.0249212,46.5058726 C99.8737722,46.5058726 102.056532,46.5058726 102.056532,43.9747181 C102.056532,41.566753 99.8737722,41.566753 99.0249212,41.566753 L93.5718713,41.566753 L93.5718713,46.5058726"/>
    <path fill="#233375" d="M227.746155,35.7845568 L227.746155,41.566753 L213.202122,41.566753 L213.202122,44.5771906 L220.837932,44.5771906 C228.837535,44.5771906 228.837535,49.1544418 228.837535,51.6855962 C228.837535,54.3341654 228.837535,59.032681 220.959196,59.032681 L205.566312,59.032681 L205.566312,35.7845568 L227.746155,35.7845568"/>
    <path fill="#FFFFFE" d="M213.202122,49.9975183 L213.202122,53.6123533 L219.625287,53.6123533 C221.322989,53.6123533 221.322989,52.2880687 221.322989,51.6855962 C221.322989,51.2024633 221.322989,49.9975183 219.625287,49.9975183 L213.202122,49.9975183"/>
    <g transform="translate(275.251 39.497)">
      <path fill="#233375" d="M10.798291,11.2278075 C10.798291,12.5537434 10.3136604,13.6379023 9.22275877,14.3593957 C8.13185719,15.2036964 6.67796536,15.5644431 4.73751211,15.5644431 L0.0109155313,15.5644431 L0.0109155313,0.386218585 L9.82902974,0.386218585 L9.82902974,1.59126599 L1.70808808,1.59126599 L1.70808808,7.01206045 L4.85915246,7.01206045 C7.16259597,7.01206045 8.85976851,7.49369563 9.82902974,8.69874304 C10.5569411,9.30126674 10.798291,10.2645371 10.798291,11.2278075 Z"/>
      <path stroke="#233375" stroke-width=".872" d="M10.798291,11.2278075 C10.798291,12.5537434 10.3136604,13.6379023 9.22275877,14.3593957 C8.13185719,15.2036964 6.67796536,15.5644431 4.73751211,15.5644431 L0.0109155313,15.5644431 L0.0109155313,0.386218585 L9.82902974,0.386218585 L9.82902974,1.59126599 L1.70808808,1.59126599 L1.70808808,7.01206045 L4.85915246,7.01206045 C7.16259597,7.01206045 8.85976851,7.49369563 9.82902974,8.69874304 C10.5569411,9.30126674 10.798291,10.2645371 10.798291,11.2278075 Z"/>
    </g>
    <g transform="translate(276.251 47.196)">
      <path fill="#FFFFFE" d="M7.98140887,3.5284784 C7.98140887,2.68609654 7.73812816,1.96268432 7.13185719,1.48104913 C6.40394588,0.878525429 5.07169439,0.517778754 3.4961622,0.517778754 L0.708088076,0.517778754 L0.708088076,6.66006656 L3.37452185,6.66006656 C5.07169439,6.66006656 6.40394588,6.29931988 7.13185719,5.57590767 C7.73812816,5.09427248 7.98140887,4.37277913 7.98140887,3.5284784 Z"/>
      <path stroke="#233375" stroke-width=".872" d="M7.98140887,3.5284784 C7.98140887,2.68609654 7.73812816,1.96268432 7.13185719,1.48104913 C6.40394588,0.878525429 5.07169439,0.517778754 3.4961622,0.517778754 L0.708088076,0.517778754 L0.708088076,6.66006656 L3.37452185,6.66006656 C5.07169439,6.66006656 6.40394588,6.29931988 7.13185719,5.57590767 C7.73812816,5.09427248 7.98140887,4.37277913 7.98140887,3.5284784 Z"/>
    </g>
    <g transform="translate(289.725 39.497)">
      <polygon fill="#233375" points="15.233 15.564 13.657 15.564 11.719 11.349 3.598 11.349 1.779 15.564 .082 15.564 6.506 .386 8.446 .386"/>
      <polygon stroke="#233375" stroke-width=".872" points="15.233 15.564 13.657 15.564 11.719 11.349 3.598 11.349 1.779 15.564 .082 15.564 6.506 .386 8.446 .386"/>
    </g>
    <g transform="translate(293.575 40.421)">
      <polygon fill="#FFFFFE" points="7.384 9.219 4.231 2.232 3.627 .908 3.142 2.232 .233 9.219"/>
      <polygon stroke="#233375" stroke-width=".872" points="7.384 9.219 4.231 2.232 3.627 .908 3.142 2.232 .233 9.219"/>
    </g>
    <g transform="translate(308.973 39.497)">
      <polygon fill="#233375" points="12.47 15.564 10.894 15.564 10.894 8.338 1.924 8.338 1.924 15.564 .348 15.564 .348 .386 1.924 .386 1.924 7.012 10.894 7.012 10.894 .386 12.47 .386"/>
      <polygon stroke="#233375" stroke-width=".872" points="12.47 15.564 10.894 15.564 10.894 8.338 1.924 8.338 1.924 15.564 .348 15.564 .348 .386 1.924 .386 1.924 7.012 10.894 7.012 10.894 .386 12.47 .386"/>
    </g>
    <path stroke="#233375" stroke-width=".872" d="M251.385667,29.7646874 L251.385667,64.69763"/>
    <path fill="#233375" d="M25.2114531,24.2201645 C25.8177753,24.2201645 26.4240975,24.2201645 26.9091552,24.4607685 L26.7859659,8.68099356 L28.7261969,8.68099356 C28.7261969,8.68099356 28.483668,13.0176407 29.332519,24.822637 C39.7554858,27.1112626 47.6338243,36.2657649 47.6338243,47.3489491 C47.6338243,55.6603749 43.2702295,62.7668556 36.8470642,66.8628987 C36.7257998,66.7416343 36.4832709,66.3816906 36.2407421,66.1391618 C29.332519,57.3465279 27.634817,44.217247 27.1497592,32.7721943 C28.1198747,33.0127983 29.0899902,33.1340628 30.0601056,33.2534024 C31.9984117,45.7821356 37.8171797,54.0935614 42.5445678,59.273285 C44.7254027,56.3841118 46.0593115,53.1311453 46.0593115,49.5163102 C46.0593115,45.3009276 44.3616094,41.566753 41.5744523,38.5543904 C38.7853703,35.5439528 35.0280977,33.1340628 30.4238989,31.9291178 C28.483668,31.4479097 26.4240975,31.2073057 24.2413377,31.2073057 C22.1817671,31.2073057 20.1202718,31.4479097 18.0607012,31.9291178 C9.09098283,34.2177433 2.42528867,41.2048845 2.42528867,49.5163102 C2.42528867,53.1311453 3.7572726,56.3841118 5.81876796,59.273285 C10.6654956,54.0935614 16.3629992,45.7821356 18.3013053,33.2534024 C19.2714207,33.1340628 20.2415362,33.0127983 21.3329161,32.7721943 C20.8478584,44.217247 19.1501563,57.2252635 12.2419333,66.0198222 L12.2419333,65.8985577 C11.9994044,66.2604262 11.7568755,66.6222947 11.5143467,66.8628987 C5.09118136,62.7668556 0.970115466,55.6603749 0.970115466,47.3489491 C0.970115466,36.2657649 8.72718953,27.1112626 19.2714207,24.822637 C19.8777429,13.0176407 19.7564785,8.68099356 19.7564785,8.68099356 L21.6967094,8.68099356 L21.575445,24.4607685 C22.0605027,24.2201645 22.6668249,24.2201645 23.1499578,24.2201645 L23.1499578,0.970115466 L25.2114531,0.970115466 L25.2114531,24.2201645 Z M25.3327176,32.6528547 C25.5752464,43.6147745 26.302833,57.3465279 29.9388412,66.6222947 C30.3026345,67.5866356 30.9070318,68.6703162 31.3920896,69.6327323 C29.0899902,70.2352048 26.6647015,70.7183377 24.2413377,70.7183377 C21.6967094,70.7183377 19.2714207,70.2352048 17.0905858,69.6327323 C17.6969079,68.4297122 18.1819657,67.3441068 18.6670234,66.2604262 C22.0605027,57.1059239 23.0286933,43.4935101 23.1499578,32.6528547 C23.3924866,32.6528547 23.8775444,32.6528547 24.2413377,32.6528547 C24.605131,32.6528547 24.9689243,32.6528547 25.3327176,32.6528547 Z"/>
    <g transform="translate(327.221 39.497)">
      <polygon fill="#233375" points="12.039 15.564 9.979 15.564 2.099 7.856 1.977 15.564 .523 15.564 .523 .386 1.977 .386 1.977 7.254 9.372 .386 11.189 .386 3.555 7.494"/>
      <polygon stroke="#233375" stroke-width=".872" points="12.039 15.564 9.979 15.564 2.099 7.856 1.977 15.564 .523 15.564 .523 .386 1.977 .386 1.977 7.254 9.372 .386 11.189 .386 3.555 7.494"/>
    </g>
  </g>
</svg>
