<svg xmlns="http://www.w3.org/2000/svg" width="241" height="111" viewBox="0 0 241 111">
  <g fill="none" fill-rule="evenodd">
    <path fill="#009A49" d="M63.1388259,73.8319224 L63.0557571,74 L0,74 L63.1388259,10.9534232 L63.1388259,37.2084599 L44.8003011,55.5201911 L63.1388259,55.5201911 L63.1388259,73.8319224 Z M202.060419,18.5627563 L202.060419,37.0425651 L181.627687,37.0425651 L181.627687,55.5201911 L202.060419,55.5201911 L202.060419,74 L163.123025,74 C163.123025,49.4170083 163.123025,24.6659391 163.123025,0 L181.627687,0 L181.627687,37.0425651 L200.21979,18.5627563 L202.060419,18.5627563 Z M159.437395,59.1982537 L144.533108,74 L81.5604194,74 L81.5604194,55.5201911 L63.1388259,73.8319224 L63.1388259,55.5201911 L81.5604194,55.5201911 L81.5604194,18.8137813 L63.1388259,37.2084599 L63.1388259,10.9534232 L74.1913448,0 L100.150337,0 L100.150337,37.0425651 L140.849663,37.0425651 L140.849663,55.5201911 L100.150337,55.5201911 L100.150337,37.0425651 L118.657185,18.5627563 L159.437395,18.5627563 C159.437395,32.1071945 159.437395,45.6538155 159.437395,59.1982537 Z M202.060419,74 L202.060419,55.5201911 L222.493152,55.5201911 L222.493152,37.0425651 L202.060419,37.0425651 L202.060419,18.5627563 L241,18.5627563 C241,32.1071945 241,45.6538155 241,59.1982537 L226.178782,74 L202.060419,74 Z"/>
    <path fill="#151D1F" d="M13.0636576,90.8180391 L0,111 L5.52625946,111 L8.03799684,106.862989 L13.0636576,106.862989 L13.0636576,103.142703 L10.2152731,103.142703 L13.0636576,98.5090784 L13.0636576,90.8180391 Z M32.5738893,97.9304152 L35.0025579,89 L29.8107596,89 L23.8647842,111 L29.0565826,111 L30.9824665,104.051722 L34.1653121,101.488762 L38.2684723,111 L44.8003011,111 L38.6881882,98.0966729 L50.0751683,89 L43.5433394,89 L32.5738893,97.9304152 Z M65.1477786,89 L65.1477786,93.2989498 L64.3105328,93.2989498 L63.2218947,97.1854942 L65.1477786,97.1854942 L65.1477786,101.488762 L62.1332565,101.488762 L60.6270885,106.698891 L65.1477786,106.698891 L65.1477786,111 L54.2635833,111 L60.2073726,89 L65.1477786,89 Z M14.3184333,89 L13.0636576,90.8180391 L13.0636576,98.5090784 L15.4070715,94.7887918 L15.9951109,103.142703 L13.0636576,103.142703 L13.0636576,106.862989 L16.0781797,106.862989 L16.4126408,111 L22.0241551,111 L19.5954865,89 L14.3184333,89 Z M65.1477786,111 C70.1734394,110.915792 73.9421385,108.765237 75.1138454,104.384238 C77.0397293,97.3517519 70.5079005,97.1854942 68.6650854,97.1854942 L65.1477786,97.1854942 L65.1477786,101.488762 L66.4878091,101.488762 C67.7447708,101.488762 70.2565082,101.570812 69.5023312,104.21798 C68.9995465,106.202277 67.1589173,106.698891 65.1477786,106.698891 L65.1477786,111 Z M75.8680224,108.519089 L75.8680224,111 L74.2765996,111 L75.8680224,108.519089 Z M65.1477786,93.301109 L75.8658364,93.301109 L75.8658364,89 L65.1477786,89 L65.1477786,93.301109 Z M75.8680224,93.2989498 L76.3686211,93.2989498 L77.542514,89 L75.8680224,89 L75.8680224,93.2989498 Z M87.423326,90.8180391 L87.423326,98.5090784 L84.4918727,103.142703 L87.423326,103.142703 L87.423326,106.862989 L82.3145964,106.862989 L79.8028591,111 L75.8680224,111 L75.8680224,108.519089 L87.423326,90.8180391 Z M87.423326,106.862989 L87.423326,103.142703 L90.2695245,103.142703 L89.6836711,94.7887918 L87.423326,98.5090784 L87.423326,90.8180391 L88.5950329,89 L93.8720861,89 L96.3007547,111 L90.6892404,111 L90.4378481,106.862989 L87.423326,106.862989 Z M110.87058,89 L110.87058,93.2989498 L108.022196,93.2989498 L106.430773,99.1719501 L110.533933,99.1719501 C110.619188,99.1719501 110.787512,99.1719501 110.87058,99.1719501 L110.87058,103.39101 C110.619188,103.39101 110.450864,103.39101 110.284727,103.39101 L105.259066,103.39101 L103.250113,111 L97.9730602,111 L103.919036,89 L110.87058,89 Z M120.751392,101.404554 C120.331676,103.637158 120.414745,105.375307 120.751392,106.78094 L120.751392,101.404554 Z M120.751392,91.9753656 L120.751392,95.9461184 L120.668324,96.1123761 C118.991646,102.56188 113.716779,103.306801 110.87058,103.39101 L110.87058,99.1719501 C113.130925,99.0877417 114.554025,98.1787222 115.139878,96.1123761 C115.894055,93.1348513 113.297063,93.2989498 112.125356,93.2989498 L110.87058,93.2989498 L110.87058,89 L114.304818,89 C117.402409,89 119.997215,89.8248111 120.751392,91.9753656 Z M120.751392,95.9461184 C121.168922,94.2921778 121.085853,92.9685936 120.751392,91.9753656 L120.751392,95.9461184 Z M120.751392,106.78094 L120.751392,101.404554 C120.834461,101.074198 120.91753,100.741682 121.000599,100.413485 C123.932052,89.4124055 132.223627,89 134.23258,89 C141.684723,89 142.270577,93.6293061 141.601654,96.6910394 L136.746503,96.6910394 C137.247102,93.2169006 134.483972,93.0506429 133.312265,93.0506429 C132.223627,93.0506429 128.286605,93.2989498 126.362907,100.247227 C125.357337,104.133772 126.362907,106.947198 129.71189,106.947198 C132.977804,106.947198 134.567041,104.630386 135.238149,103.058494 L140.178555,103.058494 C138.921594,106.202277 135.907071,111 128.454928,111 C124.854553,111 121.756962,109.924723 120.751392,106.78094 Z M159.940179,89 L159.940179,93.2989498 L159.102933,93.2989498 L158.014295,97.1854942 L159.940179,97.1854942 L159.940179,101.488762 L156.842588,101.488762 L155.419489,106.698891 L159.940179,106.698891 L159.940179,111 L149.053798,111 L154.999773,89 L159.940179,89 Z M159.940179,111 C164.96584,110.915792 168.732353,108.765237 169.906246,104.384238 C171.83213,97.3517519 165.217232,97.1854942 163.374417,97.1854942 L159.940179,97.1854942 L159.940179,101.488762 L161.197141,101.488762 C162.537171,101.488762 164.96584,101.570812 164.294732,104.21798 C163.708878,106.202277 161.866063,106.698891 159.940179,106.698891 L159.940179,111 Z M170.575168,108.352831 L170.575168,111 L168.817608,111 L170.575168,108.352831 Z M159.940179,93.301109 L170.575168,93.301109 L170.575168,89 L159.940179,89 L159.940179,93.301109 Z M170.575168,93.2989498 L171.161022,93.2989498 L172.334915,89 L170.575168,89 L170.575168,93.2989498 Z M181.881266,90.8180391 L181.881266,98.5090784 L179.032881,103.142703 L181.881266,103.142703 L181.881266,106.862989 L176.855605,106.862989 L174.343867,111 L170.575168,111 L170.575168,108.352831 L181.881266,90.8180391 Z M181.881266,106.862989 L181.881266,103.142703 L184.810533,103.142703 L184.224679,94.7887918 L181.881266,98.5090784 L181.881266,90.8180391 L183.136041,89 L188.410908,89 L190.841763,111 L185.230249,111 L184.978856,106.862989 L181.881266,106.862989 Z M215.795185,107.111296 L214.706547,111 L215.795185,111 L215.795185,107.111296 Z M215.795185,89 L215.795185,92.8843851 L210.854779,111 L205.577726,111 L208.174718,101.570812 L200.134535,101.570812 L197.539729,111 L192.264862,111 L198.29172,89 L203.483519,89 L201.223174,97.2697026 L209.346425,97.2697026 L211.608956,89 L215.795185,89 Z M215.795185,92.8843851 L216.798569,89 L215.795185,89 L215.795185,92.8843851 Z M215.795185,111 L215.795185,107.111296 L220.733405,89 L225.92739,89 L223.498721,97.9304152 L234.468171,89 L241,89 L229.61302,98.0966729 L235.722947,111 L229.193304,111 L225.090144,101.488762 L221.907298,104.051722 L219.981414,111 L215.795185,111 Z"/>
  </g>
</svg>
