<svg xmlns="http://www.w3.org/2000/svg" xmlns:xlink="http://www.w3.org/1999/xlink" width="241" height="71" viewBox="0 0 241 71">
  <defs>
    <polygon id="a" points="0 0 241 0 241 71 0 71"/>
  </defs>
  <g fill="none" fill-rule="evenodd">
    <mask id="b" fill="white">
      <use xlink:href="#a"/>
    </mask>
    <path fill="#ED3523" d="M168.806731,34.8850823 C167.319378,34.8850823 166.110803,36.0929945 166.110803,37.5693317 C166.110803,39.060106 167.319378,40.2562546 168.806731,40.2562546 C170.292472,40.2562546 171.499435,39.060106 171.499435,37.5693317 C171.499435,36.0929945 170.292472,34.8850823 168.806731,34.8850823 Z M75.3882038,37.4367234 C75.3882038,37.4367234 76.7332131,32.9553102 76.9378651,32.2532346 C77.4814551,30.42987 78.2946916,27.5590065 78.2946916,27.5590065 L78.4279034,27.5590065 C78.4279034,27.5590065 79.1766826,30.5346734 79.6654839,32.2270338 C79.8567073,32.8852631 81.1415565,37.4367234 81.1415565,37.4367234 L75.3882038,37.4367234 Z M83.5748202,45.5750252 L88.4408105,45.5750252 L81.091602,23.2128752 C80.3186514,22.9530057 79.3523288,22.7904535 78.3322917,22.7904535 C77.2182544,22.7904535 76.8207676,22.9374991 75.9468339,23.2128752 L68.1534071,45.5750252 L72.8142082,45.5750252 C72.8142082,45.5750252 73.4394442,43.6169134 74.2032634,41.1839783 L82.2625766,41.1839783 C82.9887957,43.6153093 83.5748202,45.5750252 83.5748202,45.5750252 Z M241,45.5750252 C241,45.5750252 238.696188,40.679211 238.131649,39.5723592 C237.495671,38.3157883 236.910183,37.4490217 235.608683,37.1410282 L235.608683,37.067238 C236.480468,36.9036165 237.172847,36.3774608 237.922163,34.7786748 C238.644622,33.2141103 238.858406,32.879916 239.280064,32.5104306 C239.695814,32.1355982 240.261964,32.278366 240.261964,32.278366 L240.476284,29.3663298 C239.870386,29.2861231 239.201641,29.2850537 238.510873,29.3224835 C237.369979,29.3930653 236.773211,29.7154961 236.214581,30.2844286 C235.777346,30.7164751 235.474934,31.3618713 235.103767,32.1184874 C234.707354,32.9269705 234.395274,33.5809221 233.99725,34.4043771 C233.591169,35.2470817 233.392962,35.6235182 232.299336,35.6235182 L231.589769,35.6235182 L231.589769,29.5775406 L227.348477,29.5775406 L227.348477,45.5750252 L231.589769,45.5750252 L231.589769,39.0381829 L232.167199,39.0285581 C233.372551,39.0285581 233.578814,39.3279963 234.21909,40.5936573 C234.973241,42.1068895 236.39721,45.5750252 236.39721,45.5750252 L241,45.5750252 Z M223.664742,45.5750252 L223.664742,29.5775406 L219.439565,29.5775406 L219.439565,35.6261918 L214.656832,35.6261918 L214.656832,29.5775406 L210.439712,29.5775406 L210.439712,45.5750252 L214.656832,45.5750252 L214.656832,39.0424606 L219.439565,39.0424606 L219.439565,45.5750252 L223.664742,45.5750252 Z M107.587857,29.4320992 L107.570668,44.7339248 C109.573142,45.5750252 111.772748,45.9541353 113.727416,45.9541353 C118.212571,45.9541353 120.612532,43.6463225 120.612532,39.8423883 C120.612532,36.4004534 118.488126,34.2712341 114.517555,34.2712341 C113.508798,34.2712341 112.917402,34.4043771 111.809811,34.6690591 L111.809811,29.4320992 L107.587857,29.4320992 Z M116.245011,40.0375578 C116.245011,41.6160248 115.686381,42.6972105 113.658124,42.6972105 C112.974877,42.6972105 112.69395,42.6972105 111.807662,42.4496393 L111.807662,37.8366872 C112.908271,37.6233375 113.005494,37.5875119 113.658124,37.5875119 C115.596678,37.5875119 116.245011,38.5259297 116.245011,40.0375578 Z M208.227214,44.0398699 C207.108343,42.3523219 206.818822,41.3566899 206.818822,39.2338871 L206.818822,34.9246509 C206.818822,32.5965191 206.551324,31.7425856 205.932534,30.8891868 C205.07364,29.6919688 203.64591,29.1743685 201.008532,29.1743685 C199.14679,29.1743685 197.323185,29.3748852 195.578003,29.8170912 L196.202702,32.9034432 C197.386031,32.7387522 198.630594,32.5965191 199.523328,32.5965191 C202.314867,32.5965191 202.637153,33.0023648 202.637153,35.0872031 L202.637153,35.8689506 C202.017289,35.7026555 201.320076,35.5828802 200.505228,35.5828802 C196.282736,35.5828802 194.059496,37.6329623 194.059496,41.0176831 C194.059496,44.198679 196.435822,45.9354205 199.343922,45.9354205 C200.426267,45.9354205 201.551585,45.7349038 202.443781,45.3761127 C202.983612,45.1397705 203.217806,45.0066274 203.913408,44.5489148 C204.335604,45.1649019 205.180532,45.7873055 205.52323,45.8995948 L208.227214,44.0398699 Z M202.85792,42.1956515 C201.930809,42.5159434 201.320076,42.5891988 200.583651,42.5891988 C199.07159,42.5891988 198.220216,41.9951349 198.220216,40.4524936 C198.220216,38.847291 199.302562,38.3034899 201.395813,38.3034899 C201.903951,38.3034899 202.406181,38.3799536 202.637153,38.4617644 L202.637153,39.6129972 C202.637153,40.8545963 202.704834,41.6668223 202.85792,42.1956515 Z M161.629408,44.0398699 C160.514834,42.3523219 160.225313,41.3566899 160.225313,39.2338871 L160.225313,34.9246509 C160.225313,32.5965191 159.95513,31.7425856 159.334728,30.8891868 C158.480131,29.6919688 157.049716,29.1743685 154.413949,29.1743685 C152.55543,29.1743685 150.72699,29.3748852 148.980197,29.8170912 L149.606507,32.9034432 C150.79467,32.7387522 152.031714,32.5965191 152.927133,32.5965191 C155.723507,32.5965191 156.045793,33.0023648 156.045793,35.0872031 L156.045793,35.8689506 C155.424317,35.7026555 154.723881,35.5828802 153.910645,35.5828802 C149.68493,35.5828802 147.46169,37.6329623 147.46169,41.0176831 C147.46169,44.198679 149.836405,45.9354205 152.748801,45.9354205 C153.830073,45.9354205 154.958613,45.7349038 155.85081,45.3761127 C156.387417,45.1397705 156.621612,45.0066274 157.320437,44.5489148 C157.742095,45.1649019 158.582726,45.7873055 158.927035,45.8995948 L161.629408,44.0398699 Z M156.2628,42.1956515 C155.334614,42.5159434 154.723881,42.5891988 153.990679,42.5891988 C152.479692,42.5891988 151.620798,41.9951349 151.620798,40.4524936 C151.620798,38.847291 152.704756,38.3034899 154.798007,38.3034899 C155.301311,38.3034899 155.808375,38.3799536 156.045793,38.4617644 L156.045793,39.6129972 C156.045793,40.8545963 156.107028,41.6668223 156.2628,42.1956515 Z M104.239836,45.5750252 L104.239836,30.1603757 C101.920984,29.4727373 100.137128,29.1743685 97.8102187,29.1743685 C95.4854581,29.1743685 93.7456477,29.4727373 91.4257214,30.1603757 L91.4257214,38.0527105 C91.4257214,40.1990405 91.3886585,40.8428326 91.1539264,41.5363528 C90.9202686,42.1443193 90.6071135,42.8741998 89.7562769,43.43832 L90.9073772,45.8995948 C94.2983692,44.9462051 95.5756983,43.4773539 95.5756983,38.8087919 L95.5756983,33.0023648 C96.6961814,32.8392779 96.9174848,32.8018481 97.8102187,32.8018481 C98.7088611,32.8018481 98.8963245,32.8392779 100.013585,33.0023648 L100.013585,45.5750252 L104.239836,45.5750252 Z M136.198848,50.8151933 L136.198848,45.0675845 C136.733844,45.3825293 137.800612,45.8477279 139.599509,45.8477279 C143.176353,45.8477279 145.81212,42.888637 145.81212,37.4811044 C145.81212,31.6564971 143.193541,29.1631396 138.889941,29.1631396 C137.796315,29.1631396 137.084599,29.2748942 136.198848,29.6951771 L136.198848,22.8278833 L131.992471,22.8278833 L131.992471,29.6951771 C131.107794,29.2748942 130.391781,29.1631396 129.299767,29.1631396 C124.996166,29.1631396 122.376514,31.7596963 122.376514,37.5805606 C122.376514,42.9902321 124.744783,45.8477279 128.583753,45.8477279 C130.39017,45.8477279 131.457475,45.3825293 131.992471,45.0675845 L131.992471,50.8151933 L136.198848,50.8151933 Z M126.713417,37.5805606 C126.713417,34.3696209 127.685111,32.6719134 129.62259,32.6719134 C130.440661,32.6719134 130.983714,32.667101 131.992471,33.1472715 L131.992471,41.980163 C131.07664,42.2790664 130.643702,42.3197045 129.827242,42.3197045 C127.619042,42.3197045 126.713417,40.525749 126.713417,37.5805606 Z M141.476828,37.4811044 C141.476828,40.4225497 140.299945,42.3197045 138.362465,42.3197045 C137.549229,42.3197045 137.117902,42.2790664 136.198848,41.980163 L136.198848,33.1472715 C137.207605,32.667101 137.750658,32.6719134 138.565506,32.6719134 C140.505671,32.6719134 141.476828,34.2680258 141.476828,37.4811044 Z M192.448063,38.6307331 C192.448063,34.6674549 190.115782,31.9366857 185.215415,31.9366857 C184.011675,31.9366857 183.171044,32.0511139 181.872766,32.3564339 L181.863634,26.6516019 C182.670962,26.5371737 184.054109,26.436648 185.57745,26.436648 C187.018608,26.436648 188.844362,26.5152506 190.446126,26.7098854 L190.557852,23.4037671 C188.736933,22.9973867 186.096332,22.7492808 184.047663,22.7492808 C182.028538,22.7492808 178.889466,23.2519091 177.394057,23.6545465 L177.392445,44.7419454 C179.723114,45.5905318 181.997383,45.9792668 184.33235,45.9792668 C189.675324,45.9792668 192.448063,43.1597355 192.448063,38.6307331 Z M187.954851,38.9499556 C187.954851,41.0871956 186.767225,42.4934856 184.577825,42.4934856 C183.712485,42.4934856 183.002918,42.4961591 181.872766,42.189235 L181.872766,35.7197662 C182.371773,35.6379554 183.402553,35.4786116 184.577825,35.5208537 C186.803214,35.6048034 187.954851,36.6394692 187.954851,38.9499556 Z M22.8576389,11.2289316 L16.537599,30.1175988 L29.2781249,30.1175988 L22.9365991,11.2289316 L22.8576389,11.2289316 Z M0.708493344,61.5238511 C0.316377998,61.5238511 0,61.8468166 0,62.2462457 L0,70.2781401 C0,70.6786387 0.316377998,71 0.708493344,71 L45.0825219,71 C45.4714143,71 45.7851066,70.6786387 45.7851066,70.2781401 L45.7851066,62.2462457 C45.7851066,61.8468166 45.4714143,61.5238511 45.0825219,61.5238511 L0.708493344,61.5238511 Z M22.895239,0 C27.7515607,0 29.2781249,3.46225392 30.5538426,6.92878553 C31.0952841,8.39442846 43.7090439,42.779556 44.0861192,43.8110135 C44.1919366,44.0954798 44.1221078,44.5708379 43.6768152,44.7403413 C43.2299111,44.90931 36.674602,47.4470485 36.3131039,47.5823304 C35.9505315,47.718147 35.5423018,47.5176304 35.40909,47.1588393 C35.2748039,46.802187 32.5584651,39.3076772 32.2512186,38.4676462 L13.5623567,38.4676462 C13.2551101,39.3076772 10.5103027,46.8155548 10.3835366,47.1588393 C10.2578449,47.5021238 9.86519238,47.7336537 9.48220849,47.5823304 C9.09761316,47.4299378 2.51329822,44.8905951 2.12440574,44.7403413 C1.74733044,44.5975735 1.57436997,44.1714088 1.7081189,43.8110135 C2.17221159,42.5202211 14.5931366,8.68851953 15.2296526,6.92878553 C16.4581016,3.51786387 18.0410659,0 22.895239,0 Z" mask="url(#b)"/>
  </g>
</svg>
