<svg width="70" height="75" viewBox="0 0 70 75" fill="none" xmlns="http://www.w3.org/2000/svg">
<path d="M2 50.5V15C2 14.4477 1.55228 14 1 14C0.447715 14 0 14.4477 0 15V50.4289C0 50.4762 0.00342104 50.5245 0.0104321 50.5713C0.833271 56.0635 5.58274 58.1278 7.93137 58.4898C7.97813 58.497 8.02375 58.5 8.07107 58.5H29C29.5523 58.5 30 58.9477 30 59.5V73.3377C30 73.4452 30.0169 73.5527 30.0532 73.6539C30.3009 74.3444 30.5562 74.7038 30.7491 74.8722C30.8903 74.9955 31.0843 74.9473 31.2432 74.848L34.4329 72.8544C34.7761 72.6399 35.2148 72.6534 35.5442 72.8887L37.9558 74.6113C38.2852 74.8466 38.7239 74.8601 39.0671 74.6456L41.9329 72.8544C42.2761 72.6399 42.7148 72.6534 43.0442 72.8887L45.4188 74.5848C45.7665 74.8332 46.2335 74.8332 46.5812 74.5848L48.9558 72.8887C49.2852 72.6534 49.7239 72.6399 50.0671 72.8544L52.97 74.6687C53.2943 74.8714 53.7057 74.8714 54.03 74.6688L56.9329 72.8544C57.2761 72.6399 57.7148 72.6534 58.0442 72.8887L60.4558 74.6113C60.7852 74.8466 61.2239 74.8601 61.5671 74.6456L64.47 72.8313C64.7943 72.6286 65.2057 72.6286 65.53 72.8312L68.6057 74.7536C68.8365 74.8978 69.1363 74.8637 69.3288 74.6712C69.4384 74.5616 69.5 74.4129 69.5 74.2579V62.5C69.5 61.9477 69.0523 61.5 68.5 61.5C67.9477 61.5 67.5 61.9477 67.5 62.5V69.9194C67.5 70.7579 66.5301 71.2241 65.8753 70.7002L65.5536 70.4428C65.222 70.1776 64.759 70.1506 64.3989 70.3757L61.5671 72.1456C61.2239 72.3601 60.7852 72.3466 60.4558 72.1113L58.0442 70.3887C57.7148 70.1534 57.2761 70.1399 56.9329 70.3544L54.0671 72.1456C53.7239 72.3601 53.2852 72.3466 52.9558 72.1113L50.5442 70.3887C50.2148 70.1534 49.7761 70.1399 49.4329 70.3544L46.5671 72.1456C46.2239 72.3601 45.7852 72.3466 45.4558 72.1113L43.0442 70.3887C42.7148 70.1534 42.2761 70.1399 41.9329 70.3544L39.0671 72.1456C38.7239 72.3601 38.2852 72.3466 37.9558 72.1113L35.4899 70.35C35.1885 70.1347 34.7928 70.1036 34.4615 70.2693L33.4472 70.7764C32.7823 71.1088 32 70.6254 32 69.882V59.5C32 58.9477 32.4477 58.5 33 58.5H47C53 58.1 54.5 53 54.5 50.5V24.5C54.8961 18.9547 59.574 18.1815 61.9309 18.4905C61.9779 18.4967 62.0249 18.4999 62.0722 18.5004C66.0161 18.5483 67.3343 22.5121 67.5 24.5V57.5C67.5 58.0523 67.9477 58.5 68.5 58.5C69.0523 58.5 69.5 58.0523 69.5 57.5V24.5C69.1 18.5 64.3333 16.6667 62 16.5H40C39.4477 16.5 39 16.0523 39 15.5V1.80425C39 1.01881 38.136 0.539969 37.47 0.956249L35.53 2.16875C35.2057 2.37142 34.7943 2.37142 34.47 2.16875L31.53 0.331249C31.2057 0.12858 30.7943 0.12858 30.47 0.331249L27.5671 2.14558C27.2239 2.36009 26.7852 2.34656 26.4558 2.11131L24.0812 0.41517C23.7335 0.166815 23.2665 0.166815 22.9188 0.41517L20.5442 2.11131C20.2148 2.34656 19.7761 2.36009 19.4329 2.14558L16.5671 0.354422C16.2239 0.139913 15.7852 0.153439 15.4558 0.388687L13.0442 2.11131C12.7148 2.34656 12.2761 2.36009 11.9329 2.14558L9.03 0.331249C8.70573 0.12858 8.29427 0.12858 7.97 0.331249L5.00011 2.18743C4.69153 2.38029 4.30256 2.39031 3.98447 2.21359L1.48564 0.825357C0.819112 0.455062 0 0.93703 0 1.69951V10C0 10.5523 0.447715 11 1 11C1.55228 11 2 10.5523 2 10V5.11803C2 4.37465 2.78231 3.89116 3.44721 4.22361L4.46148 4.73074C4.79279 4.89639 5.18852 4.86534 5.48993 4.65005L7.95584 2.88869C8.28519 2.65344 8.72386 2.63991 9.06707 2.85442L11.9329 4.64558C12.2761 4.86009 12.7148 4.84656 13.0442 4.61131L15.4558 2.88869C15.7852 2.65344 16.2239 2.63991 16.5671 2.85442L19.4329 4.64558C19.7761 4.86009 20.2148 4.84656 20.5442 4.61131L22.9188 2.91517C23.2665 2.66681 23.7335 2.66681 24.0812 2.91517L26.4558 4.61131C26.7852 4.84656 27.2239 4.86009 27.5671 4.64558L30.47 2.83125C30.7943 2.62858 31.2057 2.62858 31.53 2.83125L34.4807 4.67541C34.7994 4.87461 35.2029 4.87828 35.5252 4.68491L35.9855 4.4087C36.652 4.00878 37.5 4.4889 37.5 5.26619V50.5C37.5 51.8639 37.9306 53.1847 38.4248 54.2239C38.7848 54.9812 38.2579 56 37.4194 56H8C3.6 55.6 2.16667 52.1667 2 50.5Z" fill="#0067AD"/>
<path d="M55 18.5H39.5V51C45.5 60.6 50.6667 55 52.5 51V24C52.9 21.6 54.3333 19.3333 55 18.5Z" fill="white"/>
<path d="M21 22.5H7" stroke="#0067AD" stroke-width="2" stroke-linecap="round" stroke-linejoin="round"/>
<path d="M35 18.5H32" stroke="#0067AD" stroke-width="2" stroke-linecap="round" stroke-linejoin="round"/>
<path d="M35 42.5H32" stroke="#0067AD" stroke-width="2" stroke-linecap="round" stroke-linejoin="round"/>
<path d="M35 38.5H32" stroke="#0067AD" stroke-width="2" stroke-linecap="round" stroke-linejoin="round"/>
<path d="M35 34.5H32" stroke="#0067AD" stroke-width="2" stroke-linecap="round" stroke-linejoin="round"/>
<path d="M35 30.5H32" stroke="#0067AD" stroke-width="2" stroke-linecap="round" stroke-linejoin="round"/>
<path d="M35 26.5H32" stroke="#0067AD" stroke-width="2" stroke-linecap="round" stroke-linejoin="round"/>
<path d="M35 22.5H32" stroke="#0067AD" stroke-width="2" stroke-linecap="round" stroke-linejoin="round"/>
<path d="M28 9.5H14" stroke="#0067AD" stroke-width="2" stroke-linecap="round" stroke-linejoin="round"/>
<path d="M25 18.5H7" stroke="#0067AD" stroke-width="2" stroke-linecap="round" stroke-linejoin="round"/>
<path d="M25 26.5H7" stroke="#0067AD" stroke-width="2" stroke-linecap="round" stroke-linejoin="round"/>
<path d="M21 30.5H7" stroke="#0067AD" stroke-width="2" stroke-linecap="round" stroke-linejoin="round"/>
<path d="M35 48.5H32" stroke="#0067AD" stroke-width="2" stroke-linecap="round" stroke-linejoin="round"/>
<path d="M25 42.5H7" stroke="#0067AD" stroke-width="2" stroke-linecap="round" stroke-linejoin="round"/>
<path d="M21 38.5H7" stroke="#0067AD" stroke-width="2" stroke-linecap="round" stroke-linejoin="round"/>
<path d="M25 34.5H7" stroke="#0067AD" stroke-width="2" stroke-linecap="round" stroke-linejoin="round"/>
</svg>
