<svg xmlns="http://www.w3.org/2000/svg" viewBox="0 0 240 51">
  <g fill="none" fill-rule="evenodd">
    <path fill="#FFFFFF" d="M51,25.9990409 C51,39.8002801 39.7993244,51 26.0004798,51 C12.2006756,51 1,39.8002801 1,25.9990409 C1,12.1982813 12.2006756,1 26.0004798,1 C39.7993244,1 51,12.1982813 51,25.9990409"/>
    <path fill="#1E3262" d="M0.870742267,25.5146655 C0.870742267,11.9204356 11.9214719,0.865026163 25.5175592,0.865026163 C39.0833388,0.865026163 50.1340685,11.9199547 50.1340685,25.5146655 C50.1340685,39.0819686 39.0833388,50.1311271 25.5175592,50.1311271 C11.9214719,50.1311271 0.870742267,39.0819686 0.870742267,25.5146655 M0,25.5146655 C0,39.5613633 11.441842,51 25.5175592,51 C39.5600823,51 51,39.5613633 51,25.5146655 C51,11.4367133 39.5605633,0 25.5175592,0 C11.441842,0 0,11.4367133 0,25.5146655"/>
    <path fill="#1E3262" d="M41.384172 22.925084C41.1788528 23.1009838 40.9740045 23.2462308 40.770569 23.4259032 39.3903153 24.4789441 37.1911393 25.3334492 34.1735119 26.1290067 27.9013867 27.8300001 23.3523417 28.0615465 18.1915774 29.3305716 17.1673359 29.5927707 16.112014 29.9153323 15.1471078 30.3265511 16.112014 30.8273703 17.1673359 31.266884 18.2231287 31.6795176 20.3323598 31.0641041 21.3335264 30.7986039 24.377996 30.2991994 25.5510468 30.0893457 29.1281219 29.4446942 31.7077977 28.9212391 36.372217 27.9181858 43.2023773 25.7441965 41.384172 22.925084zM38.3660738 17.0491821C37.3649071 16.6110832 36.1339337 16.1677968 34.8186663 15.8183552 34.2276672 16.2885216 33.5580252 16.6973825 32.5563877 17.0836076 34.2027087 17.3722153 35.4341531 17.8423817 36.8370107 18.2267204 37.0719976 18.3450873 38.1857131 17.3203413 38.3660738 17.0491821zM15.5261949 23.3070648C21.6250232 21.514113 28.016761 20.9581188 34.4960891 19.226001 31.9748069 18.5511683 30.5630018 18.2550153 27.9013867 18.5799347 24.0290475 19.0501012 19.7484244 19.8682946 16.0856427 20.9576472 14.6460536 21.3995188 7.11328724 23.5419122 9.28562103 26.5373961 9.28515011 26.5680488 10.5707498 24.7486885 15.5261949 23.3070648zM11.3336331 33.5856488C11.3039654 34.1458873 11.658094 34.6443486 12.3913096 35.26212 12.4774871 34.9654954 12.6262965 34.7344206 12.8316157 34.440154 12.3310324 34.1722958 11.8318618 33.9105683 11.3336331 33.5856488zM14.1793762 33.325336C14.6460536 33.029183 15.2012631 32.7636828 15.8172208 32.5297785 14.9686308 32.1459114 14.0602346 31.769118 13.1800933 31.3564844 12.7694548 31.6205699 12.3908387 31.8841838 12.0979292 32.1459114 12.7995934 32.5590165 13.4762992 32.9395825 14.1793762 33.325336zM37.599894 20.3427053C36.3726879 20.9298239 34.6138181 21.5145846 32.0920649 22.1337707 30.0106178 22.6609985 24.9675823 23.3952505 19.5454598 24.5690161 17.8445126 24.9514684 13.1805642 26.0365768 10.8937979 27.9752472 11.5389523 28.5086055 11.9491198 28.6231997 12.6526678 29.0344186 13.5907317 28.4166472 14.8810405 27.8300001 16.7891906 27.3272946 20.0978438 26.4501535 22.5927548 26.0695875 25.5849527 25.5725409 28.5446574 25.1250103 34.1419606 23.953131 37.220807 22.835012 38.2488158 22.4850987 39.184996 22.0149323 39.8579345 21.4528075 39.6516734 21.2217327 37.6587585 20.2526333 37.599894 20.3427053zM39.3903153 19.2528811C40.0039183 19.5476194 40.5652498 19.7537004 41.0907916 20.1361527 41.4698787 19.4000145 41.2348918 18.929848 40.4475208 18.2554869 40.1235309 18.639354 39.7694023 18.9605008 39.3903153 19.2528811zM11.0421363 30.2671318C10.4826886 29.9766378 10.1318564 29.7413188 9.66188261 29.4451658 9.42689571 29.9766378 9.90063684 30.5595122 10.3673142 30.8273703 10.5707498 30.6208177 10.837288 30.4449179 11.0421363 30.2671318zM36.9547396 13.4114047C36.8370107 13.8226235 36.4023556 14.3215564 36.1061497 14.6464759 37.0159587 14.8817949 37.9540226 15.2293502 38.8313384 15.5542697 38.7154932 14.7323036 37.7774292 13.9391041 36.9547396 13.4114047zM8.28398349 18.6049285C14.6757213 14.4361506 21.7422812 11.9702525 33.7021254 14.0574709 34.3472798 13.6731322 34.7268378 13.2911515 34.9067276 12.5281331 31.9135878 11.4425531 28.6619154 11.0601008 24.4712373 11.1171621 20.7156851 11.235529 13.9429766 12.6427273 10.3117462 14.7912513L11.4216943 13.4109331C13.9429766 11.9084754 20.5381499 9.94339647 25.4954788 9.85379604 28.9816671 9.76796826 30.7702047 9.97074818 34.9345116 11.0869809 34.5511863 10.3871544 33.7025963 10.0315822 32.4414843 9.44493513 28.4273995 7.65198337 20.950672 7.47419726 14.8250016 10.2055956 15.5845885 9.67789625 16.3474718 9.20584346 17.3467547 8.77198874 19.36557 7.82976949 22.680816 6.91773143 26.8126298 7.00591712 30.1283467 7.06486477 34.0567249 8.21033552 36.4588655 10.5899343 36.8671493 11.0869809 37.1040199 11.5859138 37.1916102 11.9702525 39.0978767 12.9393519 40.2097085 13.849032 40.8251952 14.9063171 41.0912625 15.4646693 41.1793237 16.0513163 41.0601821 16.726149 41.8513203 17.1944291 42.2351166 17.6075343 42.6476387 18.1408926 42.9071132 18.5804063 43.1124324 19.0755666 43.1736514 19.5230971 43.2593581 20.1059715 43.3177516 20.7826906 42.7022649 21.5763617 43.3474193 21.9012812 43.873432 22.8071887 43.9365347 23.1934137 44.2572283 24.6270206 43.3182225 26.03752 42.1183295 27.1273441 40.708879 28.3581711 37.6013068 29.8285613 35.0795536 30.4765139 30.0991499 31.7365789 25.6701885 32.2680509 22.1557451 32.9141172 23.7370798 33.2946832 25.8769204 33.7969172 29.3664052 33.7969172 36.8384235 33.7969172 43.4350096 30.2685466 43.4350096 30.2685466 43.4350096 30.2685466 43.2909094 30.7137192 43.1421001 31.1249381 38.392916 34.0015834 30.8615623 35.2036439 27.6339066 35.0569822 24.3794087 34.9079625 21.625965 34.4109159 18.9285603 33.5870635 18.1068126 33.8237973 17.2860066 34.0892975 16.496752 34.4109159 20.6017236 36.2896955 23.7074121 36.702329 27.1968969 36.9645282 30.7711465 37.2319147 36.696207 36.3759948 41.6761397 34.559464 41.4416237 34.7966693 41.3248367 35.1465826 41.0922043 35.3531352 38.5393707 36.702329 33.1487995 38.0543523 30.4217271 38.1708329 27.7219678 38.2891998 24.4406277 38.1708329 21.5666297 37.6412472 19.1042119 37.1442006 17.0788037 36.3759948 14.9695726 35.4413209 14.5909565 35.7299286 14.415305 36.0873871 14.3244182 36.4981343 22.5659126 40.8145172 30.2432501 40.9022313 39.01217 38.1708329L38.2163226 38.935266C28.5719705 42.8715544 21.0387333 41.3422165 15.2026759 38.5245188 14.9992403 38.4349184 14.7647244 38.3448464 14.5909565 38.2283658 15.1485206 39.1705851 19.6005569 42.4296828 24.5847279 42.84043 28.0177029 43.1346967 32.208381 42.5461634 34.7004665 41.5506554L33.2363898 42.3113159C32.0317877 42.8998493 28.8385088 44.2532873 24.3794087 43.9585491 18.4298607 43.5459155 15.0854179 40.9022313 13.5916735 39.524271 12.8862419 38.8739605 12.567432 38.1420664 12.3602292 37.2323863 11.0115268 36.5269008 10.1615241 35.7907625 9.45985981 34.6745298 9.04922138 34.0591163 9.13539894 33.3272223 9.22346016 32.7056783L9.40382085 32.1822231C8.75678278 31.708284 8.08196068 31.2093511 7.81871885 30.7141908 7.23007431 29.655491 7.58561561 28.7415666 7.99437038 28.0379675 7.64024182 27.6272202 7.31766462 27.2160014 7.1754481 26.8052542 6.99979657 26.3350877 6.97012889 25.860677 7.0247551 25.3353355 7.14201309 24.4558366 7.61339963 23.6343421 8.22935727 22.9269703 9.5168406 21.4301716 11.5738001 20.2545196 15.0581048 19.1095204 18.4910797 17.9626349 19.8694498 17.7848488 22.4491256 17.1958439 25.4672238 16.4946026 29.0734957 16.2611699 32.0934776 15.2038849 23.6763317 13.7358526 14.9436723 15.085518 7.81918976 19.9866615L8.28398349 18.6049285zM82.4997656 20.6363636L83.4631974 27.3598485 81.5344585 27.3598485 82.4997656 20.6363636zM75 36L80.1064229 36 80.7487107 32.1941288 84.2803563 32.1941288 84.8935771 36 90 36 85.6793249 14 79.318331 14 75 36zM95.5263724 22.9775763C96.3903287 22.9775763 97.9701913 22.4417939 97.9701913 20.807729 97.9701913 18.8778626 96.1458972 18.7557252 95.6172891 18.7557252 95.001242 18.7557252 93.8262814 18.846374 92.6811294 19.3821565L92.6195247 14.5648855C94.4438188 14.1197519 95.7429825 14 97.2875714 14 101.682868 14 103.630869 16.9432252 103.630869 19.8229962 103.630869 22.6192748 101.958599 24.3096374 100.321106 24.9651718L100.321106 25.1722328C101.898982 25.6517176 104 27.1044847 104 30.4923664 104 34.6846374 100.97044 37 97.0729486 37 95.0007452 36.9728053 93.63948 36.7061069 92 35.8435115L92.0929039 31.2352099C93.6091745 31.8616412 94.6291298 31.9198473 95.6505755 31.9198473 97.3834562 31.9198473 98.0611079 30.6994275 98.0611079 29.8115458 98.0611079 28.5625 97.2284508 27.730916 95.4026662 27.730916L93.2380558 27.730916 93.2380558 22.9775763 95.5263724 22.9775763z"/>
    <polygon fill="#1E3262" points="106 14 120 14 120 36 114.868 36 114.868 19.309 111.132 19.309 111.132 36 106 36"/>
    <path fill="#1E3262" d="M128.322155 18.8361742L129.584369 18.8361742C130.786289 18.8361742 131.555281 19.5445076 131.555281 21.3735795 131.555281 23.7324811 130.261437 23.907197 129.584369 23.907197L128.322155 23.907197 128.322155 18.8361742zM123 36L128.322155 36 128.322155 28.7471591 130.108726 28.7471591C135.367622 28.7471591 137 24.2045455 137 21.3101326 137 18.4810606 135.120517 14 130.108726 14L123 14 123 36zM146 31.5638467C144.216384 31.5638467 143.314725 29.4339314 143.314725 25.5 143.314725 21.5641402 144.216384 19.4342249 146 19.4342249 147.784085 19.4342249 148.685275 21.5641402 148.685275 25.5 148.685275 29.4339314 147.784085 31.5638467 146 31.5638467M146 37C151.988389 37 154 31.2331265 154 25.5 154 19.7668735 151.988389 14 146 14 140.013956 14 138 19.7668735 138 25.5 138 31.2331265 140.014426 37 146 37M181.005818 31.5758502L181.005818 26.5929402 181.746487 26.5929402C182.367279 26.5929402 183.968018 26.6222988 183.968018 28.8923805 183.968018 31.1956091 182.367279 31.5758502 181.746487 31.5758502L181.005818 31.5758502zM176 36L182.100886 36C183.431426 36 188.970982 35.4374516 189 28.771158 189 23.1745588 184.707736 22.1995695 181.923448 22.1995695L181.005343 22.1995695 181.005343 19.27839 187.786958 19.27839 187.786958 14 176 14 176 36z"/>
    <polygon fill="#1E3262" points="208 14 213.155 14 213.155 21.934 216.847 21.934 216.847 14 222 14 222 36 216.847 36 216.847 27.183 213.155 27.183 213.155 36 208 36"/>
    <polygon fill="#1E3262" points="225 14 230.041 14 230.01 21.903 231.107 21.903 233.982 14 239.437 14 235.522 24.442 240 36 234.1 36 231.198 27.152 230.01 27.152 230.041 36 225 36"/>
    <polygon fill="#1E3262" points="65 14 76 14 76 19.485 70.454 19.485 70.454 36 65 36"/>
    <polygon fill="#1E3262" points="156 14 160.246 14 163.996 19.192 167.784 14 172 14 172 36 166.999 36 166.999 22.581 163.996 26.415 160.995 22.581 160.995 36 156 36"/>
    <path fill="#1E3262" d="M197.514271,21.6626055 L198.445366,28.3583606 L196.550891,28.3583606 L197.514271,21.6626055 Z M190,37 L195.126642,37 L195.739574,33.1958412 L199.260894,33.1958412 L199.873826,37 L205,37 L200.689354,15 L194.337783,15 L190,37 Z"/>
  </g>
</svg>
