<?xml version="1.0" encoding="iso-8859-1"?>
<!-- Generator: Adobe Illustrator 19.1.0, SVG Export Plug-In . SVG Version: 6.00 Build 0)  -->
<svg version="1.1" id="Capa_1" xmlns="http://www.w3.org/2000/svg" xmlns:xlink="http://www.w3.org/1999/xlink" x="0px" y="0px"
	 viewBox="0 0 125.39 125.39" style="enable-background:new 0 0 125.39 125.39;" xml:space="preserve">
<g>
	<path d="M125.373,47.09c-0.009-0.227-0.039-0.451-0.09-0.672c-0.019-0.079-0.037-0.156-0.061-0.234
		c-0.073-0.237-0.167-0.466-0.289-0.684c-0.014-0.025-0.022-0.052-0.037-0.077c-0.141-0.238-0.317-0.456-0.516-0.659
		c-0.052-0.052-0.109-0.097-0.164-0.146c-0.093-0.084-0.177-0.175-0.281-0.25L64.752,1.611c-1.227-0.884-2.888-0.884-4.115,0
		L1.456,44.369c-0.104,0.075-0.189,0.166-0.282,0.251c-0.055,0.049-0.112,0.093-0.163,0.145c-0.199,0.203-0.375,0.422-0.516,0.66
		C0.48,45.449,0.472,45.476,0.458,45.5c-0.122,0.219-0.217,0.448-0.29,0.685c-0.024,0.077-0.042,0.154-0.061,0.233
		c-0.052,0.221-0.082,0.445-0.09,0.672C0.016,47.134,0,47.174,0,47.218v73.711c0,1.941,1.573,3.514,3.513,3.514h118.363
		c1.941,0,3.514-1.573,3.514-3.514V47.218C125.39,47.174,125.374,47.134,125.373,47.09z M62.695,8.794l52.881,38.208L93.047,61.033
		c-0.453-16.368-13.878-29.551-30.352-29.551c-16.474,0-29.899,13.183-30.352,29.551L9.814,47.002L62.695,8.794z M44.411,61.877
		c0-10.082,8.202-18.284,18.284-18.284s18.284,8.202,18.284,18.284c0,2.779-0.641,5.404-1.755,7.764L70.941,74.8
		c0.874-1.222,1.354-2.654,1.354-4.192c0-3.738-1.993-6.02-6.932-7.764c-3.529-1.328-4.982-2.2-4.982-3.569
		c0-1.163,0.872-2.325,3.571-2.325c2.988,0,4.898,0.956,5.977,1.413l1.203-4.691c-1.369-0.666-3.238-1.244-6.02-1.369v-3.654h-4.067
		v3.945c-4.441,0.872-7.015,3.735-7.015,7.388c0,4.026,3.03,6.101,7.473,7.595c3.071,1.038,4.399,2.035,4.399,3.613
		c0,1.66-1.619,2.572-3.985,2.572c-2.697,0-5.148-0.872-6.89-1.825l-0.713,2.78l-8.149-5.075
		C45.052,67.281,44.411,64.655,44.411,61.877z M60.839,78.78l-0.386-0.241c0.13,0.009,0.256,0.032,0.386,0.038V78.78z
		 M64.906,78.558v-0.271c0.256-0.045,0.48-0.121,0.723-0.179L64.906,78.558z M62.695,41.484c-11.245,0-20.392,9.149-20.392,20.392
		c0,2.069,0.341,4.052,0.92,5.932l-3.571-2.224c-0.197-1.21-0.325-2.443-0.325-3.708c0-12.885,10.483-23.368,23.368-23.368
		c12.885,0,23.368,10.483,23.368,23.368c0,1.265-0.128,2.499-0.325,3.708l-3.571,2.224c0.579-1.88,0.921-3.864,0.921-5.932
		C83.087,50.633,73.94,41.484,62.695,41.484z M118.363,117.415H7.027v-63.87l24.8,15.445l-17.335,28.21
		c-0.732,1.189-0.36,2.748,0.83,3.478c0.413,0.255,0.87,0.376,1.322,0.376c0.851,0,1.68-0.428,2.158-1.205l17.32-28.185
		l24.717,15.394c1.136,0.708,2.578,0.708,3.714,0l24.763-15.422l17.955,28.244c0.483,0.76,1.301,1.175,2.139,1.175
		c0.464,0,0.933-0.129,1.355-0.395c1.179-0.75,1.528-2.314,0.778-3.492L93.609,68.962l24.754-15.416V117.415z"/>
	<path d="M109.404,109.748H16.647c-0.582,0-1.054,0.472-1.054,1.054c0,0.582,0.472,1.054,1.054,1.054h92.758
		c0.582,0,1.054-0.472,1.054-1.054C110.459,110.221,109.987,109.748,109.404,109.748z"/>
</g>
<g>
</g>
<g>
</g>
<g>
</g>
<g>
</g>
<g>
</g>
<g>
</g>
<g>
</g>
<g>
</g>
<g>
</g>
<g>
</g>
<g>
</g>
<g>
</g>
<g>
</g>
<g>
</g>
<g>
</g>
</svg>
