<svg viewBox="0 0 387 71" fill="none" xmlns="http://www.w3.org/2000/svg">
    <path d="M8.61459 0.759866H378.829C383.231 0.759866 386.833 4.36147 386.833 8.76307V62.9474C386.833 67.349 383.231 70.9495 378.829 70.9495H8.61459C4.21303 70.9495 0.611465 67.349 0.611465 62.9474V8.76307C0.611465 4.36147 4.21303 0.759866 8.61459 0.759866" fill="#ED1639"/>
    <path fill-rule="evenodd" clip-rule="evenodd" d="M26.4505 50.6489H62.2688V46.6203H26.4505V50.6489ZM44.2563 9.38386L49.0109 13.8927L44.2563 18.3063L39.6031 13.8927L44.2563 9.38386ZM69.3505 28.7661C62.9755 23.4885 54.6781 20.1323 45.4729 19.8443V44.8948C45.4729 44.8948 52.3521 44.7984 54.174 44.8948C55.6927 44.8948 56.1979 43.5484 56.1979 43.5484L62.5719 28.9636C63.1776 29.3479 63.7833 29.7328 64.2927 30.1172L57.8177 44.8948H62.3697C64.6964 39.5203 67.0235 34.1464 69.3505 28.7708V28.7661ZM51.9484 41.2412C51.4432 41.3375 49.7224 41.2412 49.7224 41.2412V24.2579C52.9625 24.738 55.9953 25.6995 58.9323 27.0407L52.9625 40.6688C52.5584 41.3421 51.9484 41.2459 51.9484 41.2459V41.2412ZM19.2683 28.7661C25.6427 23.4885 34.0412 20.1323 43.1459 19.8443V44.8948C43.1459 44.8948 36.2667 44.7984 34.4448 44.8948C32.9255 44.8948 32.4208 43.5484 32.4208 43.5484L26.0464 28.9636C25.4412 29.3479 24.8303 29.7328 24.3255 30.1172L30.9016 44.8948H26.2484C23.9219 39.5203 21.5948 34.1464 19.2683 28.7708V28.7661ZM36.6703 41.2412C37.1755 41.3375 38.8964 41.2412 38.8964 41.2412V24.2579C35.6563 24.738 32.6224 25.6995 29.7912 27.0407L35.6615 40.6688C36.0697 41.3421 36.6703 41.2459 36.6703 41.2459V41.2412Z" fill="#FBC707"/>
    <path fill-rule="evenodd" clip-rule="evenodd" d="M114.856 38.7083C114.856 35.2697 117.207 32.6817 120.695 32.6817C124.171 32.6817 126.532 35.2817 126.532 38.7083C126.532 42.1469 124.182 44.7349 120.695 44.7349C117.207 44.7349 114.856 42.1469 114.856 38.7083ZM120.695 51.1615C128.025 51.1615 133.827 46.2224 133.827 38.7083C133.827 31.1781 128.039 26.2552 120.695 26.2552C113.335 26.2552 107.562 31.1636 107.562 38.7083C107.562 46.2375 113.349 51.1615 120.695 51.1615V51.1615ZM143.217 27.0547H138.495V50.3625H145.781V38.4745C145.781 35.1448 147.175 33.4812 150.572 33.4812H154.027V26.9188H151.612C149.048 26.9188 147.02 27.5735 145.312 29.5516L144.751 30.2011L143.217 27.0547ZM163.04 38.7083C163.04 35.2697 165.391 32.6817 168.879 32.6817C172.355 32.6817 174.716 35.2817 174.716 38.7083C174.716 42.1469 172.365 44.7349 168.879 44.7349C165.391 44.7349 163.04 42.1469 163.04 38.7083ZM168.879 51.1615C176.208 51.1615 182.011 46.2224 182.011 38.7083C182.011 31.1781 176.223 26.2552 168.879 26.2552C161.519 26.2552 155.745 31.1636 155.745 38.7083C155.745 46.2375 161.533 51.1615 168.879 51.1615V51.1615ZM191.656 27.0547H186.679V50.3625H193.965V37.8787C193.965 34.8631 195.751 32.35 199.027 32.35C201.903 32.35 203.137 34.6416 203.137 37.1697V50.3625H210.424V36.0079C210.424 30.5203 206.943 26.3307 201.213 26.3307C198.471 26.3307 195.451 27.3156 193.595 29.3797L193.019 30.0193L191.656 27.0547ZM228.572 44.8407C225.072 44.8407 222.529 42.1749 222.529 38.7011C222.529 35.2249 225.072 32.576 228.572 32.576C232.06 32.576 234.613 35.2364 234.613 38.7011C234.613 42.1708 232.069 44.8407 228.572 44.8407ZM236.139 27.0323L235.124 29.2573L234.555 28.7896C232.537 27.1255 230.055 26.2932 227.448 26.2932C220.217 26.2932 215.197 31.4943 215.197 38.686C215.197 45.8765 220.195 51.1615 227.448 51.1615C230.02 51.1615 232.463 50.3516 234.469 48.7303L235.057 48.2552L235.919 50.3323H241.477V27.0323H236.139ZM107.724 50.3625L97.0235 34.5943L106.796 19.8136H98.0391L90.6203 31.6437H86.7833V19.8136H79.1807V50.3625H86.7833V38.1245H90.8036L98.7427 50.3625H107.724Z" fill="white"/>
    <path fill-rule="evenodd" clip-rule="evenodd" d="M279.664 38.2136H271.669C270.687 41.6088 267.92 43.9276 264.301 43.9276C259.397 43.9276 256.252 39.9453 256.252 35.2183C256.252 30.4973 259.383 26.4344 264.301 26.4344C267.728 26.4344 270.468 28.5645 271.639 31.7104H279.567C278.144 24.1719 272.001 19.2224 264.287 19.2224C255.104 19.2224 248.128 25.9932 248.128 35.2183C248.128 44.4245 255.139 51.1547 264.287 51.1547C272.225 51.1547 278.336 45.9593 279.664 38.2136" fill="white"/>
    <path fill-rule="evenodd" clip-rule="evenodd" d="M296.924 44.8407C293.424 44.8407 290.883 42.1749 290.883 38.7011C290.883 35.2249 293.424 32.576 296.924 32.576C300.412 32.576 302.967 35.2364 302.967 38.7011C302.967 42.1708 300.421 44.8407 296.924 44.8407V44.8407ZM304.491 27.0323L303.477 29.2573L302.908 28.7896C300.891 27.1255 298.408 26.2932 295.8 26.2932C288.571 26.2932 283.551 31.4943 283.551 38.686C283.551 45.8765 288.548 51.1615 295.8 51.1615C298.373 51.1615 300.816 50.3516 302.821 48.7303L303.409 48.2552L304.272 50.3323H309.831V27.0323H304.491" fill="white"/>
    <path fill-rule="evenodd" clip-rule="evenodd" d="M320.519 27.0547H315.796V50.3625H323.083V38.4745C323.083 35.1448 324.476 33.4812 327.872 33.4812H331.327V26.9188H328.913C326.349 26.9188 324.321 27.5735 322.613 29.5516L322.052 30.2011L320.519 27.0547" fill="white"/>
    <path fill-rule="evenodd" clip-rule="evenodd" d="M347.148 44.8407C343.647 44.8407 341.105 42.1749 341.105 38.7011C341.105 35.2255 343.648 32.576 347.148 32.576C350.636 32.576 353.189 35.2364 353.189 38.7011C353.189 42.1708 350.645 44.8407 347.148 44.8407V44.8407ZM360.052 27.0323V18.3208H352.548V28.3412C350.644 26.9765 348.385 26.2932 346.024 26.2932C338.793 26.2932 333.773 31.4943 333.773 38.686C333.773 45.8765 338.771 51.1615 346.024 51.1615C348.596 51.1615 351.039 50.3521 353.045 48.7303L353.633 48.2557L354.495 50.3323H360.052V29.7416V27.0323" fill="white"/>
</svg>