<svg xmlns="http://www.w3.org/2000/svg" xmlns:xlink="http://www.w3.org/1999/xlink" viewBox="0,0,256,256" width="128px" height="128px" fill-rule="nonzero"><g fill="#339af0" fill-rule="nonzero" stroke="none" stroke-width="1" stroke-linecap="butt" stroke-linejoin="miter" stroke-miterlimit="10" stroke-dasharray="" stroke-dashoffset="0" font-family="none" font-weight="none" font-size="none" text-anchor="none" style="mix-blend-mode: normal"><g transform="scale(8,8)"><path d="M8.87109,8l-0.20898,0.03516c-0.654,0.082 -1.28459,0.32666 -1.80859,0.72266c-0.117,0.07 -0.22189,0.16381 -0.33789,0.25781c-0.012,-0.023 -0.02344,-0.04731 -0.02344,-0.07031c-0.024,-0.129 -0.03559,-0.26748 -0.05859,-0.39648c-0.035,-0.21 -0.15133,-0.31641 -0.36133,-0.31641h-0.54883c-0.338,0 -0.39648,0.07144 -0.39648,0.39844v10.125c0.012,0.152 0.10442,0.23214 0.23242,0.24414h1.01563c0.14,0 0.22142,-0.09214 0.23242,-0.24414c0.012,-0.047 0.01172,-0.09362 0.01172,-0.14062v-3.51758c0.047,0.047 0.08247,0.07075 0.10547,0.09375c0.852,0.712 1.83225,0.94438 2.90625,0.73438c0.98,-0.198 1.65589,-0.79297 2.08789,-1.66797c0.338,-0.665 0.47628,-1.34117 0.48828,-2.07617c0.023,-0.805 -0.04677,-1.57989 -0.38476,-2.33789c-0.397,-0.933 -1.07289,-1.55172 -2.08789,-1.76172c-0.152,-0.035 -0.3148,-0.04731 -0.4668,-0.07031c-0.14,-0.012 -0.26848,-0.01172 -0.39648,-0.01172zM16.64258,8c-0.047,0.012 -0.09167,0.02344 -0.13867,0.02344c-0.467,0.023 -0.92295,0.08127 -1.37695,0.19727c-0.292,0.07 -0.57156,0.17458 -0.85156,0.26758c-0.175,0.058 -0.25781,0.18705 -0.25781,0.37305c0.012,0.152 0,0.3148 0,0.4668c0.012,0.233 0.10613,0.29337 0.32813,0.23438c0.373,-0.093 0.74614,-0.19758 1.11914,-0.26758c0.583,-0.105 1.17844,-0.15231 1.77344,-0.07031c0.315,0.058 0.60669,0.1402 0.80469,0.4082c0.175,0.222 0.24581,0.50125 0.25781,0.78125c0.012,0.397 0.01172,0.71142 0.01172,1.10742c0,0.023 0.00028,0.04564 -0.01172,0.05664h-0.05859c-0.502,-0.128 -1.01434,-0.19742 -1.52734,-0.23242c-0.537,-0.023 -1.07294,0.0005 -1.58594,0.1875c-0.618,0.21 -1.12111,0.58245 -1.41211,1.18945c-0.222,0.467 -0.2575,0.95798 -0.1875,1.45899c0.105,0.677 0.43234,1.18962 1.02734,1.51563c0.572,0.315 1.17859,0.34886 1.80859,0.25586c0.723,-0.105 1.36383,-0.408 1.92383,-0.875c0.023,-0.023 0.04731,-0.03364 0.07031,-0.05664c0.035,0.187 0.05875,0.36239 0.09375,0.52539c0.023,0.152 0.11781,0.24386 0.25781,0.25586h0.78125c0.117,0 0.22266,-0.10442 0.22266,-0.23242c0.012,-0.035 0.01172,-0.08291 0.01172,-0.12891v-4.97851c-0.003,-0.199 -0.01578,-0.40942 -0.05078,-0.60742c-0.093,-0.618 -0.35016,-1.13198 -0.91016,-1.45898c-0.315,-0.187 -0.66411,-0.27989 -1.03711,-0.33789c-0.175,-0.024 -0.33867,-0.03559 -0.51367,-0.05859zM20.6875,8.00195c-0.117,0 -0.17534,0.1037 -0.15234,0.2207c0.023,0.094 0.05875,0.19997 0.09375,0.29297c0.933,2.31 1.87727,4.61845 2.82227,6.93945c0.082,0.198 0.093,0.36255 0,0.56055c-0.151,0.349 -0.28036,0.71055 -0.44336,1.06055c-0.14,0.315 -0.37266,0.54958 -0.72266,0.64258c-0.233,0.059 -0.48937,0.08188 -0.73437,0.04688c-0.117,-0.012 -0.23456,-0.03487 -0.35156,-0.04687c-0.164,-0.012 -0.24386,0.05742 -0.25586,0.23242v0.46875c0.012,0.269 0.09333,0.38464 0.36133,0.43164c0.257,0.046 0.52469,0.0798 0.80469,0.0918c0.816,0.011 1.45891,-0.31339 1.87891,-1.02539c0.175,-0.28 0.31536,-0.572 0.44336,-0.875c1.131,-2.858 2.25109,-5.70422 3.37109,-8.57422c0.035,-0.082 0.05636,-0.16481 0.06836,-0.25781c0.023,-0.14 -0.04683,-0.20903 -0.17383,-0.20703h-0.94336c-0.163,-0.012 -0.31505,0.09214 -0.37305,0.24414c-0.023,0.07 -0.04731,0.12727 -0.07031,0.19727l-1.66797,4.77148c-0.117,0.338 -0.24628,0.68755 -0.36328,1.06055c-0.024,-0.059 -0.03487,-0.08219 -0.04687,-0.11719c-0.618,-1.703 -1.2238,-3.40442 -1.8418,-5.10742c-0.093,-0.28 -0.19773,-0.55036 -0.30273,-0.81836c-0.046,-0.129 -0.15269,-0.2207 -0.30469,-0.2207c-0.362,-0.012 -0.7227,-0.01172 -1.0957,-0.01172zM8.85938,9.21289c0.712,0.058 1.29466,0.40833 1.59766,1.23633c0.187,0.513 0.23438,1.00792 0.23438,1.54492c0,0.502 -0.03455,0.94583 -0.18555,1.42383c-0.327,1.015 -1.07425,1.41123 -2.03125,1.36523c-0.677,-0.035 -1.24816,-0.29302 -1.78516,-0.66601c-0.058,-0.035 -0.09303,-0.09139 -0.08203,-0.15039v-3.96094c-0.011,-0.07 0.02403,-0.12711 0.08203,-0.16211c0.653,-0.455 1.37592,-0.68886 2.16992,-0.63086zM16.42773,12.36328c0.19975,-0.0175 0.40111,-0.01373 0.59961,0.00977c0.397,0.035 0.79441,0.10411 1.19141,0.16211c0.082,0.012 0.10352,0.04719 0.10352,0.11719c-0.012,0.234 0,0.45545 0,0.68945c0,0.233 -0.01172,0.44373 -0.01172,0.67773c0.012,0.058 -0.02331,0.10367 -0.07031,0.13867c-0.537,0.385 -1.12016,0.64289 -1.78516,0.71289c-0.268,0.023 -0.53697,0.02297 -0.79297,-0.08203c-0.292,-0.105 -0.51175,-0.35058 -0.59375,-0.64258c-0.093,-0.303 -0.09272,-0.61787 -0.01172,-0.92187c0.128,-0.397 0.40725,-0.61709 0.78125,-0.74609c0.1925,-0.0585 0.39009,-0.09774 0.58984,-0.11524zM29.04102,20.00195c-0.93337,0.013 -2.03509,0.22209 -2.87109,0.80859c-0.258,0.179 -0.21278,0.42753 0.07422,0.39453c0.94,-0.113 3.03225,-0.36667 3.40625,0.11133c0.375,0.478 -0.41467,2.45003 -0.76367,3.33203c-0.108,0.263 0.12033,0.37187 0.36133,0.17187c1.564,-1.31 1.97039,-4.05617 1.65039,-4.45117c-0.1605,-0.1975 -0.92405,-0.38019 -1.85742,-0.36719zM1.2168,21.00195c-0.21806,0.03 -0.31198,0.30639 -0.08398,0.52539c3.917,3.674 9.09284,5.47266 14.83984,5.47266c4.099,0 8.85758,-1.33742 12.14258,-3.85742c0.543,-0.419 0.08044,-1.04683 -0.47656,-0.79883c-3.683,1.625 -7.68322,2.4082 -11.32422,2.4082c-5.396,0 -10.6197,-1.12655 -14.8457,-3.68555c-0.0925,-0.056 -0.17927,-0.07445 -0.25195,-0.06445z"></path></g></g><g fill-opacity="0.58039" fill="#33f0a3" fill-rule="nonzero" stroke="none" stroke-width="1" stroke-linecap="butt" stroke-linejoin="miter" stroke-miterlimit="10" stroke-dasharray="" stroke-dashoffset="0" font-family="none" font-weight="none" font-size="none" text-anchor="none" style="mix-blend-mode: normal"><g id="text"><path d="M166.34,180.78l-10.65,-31.64h-55.48l-10.55,31.64h-33.64l57.16,-153.56h29.32l57.48,153.56zM127.84,66.03l-19.09,57.48h38.39z"></path></g></g></svg>