<svg xmlns="http://www.w3.org/2000/svg" width="244" height="54" viewBox="0 0 244 54">
  <path fill="#ED1C24" d="M142.491446,34.1302817 C138.032659,34.1302817 137.083981,32.7042254 137.083981,29.0915493 L137.083981,24.8133803 C137.083981,21.1056338 137.842924,19.7746479 142.491446,19.7746479 C145.81182,19.7746479 149.037325,20.25 149.037325,20.25 L149.511664,13.6901408 C149.511664,13.6901408 145.432348,13.1197183 141.92224,13.1197183 C132.530327,13.1197183 129.115086,16.2570423 129.115086,23.7676056 L129.115086,30.3274648 C129.115086,38.5985915 133.289269,40.9753521 141.827372,40.9753521 C145.337481,40.9753521 149.891135,40.4049296 149.891135,40.4049296 L149.416796,33.75 C149.321928,33.6549296 146.096423,34.1302817 142.491446,34.1302817 Z M102.457232,20.3450704 L110.236392,20.3450704 L110.236392,40.5 L118.300156,40.5 L118.300156,20.3450704 L126.079316,20.3450704 L126.553655,13.5 L101.982893,13.5 L102.457232,20.3450704 Z M90.1244168,13.5 L83.6734059,28.806338 L83.1990669,28.806338 L76.4634526,13.5 L68.9688958,13.5 L67.1664075,40.5 L74.755832,40.5 L75.6096423,27.4753521 L76.0839813,27.4753521 L80.9222395,37.7429577 L86.0451011,37.7429577 L90.3141524,27.4753521 L90.7884914,27.4753521 L91.6423017,40.5 L99.5163297,40.5 L97.7138414,13.5 L90.1244168,13.5 Z M194.384137,20.4401408 C192.297045,20.4401408 190.209953,20.915493 188.312597,21.3908451 L188.881804,24.0528169 C190.399689,23.7676056 192.297045,23.3873239 194.194401,23.3873239 C197.419907,23.3873239 198.178849,24.528169 198.178849,27 L198.178849,29.0915493 C198.178849,29.0915493 196.281493,28.7112676 193.055988,28.7112676 C188.976672,28.7112676 186.984448,31.0880282 186.984448,35.0809859 C186.984448,38.5035211 188.502333,41.0704225 192.202177,41.0704225 C194.573872,41.0704225 196.8507,40.2147887 198.55832,38.9788732 L198.748056,40.5950704 L201.59409,40.5950704 L201.59409,27 C201.59409,22.9119718 199.88647,20.4401408 194.384137,20.4401408 Z M198.178849,36.0316901 C196.755832,36.9823944 194.858476,37.9330986 193.150855,37.9330986 C190.684292,37.9330986 190.304821,36.7922535 190.304821,34.7957746 C190.304821,32.5140845 191.158631,31.3732394 193.340591,31.3732394 C196.091757,31.3732394 198.178849,31.6584507 198.178849,31.6584507 L198.178849,36.0316901 Z M228.062208,20.7253521 L231.477449,20.7253521 L231.477449,40.4049296 L228.062208,40.4049296 L228.062208,20.7253521 Z M235.746501,30.3274648 L243.14619,20.7253521 L239.446345,20.7253521 L232.141524,30.6126761 L239.825816,40.5 L244,40.5 L235.746501,30.3274648 Z M174.936236,23.9577465 L168.769829,23.9577465 L168.769829,16.4471831 L181.102644,16.4471831 L181.102644,13.5 L165.25972,13.5 L165.25972,40.4049296 L174.841369,40.4049296 C180.628305,40.4049296 182.810264,37.7429577 182.810264,33.5598592 L182.810264,30.6126761 C182.905132,26.5246479 180.723173,23.9577465 174.936236,23.9577465 Z M179.395023,33.5598592 C179.395023,36.221831 178.066874,37.4577465 174.746501,37.4577465 L168.769829,37.4577465 L168.769829,26.9049296 L174.746501,26.9049296 C178.066874,26.9049296 179.395023,28.0457746 179.395023,30.6126761 L179.395023,33.5598592 Z M219.049767,28.7112676 L210.606532,28.7112676 L210.606532,20.7253521 L207.191291,20.7253521 L207.191291,40.5 L210.606532,40.5 L210.606532,31.5633803 L219.049767,31.5633803 L219.049767,40.5 L222.465008,40.5 L222.465008,20.7253521 L219.049767,20.7253521 L219.049767,28.7112676 Z M48.3825816,0 L5.40746501,0 C2.46656299,0 0,2.37676056 0,5.41901408 L0,48.5809859 C0,51.528169 2.37169518,54 5.40746501,54 L48.3825816,54 C51.3234837,54 53.7900467,51.6232394 53.7900467,48.5809859 L53.7900467,5.41901408 C53.7900467,2.47183099 51.3234837,0 48.3825816,0 Z M26.8475894,46.9647887 C16.7916019,46.9647887 12.3328149,38.9788732 12.3328149,30.9929577 C12.3328149,19.7746479 20.1119751,7.03521127 26.8475894,7.03521127 C33.6780715,7.03521127 41.3623639,19.7746479 41.3623639,30.9929577 C41.3623639,38.9788732 36.903577,46.9647887 26.8475894,46.9647887 Z"/>
</svg>
