<?xml version="1.0" encoding="utf-8"?>
<!-- Generator: Adobe Illustrator 25.2.1, SVG Export Plug-In . SVG Version: 6.00 Build 0)  -->
<svg version="1.1" id="Слой_1" xmlns="http://www.w3.org/2000/svg" xmlns:xlink="http://www.w3.org/1999/xlink" x="0px" y="0px"
	 viewBox="0 0 717.9 153.4" style="enable-background:new 0 0 717.9 153.4;" xml:space="preserve">
<style type="text/css">
	.st0{fill:#006C3F;}
	.st1{fill:#50B848;}
</style>
<g>
</g>
<g>
	<path class="st0" d="M8.1,78.7c0-38,31-68.9,69.3-68.9v24.9c-24.4,0-44.2,19.7-44.2,44c0,24.3,19.8,44,44.3,44
		c24.3,0,44.3-19.5,44.3-44.2l25.1,0c0,38.2-31,69.1-69.3,69.1C39.1,147.6,8.1,116.8,8.1,78.7"/>
	<path class="st1" d="M46.9,78.7c0-16.9,13.8-30.6,30.8-30.6c17,0,30.8,13.7,30.8,30.6c0,16.9-13.8,30.6-30.8,30.6
		C60.6,109.3,46.9,95.6,46.9,78.7"/>
	<path class="st0" d="M99,40c0-9.7,7.9-17.5,17.6-17.5c9.7,0,17.6,7.8,17.6,17.5c0,9.7-7.9,17.5-17.6,17.5C106.9,57.5,99,49.6,99,40
		"/>
	<path class="st1" d="M640.5,57.3l-2.1,10.5c-5,22.7-6.9,30.1-11.3,52.7l-1,0.8l-13.9,0.4l-0.7-0.9l5.6-23.3l1.6-7.6
		c-6-0.1-11.9-0.2-17.9-0.2c-4.7,0-8.2,0.1-11.8,0.2c-2,9.2-3.8,17.2-6.4,30.7l-1,0.8l-13.9,0.4l-0.7-0.9l5.6-23.3l2.2-10.1
		c3.7-16,4.4-19.5,6.5-34.2l1-0.9c6.4-0.8,7.9-1.1,14.4-2.4l0.7,0.9l-1.5,6.7L594,67.8l-2.2,9.9c5,0.1,10,0.2,15,0.2
		c5.3,0,8.8-0.1,14.7-0.2c1.9-8.7,2.7-13.4,4.4-24.6l1-0.9c6.4-0.8,7.9-1.1,14.4-2.4l0.7,0.9L640.5,57.3z"/>
	<path class="st1" d="M487.5,92c-3,11.7-11.4,32-37.1,32c-18.2,0-28.2-9.4-28.2-27.9c0-2.4,0.2-5.1,0.6-7.8c0.1-0.7,0.2-1.4,0.3-2.1
		c5-30.7,18.3-59.7,47.7-60c3.9,0,11.8-0.5,17.2-1.7l-2,12.2c-5.4,1.4-14,2.1-19.1,2.1c-6.2,0.1-10.5,2.4-13.5,5.3
		c-1.5,1.4-2.6,2.9-3.5,4.4c-0.9,1.4-1.5,2.7-2,3.6c3.9-1.2,8.2-2,13-2c17.9,0,28.6,9.9,28.6,27.5C489.5,82.3,488.7,87.2,487.5,92
		 M473.2,87.7c1-3.9,1.6-7.9,1.6-11.7c0-13.7-8.9-16.1-14-16.1c-21.5,0-24.2,33.2-24.2,38.2c0,10.9,6.6,15.7,14,15.7
		C465.3,113.9,470.8,98.9,473.2,87.7"/>
	<path class="st1" d="M664,79.4c3.3-2.8,5.1-4.6,9.6-8.9c4.8-4.6,16.3-16.5,18.5-18.8l1.5-0.8h15.7l0.4,1.2
		c-1.4,1.2-2.1,1.8-7.5,6.4c-2.2,1.8-3.5,3.1-6.1,5.4l-17.7,16.2l21.1,40l-0.8,1.1l-15.1,0.4l-1.1-0.8c-3.5-8.4-4.5-10.3-9.4-20.2
		l-9.5-19.2c-3,13.3-4.9,21.7-8.2,39.1l-0.9,0.8l-13.9,0.4l-0.7-0.9l5.6-23.3l2.2-10.1c3.7-16,4.4-19.5,6.5-34.2l1-0.9
		c6.4-0.8,7.9-1.1,14.4-2.4l0.7,0.9l-1.5,6.7l-2.1,10.5L664,79.4z"/>
	<path class="st1" d="M569.6,51.1l-0.7-1.1l-18.9-0.1c-12.6,0-30.2,0.8-43,15.6c-5.7,6.8-10.9,18.4-10.9,29.2
		c0,17,11.4,26.8,25.3,26.8c11.6,0,17.7-5,20-6.9l-1,5.4l0.7,1l12.9-0.3l1-1c2.7-16.2,3.7-21.3,8.5-42.2L569.6,51.1z M543.5,104.1
		c-1.5,1.2-3,2.6-4.5,3.5c-3.6,2.2-8.2,3.1-11.9,3.1c-12.5,0-16-10.5-16-17c0-0.7,0.3-18.2,14.6-27.9c8.1-5.4,17-5.7,21.5-5.7
		c2.1,0,4.1,0.1,6.2,0.1L543.5,104.1z"/>
	<path class="st0" d="M213.8,108.5c10.4,0,15.3-10.8,18.5-24.7c2.2-9.8,4.6-24.1-7.9-24.1c-10.7,0-15.5,10.2-18.6,24.1
		C202.7,96.7,202.1,108.5,213.8,108.5 M208.9,123.6c-14.8,0-36.2-4.7-28.5-38.7c2.9-12.8,11.8-39.9,48.3-39.9
		c35.6,0,30.3,29,28.1,39.2C250.3,112.9,232.6,123.6,208.9,123.6"/>
	<path class="st0" d="M295.8,121.9c-6.9,0-18.1,0-22.9,0.1l-0.8-0.8c1.3-4.5,4.5-16.8,7.9-31.7c2.7-12.1,5.2-22.7,6.1-27.5
		c-5.7,0.1-14.6,0.1-18.9,0.3l-0.8-1c1.1-3.7,2.7-10.1,3.7-13.9l1.3-0.7c3.8,0.1,18.4,0.3,30.1,0.3c14.1,0,27.9-0.3,30.8-0.4l1,0.7
		c-1.1,3.4-2.9,10.4-3.9,13.9l-1.3,0.9c-5.7-0.1-9.9-0.1-18.1-0.1c-0.7,3.1-2.9,12.2-6.6,28.4c-2.8,12.2-5,23.4-6.4,30.5
		L295.8,121.9z"/>
	<path class="st0" d="M375.2,63.7c-4.6,0-9.7,0.1-12,0.1c-0.7,3.1-3.5,14.8-6.1,26.1c-3,13.3-5.7,25.8-6.8,31.1l-1.3,0.9
		c-7,0-16,0-23.2,0.1l-0.8-0.8c1.5-5.8,5.2-21.7,8.8-37.5c3.6-15.9,6.7-31.5,7.7-35.9l1.2-1c7.7,0,15.5,0.3,34.6,0.3
		c15,0,29.5-0.4,37.3-0.6l0.7,0.9c-1,3.8-5.3,22.1-9.4,40.3c-3.3,14.6-6.4,29.2-7.2,33.3l-1.1,0.9c-6.1,0-17.4,0-23.3,0.1l-0.6-1
		c1.3-5,4-16.4,7.3-30.6c2.4-10.8,4.9-22.3,5.9-26.5C384.6,63.8,379.5,63.7,375.2,63.7"/>
</g>
</svg>