<svg width="18" height="22" viewBox="0 0 18 22" fill="none" xmlns="http://www.w3.org/2000/svg">
<path d="M10.9104 4.79575C11.6586 4.97658 12.3462 5.42988 12.8852 6.09762C13.4242 6.76537 13.7901 7.61718 13.9361 8.54404M10.9104 1C12.4648 1.21392 13.9143 2.07626 15.0209 3.44542C16.1275 4.81457 16.8254 6.60917 17 8.53455M16.234 16.1071V18.9539C16.2349 19.2182 16.1912 19.4797 16.1057 19.7219C16.0203 19.964 15.8949 20.1814 15.7377 20.3601C15.5805 20.5387 15.3949 20.6748 15.1928 20.7594C14.9908 20.8441 14.7766 20.8755 14.5642 20.8517C12.2071 20.5345 9.94297 19.5367 7.95371 17.9385C6.10295 16.4816 4.53384 14.5377 3.35779 12.2449C2.06326 9.76931 1.25765 6.95077 1.00622 4.01762C0.987076 3.75521 1.01225 3.49073 1.08014 3.24103C1.14802 2.99133 1.25713 2.76188 1.40052 2.56728C1.54391 2.37269 1.71843 2.21721 1.91298 2.11075C2.10753 2.00429 2.31785 1.94918 2.53053 1.94894H4.82849C5.20022 1.9444 5.56061 2.10748 5.84247 2.40778C6.12433 2.70807 6.30843 3.12509 6.36046 3.58111C6.45745 4.49215 6.63732 5.38667 6.89665 6.24762C6.99971 6.58727 7.02201 6.95639 6.96092 7.31126C6.89983 7.66613 6.7579 7.99187 6.55195 8.24987L5.57915 9.45502C6.66958 11.8307 8.25739 13.7978 10.1751 15.1486L11.1479 13.9435C11.3561 13.6884 11.6191 13.5125 11.9055 13.4368C12.192 13.3612 12.4899 13.3888 12.7641 13.5165C13.4591 13.8377 14.1811 14.0606 14.9165 14.1807C15.2886 14.2458 15.6284 14.4779 15.8713 14.8331C16.1143 15.1883 16.2433 15.6417 16.234 16.1071Z" stroke="#339AF0" stroke-width="2" stroke-linecap="round" stroke-linejoin="round"/>
</svg>
