<?xml version="1.0" encoding="utf-8"?>
<!-- Generator: Adobe Illustrator 24.1.2, SVG Export Plug-In . SVG Version: 6.00 Build 0)  -->
<svg version="1.1" id="Layer_1" xmlns="http://www.w3.org/2000/svg" xmlns:xlink="http://www.w3.org/1999/xlink" x="0px" y="0px"
	 viewBox="0 0 143.9 40" style="enable-background:new 0 0 143.9 40;" xml:space="preserve">
<style type="text/css">
	.st0{fill:#FEE600;}
	.st1{fill:#2B2D33;}
</style>
<g>
	<g>
		<path class="st0" d="M40,32.4c0,4.9-2.7,7.6-7.6,7.6H7.6C2.7,40,0,37.3,0,32.4V7.6C0,2.7,2.7,0,7.6,0h24.9C37.3,0,40,2.7,40,7.6
			V32.4z"/>
		<path class="st1" d="M25.7,18v-3.8l1.4-1.4v3.3l1.2,1.2l4.8-4.8l1.2,1.2c0-0.9-0.2-3.5-2.4-5.7c-2.4-2.3-5-1.3-5.8-0.4l-4.8,4.8
			l1.2,1.2L20,16.2l-2.5-2.5l1.2-1.2l-4.8-4.8C13,6.8,10.5,5.8,8.1,8.1c-2.2,2.2-2.4,4.8-2.4,5.7l1.2-1.2l4.8,4.8l1.2-1.2v-3.3
			l1.4,1.4v3.8l1.9,1.9l-9.6,9.6l3.8,3.8l9.6-9.6l9.6,9.6l3.8-3.8L23.8,20L25.7,18z"/>
	</g>
	<g>
		<g>
			<g>
				<path class="st1" d="M46.7,21.7h7.2V24h-4.5v2.3h1.5c1,0,2.3,0.1,3.3,1.1c0.4,0.4,0.9,1.2,0.9,2.4c0,1-0.3,1.9-0.9,2.5
					c-0.9,0.9-2.1,1-3.5,1h-4V21.7z M50.4,31.2c0.4,0,1,0,1.5-0.4c0.1-0.1,0.5-0.4,0.5-1s-0.3-0.9-0.5-1.1c-0.4-0.3-1.1-0.3-1.4-0.3
					h-1.1v2.8H50.4L50.4,31.2z"/>
				<path class="st1" d="M62.4,25.5h2.5v7.8h-2.5v-0.9c-0.7,1-1.7,1.2-2.3,1.2c-1.1,0-2.1-0.3-2.9-1.2c-0.8-0.9-1.1-1.9-1.1-2.9
					c0-1.3,0.5-2.4,1.2-3.1s1.6-1.1,2.7-1.1c0.7,0,1.7,0.2,2.5,1.1C62.4,26.4,62.4,25.5,62.4,25.5z M59.2,28
					c-0.3,0.3-0.6,0.7-0.6,1.4s0.3,1.1,0.5,1.4c0.3,0.4,0.9,0.6,1.5,0.6c0.5,0,1-0.2,1.3-0.5s0.6-0.8,0.6-1.5c0-0.6-0.2-1.1-0.6-1.4
					c-0.4-0.4-0.9-0.5-1.4-0.5C60,27.4,59.5,27.7,59.2,28z"/>
				<path class="st1" d="M66.4,25.5h2.5v2.7h2.8v-2.7h2.5v7.8h-2.5v-3.1h-2.8v3.1h-2.5V25.5z"/>
				<path class="st1" d="M75.8,25.5h2.5v3.1l2.6-3.1H84l-3.3,3.6l3.6,4.2H81l-2.7-3.5v3.5h-2.5C75.8,33.3,75.8,25.5,75.8,25.5z"/>
			</g>
		</g>
		<g>
			<g>
				<path class="st1" d="M50.8,6.7c1,0,2.1,0.1,3.1,1s1.1,2,1.1,2.8c0,1.5-0.6,2.3-1,2.8c-0.9,0.9-2.2,1-3,1h-1.6v4.1h-2.7V6.7H50.8
					z M49.4,12h1c0.4,0,1,0,1.5-0.4c0.2-0.2,0.4-0.6,0.4-1.1s-0.2-0.9-0.4-1.1C51.5,9,50.9,9,50.4,9h-0.9L49.4,12L49.4,12z"/>
				<path class="st1" d="M61.5,10.5H64v7.8h-2.5v-0.9c-0.7,1-1.7,1.2-2.3,1.2c-1.1,0-2.1-0.3-2.9-1.2c-0.8-0.9-1.1-1.9-1.1-2.9
					c0-1.3,0.5-2.4,1.2-3.1c0.7-0.7,1.6-1.1,2.7-1.1c0.7,0,1.7,0.2,2.5,1.1v-0.9H61.5z M58.3,13c-0.3,0.3-0.6,0.7-0.6,1.4
					s0.3,1.1,0.5,1.4c0.3,0.4,0.9,0.6,1.5,0.6c0.5,0,1-0.2,1.3-0.5c0.3-0.3,0.6-0.8,0.6-1.5c0-0.6-0.2-1.1-0.6-1.4
					c-0.4-0.4-0.9-0.5-1.4-0.5C59.2,12.4,58.7,12.7,58.3,13z"/>
				<path class="st1" d="M68.1,10.5V15l3.3-4.5h2.3v7.8h-2.5v-4.5l-3.3,4.5h-2.3v-7.8C65.6,10.5,68.1,10.5,68.1,10.5z M72.8,7.4
					c-0.2,0.6-0.6,1.2-1.1,1.5c-0.7,0.4-1.5,0.5-2.1,0.5s-1.4-0.1-2.1-0.5C67,8.6,66.6,8,66.4,7.4l1.8-0.7c0.1,0.3,0.2,0.6,0.4,0.8
					c0.2,0.2,0.5,0.3,1,0.3s0.7-0.1,1-0.3C70.8,7.3,71,7,71.1,6.7L72.8,7.4z"/>
				<path class="st1" d="M79.3,22.2v-3.8h-0.1c-1.8,0-2.8-0.7-3.2-1.2c-0.6-0.5-1.1-1.5-1.1-2.9c0-1.5,0.7-2.5,1.3-3
					c0.8-0.6,1.9-0.9,3-0.9h0.1V6.7h2.5v3.7H82c1,0,2.2,0.3,3,0.9c0.7,0.5,1.3,1.5,1.3,3c0,1.4-0.6,2.3-1.1,2.9
					c-0.4,0.4-1.4,1.2-3.2,1.2h-0.1v3.8C81.9,22.2,79.3,22.2,79.3,22.2z M79.5,12.4c-0.6,0-1.2,0.2-1.6,0.5
					c-0.3,0.3-0.5,0.8-0.5,1.4c0,0.6,0.2,1.1,0.5,1.4c0.3,0.4,0.9,0.6,1.6,0.6V12.4z M81.7,16.4c0.7,0,1.2-0.2,1.6-0.6
					c0.3-0.3,0.5-0.8,0.5-1.4c0-0.6-0.2-1.1-0.5-1.4c-0.4-0.4-1-0.6-1.6-0.5V16.4z"/>
				<path class="st1" d="M91.5,22.2v-3.8h-0.1c-1.8,0-2.8-0.7-3.2-1.2c-0.6-0.5-1.1-1.5-1.1-2.9c0-1.5,0.7-2.5,1.3-3
					c0.8-0.6,1.9-0.9,3-0.9h0.1V6.7H94v3.7h0.1c1,0,2.2,0.3,3,0.9c0.7,0.5,1.3,1.5,1.3,3c0,1.4-0.6,2.3-1.1,2.9
					c-0.4,0.4-1.4,1.2-3.2,1.2H94v3.8C94,22.2,91.5,22.2,91.5,22.2z M91.6,12.4c-0.6,0-1.2,0.2-1.6,0.5c-0.3,0.3-0.5,0.8-0.5,1.4
					c0,0.6,0.2,1.1,0.5,1.4c0.3,0.4,0.9,0.6,1.6,0.6V12.4z M93.9,16.4c0.7,0,1.2-0.2,1.6-0.6c0.3-0.3,0.5-0.8,0.5-1.4
					c0-0.6-0.2-1.1-0.5-1.4c-0.4-0.4-1-0.6-1.6-0.5V16.4z"/>
				<path class="st1" d="M105.5,10.5h2.5v7.8h-2.5v-0.9c-0.7,1-1.7,1.2-2.3,1.2c-1.1,0-2.1-0.3-2.9-1.2c-0.8-0.9-1.1-1.9-1.1-2.9
					c0-1.3,0.5-2.4,1.2-3.1c0.7-0.7,1.6-1.1,2.7-1.1c0.7,0,1.7,0.2,2.4,1.1C105.5,11.4,105.5,10.5,105.5,10.5z M102.3,13
					c-0.3,0.3-0.6,0.7-0.6,1.4s0.3,1.1,0.5,1.4c0.3,0.4,0.9,0.6,1.5,0.6c0.5,0,1-0.2,1.3-0.5c0.3-0.3,0.6-0.8,0.6-1.5
					c0-0.6-0.2-1.1-0.6-1.4c-0.4-0.4-0.9-0.5-1.4-0.5C103.2,12.4,102.7,12.7,102.3,13z"/>
				<path class="st1" d="M112.1,10.5V15l3.3-4.5h2.3v7.8h-2.5v-4.5l-3.3,4.5h-2.3v-7.8C109.6,10.5,112.1,10.5,112.1,10.5z
					 M116.8,7.4c-0.2,0.6-0.6,1.2-1.1,1.5c-0.7,0.4-1.5,0.5-2.1,0.5s-1.4-0.1-2.1-0.5c-0.5-0.3-0.9-0.9-1.1-1.5l1.8-0.7
					c0.1,0.3,0.2,0.6,0.4,0.8c0.2,0.2,0.5,0.3,1,0.3s0.7-0.1,1-0.3c0.2-0.2,0.4-0.4,0.4-0.8L116.8,7.4z"/>
				<path class="st1" d="M119,11.2c0.3-0.2,0.9-0.5,1.3-0.6c0.6-0.2,1.2-0.3,1.8-0.3c0.4,0,1.8,0,2.6,0.8c0.4,0.4,0.6,0.9,0.6,1.4
					s-0.1,0.9-0.5,1.3c-0.2,0.2-0.4,0.4-0.7,0.4c0.6,0.1,0.9,0.4,1.1,0.6c0.4,0.4,0.5,0.8,0.5,1.3c0,0.5-0.2,1.1-0.7,1.6
					c-0.7,0.6-1.6,0.8-2.9,0.8c-0.7,0-1.4-0.1-2.1-0.4s-1.2-0.6-1.4-0.8l1.1-1.7c0.3,0.2,0.7,0.5,1,0.6s0.8,0.2,1.2,0.2
					c0.3,0,0.7,0,0.9-0.2c0.3-0.2,0.3-0.4,0.3-0.6c0-0.3-0.1-0.4-0.4-0.5c-0.2-0.1-0.6-0.1-0.9-0.1H121v-1.7h0.7
					c0.2,0,0.7,0,0.9-0.1c0.3-0.1,0.4-0.4,0.4-0.5s-0.1-0.4-0.4-0.5c-0.1-0.1-0.4-0.1-0.8-0.1s-0.7,0.1-1,0.2s-0.6,0.3-0.8,0.5
					L119,11.2z"/>
				<path class="st1" d="M134.9,14.9h-5.8c0,0.4,0.2,1,0.5,1.3c0.4,0.4,0.9,0.5,1.3,0.5c0.4,0,0.8-0.1,1-0.2c0,0,0.3-0.2,0.5-0.6
					l2.4,0.2c-0.4,1.1-1.1,1.7-1.5,2c-0.8,0.5-1.6,0.6-2.5,0.6c-1.2,0-2.2-0.2-3.1-1.1c-0.7-0.7-1.2-1.7-1.2-3
					c0-1.1,0.4-2.3,1.2-3.1c0.9-0.9,2.1-1.1,3-1.1s2.1,0.2,3.1,1.2c0.9,1,1.1,2.2,1.1,3.2V14.9z M132.6,13.4c0-0.1-0.1-0.6-0.5-0.9
					c-0.3-0.3-0.7-0.4-1.2-0.4c-0.6,0-1,0.3-1.3,0.5c-0.2,0.2-0.4,0.5-0.4,0.8C129.2,13.4,132.6,13.4,132.6,13.4z"/>
				<path class="st1" d="M136.1,10.5h2.5v2.7h2.8v-2.7h2.5v7.8h-2.5v-3.1h-2.8v3.1h-2.5V10.5z"/>
			</g>
		</g>
	</g>
</g>
</svg>
