<svg xmlns="http://www.w3.org/2000/svg" xmlns:xlink="http://www.w3.org/1999/xlink" width="320" height="71" viewBox="0 0 320 71">
  <defs>
    <polygon id="renessans-a" points=".59 .143 21.879 .143 21.879 26.633 .59 26.633"/>
  </defs>
  <g fill="none" fill-rule="evenodd">
    <path fill="#343E47" d="M86.621472 27.6239397C91.5970519 27.6239397 94.1904018 23.8803016 94.1904018 20.405278 94.1904018 16.8784166 91.5970519 13.2384543 86.621472 13.2384543L77.7563428 13.2384543 77.7563428 27.6239397 86.621472 27.6239397zM72 8L87.0931631 8C94.838977 8 100 14.1809614 100 20.3016023 100 26.5259189 94.838977 32.8633365 87.0931631 32.8633365L77.7563428 32.8633365 77.7563428 43 72 43 72 8zM120.381275 27.8624398C120.329762 25.0944013 118.215832 21.753207 113.732279 21.753207 109.453844 21.753207 106.97932 24.7300109 106.670238 27.8624398L120.381275 27.8624398zM101 30.4739043C101 22.9536077 106.155103 17 113.989847 17 122.082159 17 126 23.946192 126 30.6836186L126 32.1449759 106.618725 32.1449759C107.340851 36.5318947 111.103214 39.0389766 116.154353 39.0389766 119.29949 39.0389766 122.082159 38.0995326 124.299116 36.74066L124.299116 41.4938671C122.28915 42.9561733 118.834932 44 114.969541 44 107.288401 44 101 38.6736372 101 30.4739043L101 30.4739043z"/>
    <polygon fill="#343E47" points="131 18 136.574 18 136.574 27.776 149.426 27.776 149.426 18 155 18 155 43 149.426 43 149.426 32.613 136.574 32.613 136.574 43 131 43"/>
    <path fill="#343E47" d="M179.381275 27.8624398C179.329762 25.0944013 177.215832 21.753207 172.731343 21.753207 168.453844 21.753207 165.97932 24.7300109 165.669302 27.8624398L179.381275 27.8624398zM160 30.4739043C160 22.9536077 165.155103 17 172.989847 17 181.081223 17 185 23.946192 185 30.6836186L185 32.1449759 165.618725 32.1449759C166.339915 36.5318947 170.103214 39.0389766 175.154353 39.0389766 178.298554 39.0389766 181.081223 38.0995326 183.299116 36.74066L183.299116 41.4938671C181.288214 42.9561733 177.834932 44 173.969541 44 166.288401 44 160 38.6736372 160 30.4739043L160 30.4739043zM188 30.421713C188 22.379503 194.360818 17 201.867815 17 204.994704 17 207.288956 17.5741047 209.58226 18.7754543L209.58226 23.632095C207.341055 22.5351281 205.204047 21.9610234 202.702347 21.9610234 197.696103 21.9610234 193.630484 25.4597406 193.630484 30.4739043 193.630484 35.4871191 197.696103 39.0389766 202.702347 39.0389766 205.568741 39.0389766 207.809946 38.4107827 210 37.1059994L210 41.9113977C207.550398 43.3205637 205.099849 44 201.815716 44 194.360818 44 188 38.5683056 188 30.421713M213 30.421713C213 22.379503 219.359871 17 226.867815 17 229.994704 17 232.288956 17.5741047 234.58226 18.7754543L234.58226 23.632095C232.341055 22.5351281 230.2031 21.9610234 227.701399 21.9610234 222.696103 21.9610234 218.630484 25.4597406 218.630484 30.4739043 218.630484 35.4871191 222.696103 39.0389766 227.701399 39.0389766 230.568741 39.0389766 232.809946 38.4107827 235 37.1059994L235 41.9113977C232.549451 43.3205637 230.099849 44 226.814769 44 219.359871 44 213 38.5683056 213 30.421713M256.000616 32.0927846L249.411847 32.0927846C245.80193 32.0927846 243.491103 32.8766035 243.491103 35.3836854 243.491103 38.2039152 245.881391 39.1433592 248.881493 39.1433592 251.881596 39.1433592 254.575867 37.681053 256.000616 36.0621727L256.000616 32.0927846zM265 38.5692546L265 42.8508417C264.237732 43.4258953 262.864725 43.6859031 261.796626 43.6859031 259.356444 43.6859031 257.271063 42.5898851 256.558689 40.0306119 254.780063 42.1201631 251.729142 44 247.356033 44 242.11902 44 238 40.8666221 238 35.3827364 238 29.6900854 242.137499 27.8624398 247.427178 27.8624398L256.000616 27.8624398 256.000616 27.4458581C256.000616 23.005799 252.542228 21.8566408 248.677298 21.8566408 245.778831 21.8566408 242.677093 22.9536077 240.795907 24.1549573L240.795907 19.1939339C242.576381 18.1491583 245.524742 17 249.898775 17 256.61043 17 261.441825 20.3430921 261.441825 26.8186132L261.441825 36.3753207C261.441825 37.994201 262.305729 38.933645 263.526282 38.933645 263.983642 38.933645 264.542639 38.8292623 265 38.5692546L265 38.5692546z"/>
    <polygon fill="#343E47" points="269 18 274.574 18 274.574 27.776 287.425 27.776 287.425 18 293 18 293 43 287.425 43 287.425 32.613 274.574 32.613 274.574 43 269 43"/>
    <g transform="translate(298 17)">
      <mask id="renessans-b" fill="#fff">
        <use xlink:href="#renessans-a"/>
      </mask>
      <path fill="#343E47" d="M0.590058333,13.3110931 C0.590058333,5.42057586 6.74455833,0.142541379 14.0091417,0.142541379 C17.035975,0.142541379 19.2561417,0.705817241 21.4753917,1.8845069 L21.4753917,6.64954138 C19.3065583,5.57326552 17.2376417,5.00998966 14.816725,5.00998966 C9.97305833,5.00998966 6.03780833,8.44271379 6.03780833,13.3623 C6.03780833,18.2809552 9.97305833,21.7658172 14.816725,21.7658172 C17.591475,21.7658172 19.7603083,21.1494724 21.8796417,19.8693 L21.8796417,24.5840586 C19.508225,25.9666448 17.1368083,26.6332655 13.958725,26.6332655 C6.74455833,26.6332655 0.590058333,21.3040241 0.590058333,13.3110931" mask="url(#renessans-b)"/>
    </g>
    <polygon fill="#343E47" points="72 56 74.518 56 74.518 60.731 79.03 56 82.108 56 76.914 61.503 83 68 79.782 68 74.518 62.464 74.518 68 72 68"/>
    <path fill="#343E47" d="M92.3819578,61.1436327 C93.6180422,61.1436327 94.3819578,60.6116263 94.3819578,59.6525673 C94.3819578,58.674508 93.6180422,58.1605971 92.3819578,58.1605971 L89.6180422,58.1605971 L89.6180422,61.1436327 L92.3819578,61.1436327 Z M87,56 L92.5633397,56 C95.3454894,56 97,57.5091608 97,59.6172812 C97,61.7263063 95.3454894,63.251753 92.5633397,63.251753 L89.6180422,63.251753 L89.6180422,68 L87,68 L87,56 Z"/>
    <polygon fill="#343E47" points="100 56 108.811 56 108.811 58.211 102.468 58.211 102.468 60.526 107.578 60.526 107.578 62.703 102.468 62.703 102.468 65.788 109 65.788 109 68 100 68"/>
    <path fill="#343E47" d="M121.834613,66.1602905 L121.834613,58.2954104 L118.276584,58.2954104 C118.276584,60.8753992 118.137341,63.6873709 116.957438,66.1602905 L121.834613,66.1602905 Z M113,66.1602905 L114.198224,66.1602905 C115.273695,64.4528207 115.79494,62.1921608 115.79494,57.9751424 L115.79494,56 L124.333662,56 L124.333662,66.1602905 L126,66.1602905 L126,71 L123.656684,71 L123.656684,68.455701 L115.343316,68.455701 L115.343316,71 L113,71 L113,66.1602905 Z"/>
    <polygon fill="#343E47" points="130 56 132.609 56 132.609 63.817 138.752 56 141 56 141 68 138.409 68 138.409 60.131 132.192 68 130 68"/>
    <polygon fill="#343E47" points="155 56 155 58.211 151.218 58.211 151.218 68 148.765 68 148.765 58.211 145 58.211 145 56"/>
    <path fill="#D51A69" d="M7.99953186,56 L0,56 L0,21.4998579 C0,9.64464731 9.64456668,0 21.4996782,0 L48,0 L48,21.2629784 C48,33.118189 38.354497,42.7628363 26.4993856,42.7628363 L13.0806952,42.7628363 L16.1413775,34.7632375 L26.4993856,34.7632375 C33.9437065,34.7632375 39.9995319,28.7073615 39.9995319,21.2629784 L39.9995319,7.99959874 L21.4996782,7.99959874 C14.0553572,7.99959874 7.99953186,14.056411 7.99953186,21.4998579 L7.99953186,56 Z"/>
  </g>
</svg>
