<svg width="156" height="36" viewBox="0 0 156 36" fill="none" xmlns="http://www.w3.org/2000/svg">
<path d="M86.8966 0L68.2759 2.5V8L86.8966 6V0Z" fill="#E40038"/>
<path d="M28.0261 21.1034C28.0261 24.3399 29.0329 25.4635 32.2663 25.4635C35.4997 25.4635 36.4916 24.3399 36.4916 21.1034C36.4916 17.8669 35.5167 16.7474 32.2663 16.7474C29.0159 16.7474 28.0261 17.8527 28.0261 21.1034ZM22.3448 21.0566C22.3448 15.1271 25.7826 12.4138 32.2663 12.4138C38.7501 12.4138 42.2069 15.1271 42.2069 21.0566C42.2069 26.9861 38.7862 29.7931 32.2663 29.7931C25.7464 29.7931 22.3448 26.9861 22.3448 21.0566Z" fill="#00234D"/>
<path d="M83.5018 12.9422L68.2583 2.48273V8.1314L73.011 11.3983L73.9453 11.9532C72.2426 11.9727 71.4211 12.3246 70.5995 12.817C68.2583 14.255 67.0345 16.7857 67.0345 20.5255C67.0345 26.8155 70.4548 29.7931 76.957 29.7931C83.4592 29.7931 86.8966 26.8155 86.8966 20.5255C86.8966 16.898 85.7259 14.4083 83.5018 12.9422ZM76.957 25.2111C73.724 25.2111 72.7151 24.0192 72.7151 20.586C72.7151 17.1528 73.724 15.9652 76.957 15.9652C80.19 15.9652 81.1797 17.142 81.1797 20.5903C81.1797 24.0386 80.207 25.2111 76.957 25.2111Z" fill="#00234D"/>
<path d="M11.8113 12.4138C8.69479 12.4138 6.16178 14.2997 5.54366 15.0808V12.8138H0V36H5.49827V27.7449C6.14665 28.545 8.66021 30.3971 11.794 30.3971C17.0005 30.3971 19.8621 27.6285 19.8621 21.3948C19.8621 15.1612 17.0005 12.4138 11.8113 12.4138ZM9.84242 25.9076C6.55945 25.9076 5.53717 24.7392 5.53717 21.3737C5.53717 18.0082 6.55945 16.8397 9.84242 16.8397C13.1254 16.8397 14.1325 17.9912 14.1325 21.3737C14.1325 24.7561 13.1427 25.9076 9.84242 25.9076Z" fill="#00234D"/>
<path d="M125.977 12.4138V18.8365H118.575V12.4138H112.966V29.7931H118.575V23.2818H125.977V29.7931H131.586V12.4138H125.977Z" fill="#00234D"/>
<path d="M89.3793 21.0932C89.3793 27.1174 92.2408 29.7931 97.4473 29.7931C100.581 29.7931 103.097 28.0032 103.743 27.2299V29.2755H109.241V12.8004H103.708V14.9912C103.08 14.2364 100.547 12.4138 97.43 12.4138C92.2408 12.4138 89.3793 15.0894 89.3793 21.0932ZM95.1088 21.0686C95.1088 17.7957 96.0987 16.687 99.3989 16.687C102.699 16.687 103.704 17.7998 103.704 21.0686C103.704 24.3375 102.682 25.4503 99.3989 25.4503C96.116 25.4503 95.1088 24.3252 95.1088 21.0727V21.0686Z" fill="#00234D"/>
<path d="M58.8037 23.1003C58.3731 24.8121 57.2127 25.4554 54.7262 25.4554C51.4561 25.4554 50.4378 24.3318 50.4378 21.0953C50.4378 17.8588 51.4561 16.7392 54.7262 16.7392C57.2149 16.7392 58.386 17.3764 58.8037 19.0943L64.5518 18.6872C63.6906 14.4126 60.3365 12.4138 54.7262 12.4138C48.1687 12.4138 44.6897 15.1271 44.6897 21.0566C44.6897 26.9861 48.1515 29.7931 54.7262 29.7931C60.3236 29.7931 63.654 27.7575 64.5345 23.5196L58.8037 23.1003Z" fill="#00234D"/>
<path d="M155.172 29.7931L146.012 20.6657L154.68 12.4138H147.522L139.755 19.9633V12.4138H134.069V29.7931H139.755V23.7154V22.2089V21.7896L147.733 29.7931H155.172Z" fill="#00234D"/>
</svg>
