<svg xmlns="http://www.w3.org/2000/svg" width="348" height="72" viewBox="0 0 348 72">
  <g fill="none" fill-rule="evenodd">
    <polygon fill="#245F34" points="8.548 71.795 260.475 71.795 260.475 .883 8.548 .883"/>
    <polygon fill="#FFCB05" points=".551 71.795 8.548 71.795 8.548 .883 .551 .883"/>
    <g fill="#FFFFFF" transform="translate(75 27.89)">
      <path d="M6.3184.48C7.6804.48 9.2014.526 10.5144 1.424 11.3924 2 12.4284 3.154 12.4284 5.206 12.4284 7.465 10.9994 10.115 7.0574 10.115L3.7354 10.115 3.7354 16.293.8344 16.293.8344.48 6.3184.48zM6.4344 7.81C7.0804 7.81 8.0014 7.833 8.7414 7.141 9.2484 6.68 9.5244 5.898 9.5244 5.228 9.5244 4.606 9.2694 3.868 8.7634 3.429 8.2554 2.992 7.4504 2.784 6.5474 2.784L3.7354 2.784 3.7354 7.81 6.4344 7.81zM15.1055 5.7349C15.9115 4.9739 17.1125 4.3049 18.9085 4.3049 20.7065 4.3049 21.9065 4.9739 22.7115 5.7349 23.9105 6.8639 24.5325 8.6159 24.5325 10.4139 24.5325 12.2119 23.9105 13.9639 22.7115 15.0939 21.9065 15.8549 20.7065 16.5229 18.9085 16.5229 17.1125 16.5229 15.9115 15.8549 15.1055 15.0939 13.9065 13.9639 13.2825 12.2119 13.2825 10.4139 13.2825 8.6159 13.9065 6.8639 15.1055 5.7349M17.0665 13.7339C17.3175 14.0339 17.8965 14.5849 18.9085 14.5849 19.9235 14.5849 20.4995 14.0339 20.7515 13.7339 20.9375 13.5269 21.6295 12.6039 21.6295 10.4139 21.6295 8.2249 20.9375 7.3049 20.7515 7.0959 20.4995 6.7949 19.9235 6.2429 18.9085 6.2429 17.8965 6.2429 17.3175 6.7949 17.0665 7.0959 16.8815 7.3049 16.1885 8.2249 16.1885 10.4139 16.1885 12.6039 16.8815 13.5269 17.0665 13.7339M33.7236 8.8477C33.6776 8.2477 33.4476 7.5567 33.1496 7.1187 32.8696 6.7037 32.3156 6.2437 31.3966 6.2437 30.4956 6.2437 29.8966 6.7037 29.5296 7.3237 28.9516 8.2707 28.9076 9.7447 28.9076 10.4137 28.9076 11.4977 29.0666 12.7877 29.5296 13.5267 29.8276 13.9867 30.4266 14.5847 31.3966 14.5847 32.0866 14.5847 32.6626 14.3107 33.1016 13.7107 33.4476 13.2267 33.6776 12.5357 33.7236 11.9357L36.1676 12.2347C36.0276 13.3177 35.5456 14.5177 34.6936 15.3007 33.9756 15.9457 32.8696 16.5227 31.3026 16.5227 29.5536 16.5227 28.4216 15.8317 27.7546 15.2067 26.8546 14.3547 26.0026 12.8347 26.0026 10.4367 26.0026 8.2017 26.7616 6.8637 27.3616 6.1487 28.2136 5.1357 29.6676 4.3047 31.3726 4.3047 32.8266 4.3047 34.0246 4.8137 34.7836 5.5967 35.5456 6.3567 36.0066 7.5087 36.1676 8.5457L33.7236 8.8477zM45.165 8.8477C45.119 8.2477 44.891 7.5567 44.591 7.1187 44.313 6.7037 43.758 6.2437 42.836 6.2437 41.938 6.2437 41.34 6.7037 40.969 7.3237 40.395 8.2707 40.348 9.7447 40.348 10.4137 40.348 11.4977 40.51 12.7877 40.969 13.5267 41.269 13.9867 41.869 14.5847 42.836 14.5847 43.529 14.5847 44.104 14.3107 44.543 13.7107 44.891 13.2267 45.119 12.5357 45.165 11.9357L47.609 12.2347C47.472 13.3177 46.986 14.5177 46.134 15.3007 45.417 15.9457 44.313 16.5227 42.746 16.5227 40.993 16.5227 39.864 15.8317 39.195 15.2067 38.297 14.3547 37.443 12.8347 37.443 10.4367 37.443 8.2017 38.201 6.8637 38.804 6.1487 39.653 5.1357 41.106 4.3047 42.813 4.3047 44.266 4.3047 45.465 4.8137 46.224 5.5967 46.986 6.3567 47.446 7.5087 47.609 8.5457L45.165 8.8477zM59.9375 12.8818C59.5235 14.2648 58.6925 15.0698 58.0015 15.5558 57.0825 16.1768 55.8805 16.5228 54.6125 16.5228 53.0235 16.5228 51.4085 15.8548 50.4385 14.8628 49.5415 13.9418 48.8715 12.3498 48.8715 10.4608 48.8715 8.0618 49.8635 6.4718 50.9455 5.5728 51.5715 5.0428 52.7455 4.3048 54.5195 4.3048 56.7565 4.3048 58.1865 5.3418 58.9445 6.4018 59.7515 7.5088 60.1225 9.0548 60.1225 10.3918L60.1225 10.9208 51.7775 10.9208C51.7775 11.0598 51.7525 12.1208 52.1675 12.9718 52.7905 14.2648 53.9205 14.5848 54.7055 14.5848 55.3285 14.5848 56.1105 14.4018 56.7565 13.7338 57.1475 13.3178 57.3105 12.9258 57.3765 12.5598L59.9375 12.8818zM57.2165 9.1668C57.2165 8.5018 57.0575 7.7408 56.7085 7.2318 56.2735 6.5878 55.4885 6.1488 54.6355 6.1488 53.7605 6.1488 52.9995 6.5878 52.5375 7.1408 52.1675 7.6008 51.8465 8.3158 51.8465 9.1668L57.2165 9.1668zM71.5078 4.5376L71.5078 16.2936 68.8298 16.2936 68.8298 6.5186 65.7888 6.5186C65.7218 8.1096 65.6748 8.7536 65.6278 9.8366 65.5588 11.0606 65.4668 13.6406 64.4278 15.0476 63.8528 15.8086 63.1388 16.1096 62.6308 16.2476 62.3308 16.3396 62.0098 16.3846 61.6858 16.3846 61.4558 16.3846 61.2228 16.3616 60.9958 16.2936L60.9958 14.2646 61.2228 14.2646C61.5698 14.2406 62.0318 14.0576 62.3308 13.8246 63.2538 13.0886 63.3458 11.4286 63.4388 10.1156 63.5538 8.3856 63.5748 7.3486 63.5998 5.7826L63.6228 4.5376 71.5078 4.5376zM77.0029 8.7314L79.9539 8.7314C80.7149 8.7314 82.1909 8.8244 83.1599 9.7934 84.0339 10.6454 84.1259 11.8444 84.1259 12.4894 84.1259 14.1714 83.4359 15.0244 82.9069 15.4634 82.7209 15.6024 81.8459 16.2934 80.1859 16.2934L74.3309 16.2934 74.3309 4.5374 77.0029 4.5374 77.0029 8.7314zM77.0029 14.3544L79.1039 14.3544C79.6109 14.3544 80.1619 14.3314 80.6239 13.9424 80.8989 13.6874 81.2229 13.2504 81.2229 12.5114 81.2229 11.8664 81.0389 11.3594 80.5089 11.0134 80.0469 10.7124 79.4709 10.6674 79.1039 10.6674L77.0029 10.6674 77.0029 14.3544z"/>
    </g>
    <polygon fill="#FFFFFF" points="163.013 32.428 165.181 36.092 167.438 32.428 169.881 32.428 166.447 37.752 170.527 44.184 167.391 44.184 164.719 39.757 161.908 44.184 159.463 44.184 163.473 38.074 159.877 32.428"/>
    <g fill="#FFFFFF" transform="translate(170 27.89)">
      <path d="M2.5918 5.7349C3.3988 4.9739 4.5968 4.3049 6.3948 4.3049 8.1938 4.3049 9.3928 4.9739 10.1988 5.7349 11.3968 6.8639 12.0198 8.6159 12.0198 10.4139 12.0198 12.2119 11.3968 13.9639 10.1988 15.0939 9.3928 15.8549 8.1938 16.5229 6.3948 16.5229 4.5968 16.5229 3.3988 15.8549 2.5918 15.0939 1.3918 13.9639.7698 12.2119.7698 10.4139.7698 8.6159 1.3918 6.8639 2.5918 5.7349M4.5518 13.7339C4.8028 14.0339 5.3798 14.5849 6.3948 14.5849 7.4098 14.5849 7.9868 14.0339 8.2398 13.7339 8.4228 13.5269 9.1168 12.6039 9.1168 10.4139 9.1168 8.2249 8.4228 7.3049 8.2398 7.0959 7.9868 6.7949 7.4098 6.2429 6.3948 6.2429 5.3798 6.2429 4.8028 6.7949 4.5518 7.0959 4.3678 7.3049 3.6748 8.2249 3.6748 10.4139 3.6748 12.6039 4.3678 13.5269 4.5518 13.7339M13.4463 7.7163C13.7913 6.2873 14.6893 5.5043 15.3363 5.1123 15.7273 4.8613 16.8103 4.3053 18.6553 4.3053 19.8073 4.3053 20.9843 4.5123 21.8613 4.9993 23.1523 5.7113 23.4713 6.7493 23.4713 7.4873 23.4713 8.2933 23.0793 9.8363 21.0763 10.0673L21.0763 10.1153C21.7653 10.2083 22.5293 10.5073 22.9893 10.9913 23.4043 11.4293 23.7253 12.1663 23.7253 12.9483 23.7253 14.1253 23.0363 15.1623 22.1593 15.7383 21.0983 16.4313 19.6433 16.5233 18.5643 16.5233 17.4763 16.5233 15.8203 16.4063 14.6663 15.4873 14.0213 14.9793 13.4233 14.1023 13.2373 12.9963L15.6593 12.5813C15.7493 12.9483 15.9583 13.5023 16.2363 13.8253 16.8343 14.5183 17.7813 14.5853 18.3783 14.5853 18.9783 14.5853 19.6253 14.5183 20.1313 14.1713 20.5923 13.8493 20.8223 13.4113 20.8223 12.8353 20.8223 12.3503 20.7273 11.9593 20.3163 11.6113 19.7853 11.1763 19.0713 11.1073 18.4023 11.1073L17.1793 11.1073 17.1793 9.3083 18.4023 9.3083C18.8623 9.3083 19.5303 9.2153 19.9003 9.0323 20.3833 8.7773 20.6613 8.3633 20.6613 7.6943 20.6613 7.3243 20.5213 6.9793 20.1763 6.7043 19.6433 6.2643 18.8853 6.2423 18.4953 6.2423 17.9653 6.2423 17.1793 6.3103 16.5353 6.8633 16.2593 7.0963 15.8883 7.5333 15.7733 8.2243L13.4463 7.7163zM37.4082 3.2461L29.7782 3.2461 29.7782 6.7491 33.1682 6.7491C34.3872 6.7491 35.5652 6.8431 36.7632 7.6711 37.9372 8.4791 38.6772 9.6771 38.6772 11.4051 38.6772 13.0191 38.0762 14.2171 37.3172 14.9791 36.1652 16.1301 34.8492 16.2931 33.4662 16.2931L26.0902 16.2931 26.0902.4801 37.4082.4801 37.4082 3.2461zM29.7782 13.5271L32.7512 13.5271C33.3062 13.5271 33.8132 13.5021 34.3422 12.9721 34.8492 12.4661 34.9192 11.8901 34.9192 11.4531 34.9192 10.9461 34.7802 10.4371 34.3422 9.9991 33.8132 9.4701 33.1462 9.4211 32.6592 9.4211L29.7782 9.4211 29.7782 13.5271zM40.5762 7.8096C40.9422 6.2186 41.9812 5.4126 42.6042 5.0436 43.5242 4.5126 44.7462 4.3056 46.2682 4.3056 48.2052 4.3056 50.1662 4.5606 51.0412 6.3806 51.5012 7.3246 51.4552 8.3396 51.4552 9.2156L51.4552 13.7566C51.4552 14.7016 51.5932 15.5786 51.8002 16.2936L48.4592 16.2936C48.3652 15.8316 48.2982 15.2076 48.2752 14.4246 47.8352 15.2076 46.7752 16.5236 44.3332 16.5236 43.2492 16.5236 42.1412 16.2476 41.3812 15.6246 40.6432 15.0246 40.1822 14.0576 40.1822 12.9966 40.1822 11.8206 40.6892 10.4136 42.6942 9.5826 43.9852 9.0546 46.0832 8.8696 47.0292 8.8246L48.1362 8.7776 48.1362 8.5226C48.1362 8.2016 48.1132 7.5086 47.7902 7.1416 47.3522 6.6336 46.4742 6.6106 46.1272 6.6106 45.6472 6.6106 45.0692 6.6576 44.5852 6.9566 44.2852 7.1416 43.8922 7.5086 43.7562 8.1556L40.5762 7.8096zM47.0992 10.7376C45.9462 10.8296 44.7942 10.9456 44.1472 11.7506 43.9622 11.9816 43.7782 12.3276 43.7782 12.8116 43.7782 13.3186 44.0322 13.6656 44.2852 13.8496 44.6082 14.1026 45.0932 14.2166 45.5542 14.2166 46.2462 14.2166 47.0532 13.9176 47.5132 13.3656 47.5832 13.2946 48.1362 12.6036 48.1362 11.2676L48.1362 10.6456 47.0992 10.7376z"/>
    </g>
    <polygon fill="#FFFFFF" points="227.56 32.428 227.56 36.831 231.269 36.831 231.269 32.428 234.703 32.428 234.703 44.184 231.269 44.184 231.269 39.25 227.56 39.25 227.56 44.184 224.123 44.184 224.123 32.428"/>
    <path fill="#FFFFFF" d="M240.8086,32.4276 L240.8086,36.9446 L241.7286,36.9446 C242.7196,36.9446 243.1346,36.4586 243.3876,35.9286 C243.8716,34.8916 243.8496,34.0856 244.2886,33.2806 C244.6346,32.6346 245.0946,32.4716 245.3966,32.4276 L248.2286,32.4276 C247.8606,32.8186 247.5386,33.2806 247.3296,33.6946 C246.9606,34.4546 246.6156,35.6996 246.4096,36.2296 C246.1316,36.9676 245.6696,37.7076 244.4956,37.7986 L244.4956,37.8416 C245.1166,37.9366 245.7616,38.2586 246.2486,38.9736 C246.5456,39.4106 246.7546,39.9886 247.0786,40.8866 C247.4026,41.8076 247.5386,42.1306 247.8366,42.8436 C248.0696,43.3776 248.2046,43.6986 248.5976,44.1836 L245.3706,44.1836 C244.8646,44.0206 244.5196,43.6746 244.1056,42.4756 C243.7816,41.5556 243.7356,41.2326 243.5266,40.7256 L243.3656,40.3096 C243.0196,39.4336 242.5586,39.2496 241.8436,39.2496 L240.8086,39.2496 L240.8086,44.1836 L237.3726,44.1836 L237.3726,32.4276 L240.8086,32.4276 Z"/>
    <polygon fill="#FFCB05" points="36.862 36.705 42.142 31.514 42.142 27.993 36.862 33.155"/>
    <polygon fill="#FFCB05" points="36.862 23.562 42.142 18.37 42.142 15.045 36.862 20.21"/>
    <polygon fill="#FFCB05" points="36.862 27.91 42.142 22.719 42.142 19.395 36.862 24.558"/>
    <polygon fill="#FFCB05" points="35.35 15.087 34.648 14.402 34.648 6.182 33.85 6.182 33.85 13.624 33.153 12.939 33.153 6.182 32.357 6.182 32.357 12.162 31.655 11.477 31.655 6.182 30.861 6.182 30.861 14.023 36.144 19.214 36.144 6.182 35.35 6.182"/>
    <polygon fill="#FFCB05" points="36.862 32.258 42.142 27.068 42.142 23.744 36.862 28.907"/>
    <polygon fill="#FFCB05" points="30.86 31.514 36.143 36.705 36.143 33.155 30.86 27.993"/>
    <polygon fill="#FFCB05" points="41.35 11.477 40.652 12.161 40.652 6.182 39.852 6.182 39.852 12.94 39.153 13.623 39.153 6.182 38.36 6.182 38.36 14.399 37.657 15.085 37.657 6.182 36.863 6.182 36.863 19.213 42.143 14.022 42.143 6.182 41.35 6.182"/>
    <polygon fill="#FFCB05" points="30.86 18.37 36.143 23.562 36.143 20.209 30.86 15.046"/>
    <polygon fill="#FFCB05" points="30.86 22.719 36.143 27.91 36.143 24.558 30.86 19.395"/>
    <polygon fill="#FFCB05" points="30.86 27.068 36.143 32.258 36.143 28.907 30.86 23.745"/>
    <g transform="translate(20 11.89)">
      <path fill="#FFCB05" d="M42.334,17.917 L30.046,17.917 L29.487,17.917 C29.756,17.494 29.913,16.996 29.913,16.455 C29.913,14.928 28.672,13.687 27.142,13.687 C25.614,13.687 24.377,14.928 24.377,16.455 C24.377,17.058 24.57,17.607 24.894,18.06 C24.654,18.22 24.493,18.49 24.493,18.801 C24.493,19.111 24.654,19.382 24.894,19.539 C24.57,19.993 24.377,20.544 24.377,21.146 C24.377,22.674 25.614,23.914 27.142,23.914 C28.672,23.914 29.913,22.674 29.913,21.146 C29.913,20.607 29.756,20.108 29.487,19.684 L31.812,19.684 L39.045,19.684 L39.045,20.263 L38.102,20.263 L38.102,21.078 L39.045,21.078 L39.045,21.924 L38.102,21.924 L38.102,23.478 L39.045,23.478 L39.045,22.775 L40.443,22.775 L40.443,23.478 L41.386,23.478 L41.386,21.924 L40.443,21.924 L40.443,21.078 L41.386,21.078 L41.386,20.263 L40.443,20.263 L40.443,19.684 L42.334,19.684 C42.699,19.684 43,19.378 43,19.006 L43,18.595 C43,18.224 42.699,17.917 42.334,17.917 M28.571,21.146 C28.571,21.933 27.931,22.572 27.142,22.572 C26.357,22.572 25.717,21.933 25.717,21.146 C25.717,20.857 25.802,20.586 25.95,20.361 L26.351,19.69 C26.105,19.473 25.947,19.155 25.947,18.801 C25.947,18.446 26.105,18.128 26.351,17.911 L25.95,17.238 C25.802,17.014 25.717,16.746 25.717,16.455 C25.717,15.669 26.357,15.029 27.142,15.029 C27.931,15.029 28.571,15.669 28.571,16.455 C28.571,17.038 27.9,18.425 27.9,18.425 L27.9,19.176 C27.9,19.176 28.571,20.562 28.571,21.146"/>
      <path fill="#FFFFFF" d="M6.0557 16.2354L6.0557 19.6844C6.0557 22.9834 7.4927 25.1004 8.3187 25.9274 8.8027 26.4014 13.7157 31.2344 13.7857 31.3034 15.3137 32.7954 15.5807 33.2914 15.9197 34.1394L15.9197 30.3164C15.9197 26.9114 14.1967 25.5914 13.3077 24.7254 11.2397 22.7044 9.8507 21.3774 8.7347 20.2644 6.6167 18.1444 6.0557 16.2354 6.0557 16.2354M13.3086 33.2656C11.2386 31.2406 9.8516 29.9126 8.7356 28.8006 6.6166 26.6806 6.0556 25.2446 6.0556 25.2446L6.0556 28.2206C6.0556 31.5196 7.5526 33.6246 8.3156 34.4866 8.7986 34.9576 13.7246 39.7756 13.7866 39.8396 15.3146 41.3316 15.5806 42.0426 15.9196 42.8916L15.9196 38.8526C15.9196 35.4476 14.1956 34.1286 13.3086 33.2656"/>
      <path fill="#FFFFFF" d="M24.2021,0.6797 C23.8181,0.6797 23.4401,0.6887 23.0661,0.7057 L23.0661,2.3227 C23.4401,2.3027 23.8181,2.2947 24.2021,2.2947 C36.4121,2.2947 46.3141,12.1947 46.3141,24.4077 C46.3141,36.6187 36.4121,46.5197 24.2021,46.5197 C11.9851,46.5197 2.0861,36.6187 2.0861,24.4077 C2.0861,17.6297 5.1371,11.5647 9.9371,7.5087 L9.9371,5.4437 C4.1891,9.7757 0.4731,16.6577 0.4731,24.4077 C0.4731,37.5097 11.0961,48.1327 24.2021,48.1327 C37.3051,48.1327 47.9271,37.5097 47.9271,24.4077 C47.9271,11.3037 37.3051,0.6797 24.2021,0.6797"/>
      <path fill="#FFFFFF" d="M40.9854 36.7939C41.3544 36.2939 41.7024 35.7749 42.0294 35.2429L42.0294 32.0589 40.9854 32.0589 40.9854 36.7939zM44.0283 30.8999C44.1753 30.4419 44.3123 29.9799 44.4283 29.5139L40.9853 29.5139 40.9853 30.3609 41.5073 30.3609C42.4253 30.3329 43.4513 30.3219 44.0283 30.8999"/>
    </g>
    <polygon fill="#FFFFFF" points="40.172 50.747 41.104 50.747 41.104 41.287 40.172 41.287"/>
    <g fill="#FFFFFF" transform="translate(37 37.89)">
      <path d="M1.0215,1.5718 L4.1055,1.5718 C4.9025,1.5718 5.4575,1.7368 5.7835,2.0478 C6.1095,2.3538 6.2565,2.9098 6.2565,3.7078 L6.2565,12.5478 C6.2565,13.3488 6.1095,13.9038 5.7835,14.2118 C5.2925,14.7008 4.3945,14.7008 3.6445,14.7008 C3.4825,14.6858 3.3175,14.6858 3.1715,14.6858 L3.1715,18.8758 C3.4825,18.9358 3.7925,18.9908 4.1055,19.0378 L4.1055,15.5978 C5.5245,15.5978 6.4575,15.1128 6.8925,14.1418 L6.8925,19.2628 C6.9945,19.2638 7.0945,19.2668 7.2025,19.2668 C7.3965,19.2668 7.5925,19.2638 7.7885,19.2588 L7.7885,3.8728 C7.7885,3.0558 7.9545,2.4858 8.2585,2.1598 C8.5675,1.8348 9.1265,1.6728 9.9105,1.6728 C10.7095,1.6728 11.8785,1.5558 12.4855,2.1598 C12.7955,2.4858 12.9415,3.0558 12.9415,3.8728 L12.9415,8.4048 L10.8255,8.4048 L10.8255,3.5628 L9.9105,3.5628 L9.9105,19.0918 C10.2155,19.0538 10.5195,19.0068 10.8255,18.9528 L10.8255,9.3188 L12.9415,9.3188 L12.9415,18.4658 C13.3765,18.3418 13.8065,18.2018 14.2305,18.0518 L14.2305,9.6788 C14.2305,8.7318 14.4585,8.0158 15.4235,7.6908 L14.3595,1.8648 L16.4985,1.8648 L16.8555,8.2288 L17.1185,8.2288 L17.4745,1.8648 L19.7275,1.8648 L18.5215,7.6908 C19.5325,8.0458 19.7275,8.6678 19.7275,9.6788 L19.7275,15.0868 C20.3555,14.6158 20.9545,14.1108 21.5215,13.5728 L21.5215,1.8168 L27.7835,1.8168 C27.8265,1.5368 27.8685,1.2538 27.9035,0.9688 L13.2505,0.9688 L13.4585,2.0198 C12.9935,1.1708 12.1145,0.7408 10.8255,0.7408 L9.9105,0.7408 C8.3555,0.7408 7.4125,1.3598 7.0535,2.5908 C6.7215,1.3008 5.7395,0.6588 4.1055,0.6588 L0.0905,0.6588 L0.0905,18.0238 C0.3995,18.1348 0.7095,18.2388 1.0215,18.3358 L1.0215,1.5718 Z M20.4765,8.2588 L19.4655,7.2948 L20.4765,2.0678 L20.4765,8.2588 Z"/>
      <path d="M16.498,17.083 C16.822,16.92 17.144,16.75 17.46,16.573 L17.46,9.414 L16.498,9.414 L16.498,17.083 Z"/>
    </g>
    <polygon fill="#248341" points="280.269 71.795 292.146 71.795 292.146 .883 280.269 .883"/>
    <polygon fill="#248341" points="260.477 71.795 268.395 71.795 268.395 .883 260.477 .883"/>
    <polygon fill="#6AA744" points="304.031 71.795 311.949 71.795 311.949 .883 304.031 .883"/>
    <polygon fill="#A6CE39" points="327.785 71.795 335.703 71.795 335.703 .883 327.785 .883"/>
    <polygon fill="#A6CE39" points="292.146 71.795 296.105 71.795 296.105 .883 292.146 .883"/>
    <polygon fill="#245F34" points="272.352 71.795 276.311 71.795 276.311 .883 272.352 .883"/>
    <polygon fill="#FFCB05" points="319.867 71.795 323.826 71.795 323.826 .883 319.867 .883"/>
    <polygon fill="#FFCB05" points="343.622 71.795 347.581 71.795 347.581 .883 343.622 .883"/>
  </g>
</svg>
