<svg xmlns="http://www.w3.org/2000/svg" width="322" height="173" viewBox="0 0 322 173">
  <g fill="none" fill-rule="evenodd" transform="translate(1 .582)">
    <path fill="#60553E" d="M156.774348,2.83460495 C131.392869,2.83460495 110.813986,23.4815554 110.813986,48.9399614 C110.813986,74.415496 131.392869,95.0744366 156.774348,95.0744366 C182.16439,95.0744366 202.743273,74.415496 202.743273,48.9399614 C202.743273,31.0901297 192.607124,15.636605 177.805401,7.97321881 C177.66838,7.84646634 177.548486,7.73170396 177.401188,7.59981287 C177.401188,7.59981287 177.392624,7.66832772 177.392624,7.77281287 C175.590795,6.8581396 173.710178,6.06850594 171.781603,5.3970604 C171.928901,4.7701495 172.125869,3.84177327 172.204656,3.15491188 C172.29372,2.31560495 171.624029,1.43861485 170.246965,1.76919901 C169.291241,1.97988218 166.840273,2.83974356 164.69589,3.56600099 C162.118178,3.11551584 159.480518,2.83460495 156.774348,2.83460495"/>
    <path stroke="#DCD6CC" stroke-linejoin="round" stroke-width=".353" d="M156.774348,2.83460495 C131.392869,2.83460495 110.813986,23.4815554 110.813986,48.9399614 C110.813986,74.415496 131.392869,95.0744366 156.774348,95.0744366 C182.16439,95.0744366 202.743273,74.415496 202.743273,48.9399614 C202.743273,31.0901297 192.607124,15.636605 177.805401,7.97321881 C177.66838,7.84646634 177.548486,7.73170396 177.401188,7.59981287 C177.401188,7.59981287 177.392624,7.66832772 177.392624,7.77281287 C175.590795,6.8581396 173.710178,6.06850594 171.781603,5.3970604 C171.928901,4.7701495 172.125869,3.84177327 172.204656,3.15491188 C172.29372,2.31560495 171.624029,1.43861485 170.246965,1.76919901 C169.291241,1.97988218 166.840273,2.83974356 164.69589,3.56600099 C162.118178,3.11551584 159.480518,2.83460495 156.774348,2.83460495 Z"/>
    <path fill="#60553E" d="M156.774348,97.898105 C183.721295,97.898105 205.559061,75.9767782 205.559061,48.939105 C205.559061,27.7971347 192.194348,9.77601584 173.465252,2.93309505 L173.66222,4.0396099 C191.742178,10.8773921 204.603337,28.4034911 204.603337,48.939105 C204.603337,75.4440752 183.188624,96.9320455 156.774348,96.9320455 C130.360071,96.9320455 108.953922,75.4440752 108.953922,48.939105 C108.953922,22.4444119 130.360071,0.963293069 156.774348,0.963293069 C159.617539,0.963293069 162.412773,1.20994653 165.127507,1.6895505 L166.782039,1.02838218 C163.553476,0.360362376 160.208444,0.0057980198 156.774348,0.0057980198 C129.835965,0.0057980198 107.989635,21.9117089 107.989635,48.939105 C107.989635,75.9767782 129.835965,97.898105 156.774348,97.898105"/>
    <path stroke="#DCD6CC" stroke-linejoin="round" stroke-width=".353" d="M156.774348,97.898105 C183.721295,97.898105 205.559061,75.9767782 205.559061,48.939105 C205.559061,27.7971347 192.194348,9.77601584 173.465252,2.93309505 L173.66222,4.0396099 C191.742178,10.8773921 204.603337,28.4034911 204.603337,48.939105 C204.603337,75.4440752 183.188624,96.9320455 156.774348,96.9320455 C130.360071,96.9320455 108.953922,75.4440752 108.953922,48.939105 C108.953922,22.4444119 130.360071,0.963293069 156.774348,0.963293069 C159.617539,0.963293069 162.412773,1.20994653 165.127507,1.6895505 L166.782039,1.02838218 C163.553476,0.360362376 160.208444,0.0057980198 156.774348,0.0057980198 C129.835965,0.0057980198 107.989635,21.9117089 107.989635,48.939105 C107.989635,75.9767782 129.835965,97.898105 156.774348,97.898105 Z"/>
    <path fill="#60553E" d="M123.548572,154.446324 C124.690987,155.246235 124.690987,156.246551 124.690987,156.935126 L124.690987,169.367146 C124.690987,170.059146 124.690987,171.045759 123.548572,171.855948 L129.560381,171.855948 C131.057338,171.855948 136.824221,171.698363 136.824221,166.306245 C136.824221,163.027809 134.472594,161.160779 130.45787,161.160779 C129.640881,161.160779 128.036019,161.290957 127.21903,161.337205 L127.21903,156.443532 L132.415562,156.443532 C133.282221,156.443532 134.255072,156.482928 135.024104,157.310245 L135.024104,154.379522 C134.748349,154.425769 134.443477,154.446324 134.128328,154.446324 L123.548572,154.446324 Z M127.21903,163.116878 C127.809934,163.067205 128.695434,163.007254 129.315455,163.007254 C130.38936,163.007254 133.979317,163.007254 133.979317,166.265136 C133.979317,167.667977 133.390126,170.01975 129.788179,170.01975 C128.65604,170.01975 127.614679,169.862165 127.21903,169.791938 L127.21903,163.116878 Z"/>
    <path stroke="#DCD6CC" stroke-linejoin="round" stroke-width=".353" d="M123.548572,154.446324 C124.690987,155.246235 124.690987,156.246551 124.690987,156.935126 L124.690987,169.367146 C124.690987,170.059146 124.690987,171.045759 123.548572,171.855948 L129.560381,171.855948 C131.057338,171.855948 136.824221,171.698363 136.824221,166.306245 C136.824221,163.027809 134.472594,161.160779 130.45787,161.160779 C129.640881,161.160779 128.036019,161.290957 127.21903,161.337205 L127.21903,156.443532 L132.415562,156.443532 C133.282221,156.443532 134.255072,156.482928 135.024104,157.310245 L135.024104,154.379522 C134.748349,154.425769 134.443477,154.446324 134.128328,154.446324 L123.548572,154.446324 Z M127.21903,163.116878 C127.809934,163.067205 128.695434,163.007254 129.315455,163.007254 C130.38936,163.007254 133.979317,163.007254 133.979317,166.265136 C133.979317,167.667977 133.390126,170.01975 129.788179,170.01975 C128.65604,170.01975 127.614679,169.862165 127.21903,169.791938 L127.21903,163.116878 Z"/>
    <path fill="#60553E" d="M144.088404,154.446324 C145.102362,154.920789 144.758096,155.861155 144.658755,156.116373 L139.698585,168.697413 C139.236138,169.892997 138.734298,171.006363 137.444585,171.855948 L142.129,171.855948 C140.967745,171.026918 141.195543,170.01975 141.539809,169.139334 L143.093287,165.239126 L149.766223,165.239126 L151.64684,169.908413 C151.864362,170.480512 152.059617,171.333522 150.898362,171.855948 L156.233628,171.855948 C155.012426,171.203344 154.520862,170.266403 154.116649,169.290066 L148.152798,154.446324 L144.088404,154.446324 Z M146.410915,156.707314 L149.117085,163.569076 L143.742426,163.569076 L146.410915,156.707314 Z"/>
    <path stroke="#DCD6CC" stroke-linejoin="round" stroke-width=".353" d="M144.088404,154.446324 C145.102362,154.920789 144.758096,155.861155 144.658755,156.116373 L139.698585,168.697413 C139.236138,169.892997 138.734298,171.006363 137.444585,171.855948 L142.129,171.855948 C140.967745,171.026918 141.195543,170.01975 141.539809,169.139334 L143.093287,165.239126 L149.766223,165.239126 L151.64684,169.908413 C151.864362,170.480512 152.059617,171.333522 150.898362,171.855948 L156.233628,171.855948 C155.012426,171.203344 154.520862,170.266403 154.116649,169.290066 L148.152798,154.446324 L144.088404,154.446324 Z M146.410915,156.707314 L149.117085,163.569076 L143.742426,163.569076 L146.410915,156.707314 Z"/>
    <path fill="#60553E" d="M170.748291,161.311169 L170.748291,156.934783 C170.748291,156.116031 170.719174,155.245892 169.607589,154.445981 L174.410185,154.445981 C173.296887,155.245892 173.278047,156.116031 173.278047,156.934783 L173.278047,169.366803 C173.278047,170.187268 173.296887,171.04713 174.410185,171.855605 L169.607589,171.855605 C170.719174,171.04713 170.748291,170.187268 170.748291,169.366803 L170.748291,163.294674 L161.203047,163.294674 L161.203047,169.366803 C161.203047,170.187268 161.232164,171.04713 162.343749,171.855605 L157.542866,171.855605 C158.652738,171.04713 158.683568,170.187268 158.683568,169.366803 L158.683568,156.934783 C158.683568,156.116031 158.652738,155.245892 157.542866,154.445981 L162.343749,154.445981 C161.232164,155.245892 161.203047,156.116031 161.203047,156.934783 L161.203047,161.311169 L170.748291,161.311169 Z"/>
    <path stroke="#DCD6CC" stroke-linejoin="round" stroke-width=".353" d="M170.748291,161.311169 L170.748291,156.934783 C170.748291,156.116031 170.719174,155.245892 169.607589,154.445981 L174.410185,154.445981 C173.296887,155.245892 173.278047,156.116031 173.278047,156.934783 L173.278047,169.366803 C173.278047,170.187268 173.296887,171.04713 174.410185,171.855605 L169.607589,171.855605 C170.719174,171.04713 170.748291,170.187268 170.748291,169.366803 L170.748291,163.294674 L161.203047,163.294674 L161.203047,169.366803 C161.203047,170.187268 161.232164,171.04713 162.343749,171.855605 L157.542866,171.855605 C158.652738,171.04713 158.683568,170.187268 158.683568,169.366803 L158.683568,156.934783 C158.683568,156.116031 158.652738,155.245892 157.542866,154.445981 L162.343749,154.445981 C161.232164,155.245892 161.203047,156.116031 161.203047,156.934783 L161.203047,161.311169 L170.748291,161.311169 Z"/>
    <path fill="#60553E" d="M186.062817,157.60777 C186.732509,156.708513 187.076774,156.165533 187.076774,155.660236 C187.076774,155.069295 186.602338,154.653067 186.179285,154.44581 L190.945913,154.44581 L184.920402,162.27877 L187.775583,166.062503 C190.02787,169.072018 191.288466,170.611889 193.444838,171.855434 L190.796902,171.973622 C188.837498,172.072968 187.844094,170.560503 186.602338,168.845919 L182.193679,162.830315 L186.062817,157.60777 Z M182.834253,154.44581 C181.702115,155.245721 181.702115,156.246038 181.702115,156.934612 L181.702115,169.366632 C181.702115,170.060345 181.702115,171.046958 182.834253,171.855434 L178.03337,171.855434 C179.174072,171.046958 179.174072,170.060345 179.174072,169.366632 L179.174072,156.934612 C179.174072,156.246038 179.174072,155.245721 178.03337,154.44581 L182.834253,154.44581 Z"/>
    <path stroke="#DCD6CC" stroke-linejoin="round" stroke-width=".353" d="M186.062817,157.60777 C186.732509,156.708513 187.076774,156.165533 187.076774,155.660236 C187.076774,155.069295 186.602338,154.653067 186.179285,154.44581 L190.945913,154.44581 L184.920402,162.27877 L187.775583,166.062503 C190.02787,169.072018 191.288466,170.611889 193.444838,171.855434 L190.796902,171.973622 C188.837498,172.072968 187.844094,170.560503 186.602338,168.845919 L182.193679,162.830315 L186.062817,157.60777 Z M182.834253,154.44581 C181.702115,155.245721 181.702115,156.246038 181.702115,156.934612 L181.702115,169.366632 C181.702115,170.060345 181.702115,171.046958 182.834253,171.855434 L178.03337,171.855434 C179.174072,171.046958 179.174072,170.060345 179.174072,169.366632 L179.174072,156.934612 C179.174072,156.246038 179.174072,155.245721 178.03337,154.44581 L182.834253,154.44581 Z"/>
    <path fill="#FEFEFE" d="M110.813986,48.9399614 C110.813986,23.4815554 131.392869,2.83460495 156.774348,2.83460495 C182.16439,2.83460495 202.743273,23.4815554 202.743273,48.9399614 C202.743273,74.415496 182.16439,95.0744366 156.774348,95.0744366 C131.392869,95.0744366 110.813986,74.415496 110.813986,48.9399614"/>
    <path stroke="#60553E" stroke-linejoin="round" stroke-width=".095" d="M110.813986,48.9399614 C110.813986,23.4815554 131.392869,2.83460495 156.774348,2.83460495 C182.16439,2.83460495 202.743273,23.4815554 202.743273,48.9399614 C202.743273,74.415496 182.16439,95.0744366 156.774348,95.0744366 C131.392869,95.0744366 110.813986,74.415496 110.813986,48.9399614 Z"/>
    <path fill="#60553E" d="M173.662049,4.03978119 C191.742006,10.8775634 204.603166,28.4036624 204.603166,48.9392762 C204.603166,75.4442465 183.188453,96.930504 156.774177,96.930504 C130.3599,96.930504 108.953751,75.4442465 108.953751,48.9392762 C108.953751,22.4445832 130.3599,0.963464356 156.774177,0.963464356 C159.617368,0.963464356 162.414315,1.21011782 165.129049,1.68800891 L166.781868,1.02855347 C163.555017,0.360533663 160.208272,0.00596930693 156.774177,0.00596930693 C129.837506,0.00596930693 107.989464,21.9118802 107.989464,48.9392762 C107.989464,75.9769495 129.837506,97.8982762 156.774177,97.8982762 C183.721123,97.8982762 205.558889,75.9769495 205.558889,48.9392762 C205.558889,27.7973059 192.194177,9.77618713 173.465081,2.93326634 L173.662049,4.03978119 Z"/>
    <path fill="#60553E" d="M163.840364,13.8495663 C159.834204,17.1023089 153.241768,24.8838832 150.131385,32.1755762 C149.893311,32.7202693 150.131385,32.8024871 150.898704,32.3348733 C151.674587,31.8655465 153.909747,30.7898634 154.981938,30.4781208 C154.981938,30.4781208 153.820683,34.5170713 153.437023,36.7420911 C153.132151,38.5748634 154.647949,38.432695 155.593396,38.2151604 C156.538843,38.0027644 160.454226,37.8280515 161.142757,37.7458337 C161.142757,37.7458337 157.52197,36.8911109 157.138311,35.4197545 C156.754651,33.9586752 157.787449,30.6905168 158.525651,28.4740614 C158.683226,27.999596 158.446864,27.3127347 157.679545,27.6142 C156.901949,27.920804 155.829757,28.1520416 155.288523,28.4740614 C155.288523,28.4740614 158.683226,20.1203881 163.919151,14.0859426 L163.840364,13.8495663 L181.800428,17.5716356 C181.408204,20.6188337 180.294906,20.3464871 179.793066,20.1991802 C179.253545,20.041596 179.104534,19.8120713 177.480832,19.6613386 C176.968715,19.6116653 174.596534,19.3444574 175.865694,20.3464871 C177.903885,21.9805663 179.635491,25.3001109 179.635491,25.3001109 C179.87014,24.2175762 179.320343,22.6725663 179.025747,22.1347248 C178.720874,21.5866059 179.104534,21.4375861 179.477917,21.5129525 C179.87014,21.5866059 180.089374,21.7339129 180.796747,22.1347248 C181.486991,22.5149822 181.947726,22.4447545 182.107013,21.5129525 C182.233757,20.7061901 182.194364,19.0635465 182.036789,17.5767743 C182.016236,17.4688634 181.841534,17.4157644 181.800428,17.5716356 L163.840364,13.8495663 Z M168.927279,5.50959604 C169.155077,5.25437822 168.927279,5.04540792 168.317534,5.43765545 C167.697513,5.8162 164.981066,7.45541782 163.151832,10.5317347 C162.925747,10.9222693 163.062768,11.4995069 164.035619,11.1637842 C165.229417,10.7441307 166.45747,10.5317347 166.998704,10.4529426 C167.541651,10.3741505 167.541651,9.99389307 167.157991,9.84487327 C166.772619,9.6821505 166.683555,9.53313069 166.851406,8.91307129 C166.998704,8.29472475 168.082885,6.51333861 168.927279,5.50959604 Z M133.508991,58.0741901 C133.980002,57.4918139 134.964843,56.6713485 136.263119,56.0290218 C138.112906,55.0920812 143.389938,54.4805861 146.311917,54.5199822 C148.043523,54.5388238 149.206491,55.3301703 150.013204,56.1386455 C150.818204,56.9488337 149.432577,57.0670218 148.742332,56.4846455 C148.043523,55.9125465 147.276204,55.7138535 146.469491,55.7138535 C145.662779,55.7138535 144.806396,56.0290218 144.354226,56.3664574 C143.891779,56.7210218 143.773598,57.1954871 142.620906,57.5312099 C141.223289,57.9251703 139.611577,56.6627842 139.611577,56.6627842 C140.742002,58.8055861 142.689417,58.7353584 143.773598,58.4698634 C144.56147,58.2608931 144.806396,57.8960515 145.967651,57.8772099 C147.817438,57.8480911 148.624151,58.9237743 148.624151,58.9237743 C146.311917,58.8055861 142.394821,60.2563881 140.53647,60.6606257 C138.222523,61.1744871 136.02847,61.243002 136.02847,61.243002 C137.522002,63.0997545 139.728045,63.0997545 141.351747,63.0997545 C142.965172,63.0997545 148.161704,62.7143584 151.282364,62.9815663 C155.19946,63.3070119 158.328683,65.8848832 158.328683,69.706299 C158.328683,73.5277149 155.680747,75.6105663 155.680747,75.6105663 C159.027491,74.5742792 160.414832,71.9073386 160.414832,71.9073386 C162.197821,78.7999327 158.494821,84.3102396 155.110396,86.5609525 C152.296321,88.4382594 143.850672,90.373804 137.36614,87.2632297 C130.191364,83.8169327 127.474917,80.459705 127.474917,80.459705 C143.073077,81.7323683 150.701736,77.398804 150.701736,77.398804 C136.609098,78.2175564 126.776109,74.6427941 120.418321,71.849101 C117.880002,67.8015861 116.030215,63.3772396 114.946034,58.567497 L114.946034,58.5777743 C126.60997,67.3853584 136.953364,68.8961109 136.953364,68.8961109 C124.35597,62.0531901 118.087247,54.3915168 113.9218,46.750398 C114.141034,42.2883683 115.026534,38.1158139 116.482385,34.1111208 L116.511502,34.0426059 C121.18564,46.5191604 126.323938,50.2343782 126.323938,50.2343782 C121.235311,38.6296752 121.274704,30.3205366 121.737151,24.0599921 C123.686279,21.2851406 125.900885,18.8271703 128.43064,16.5850218 L128.468321,16.5387743 C126.502066,27.6775762 128.86397,34.9161703 128.86397,34.9161703 C128.86397,26.1085861 133.795023,15.6275267 137.720683,10.2850812 C140.211045,9.03468515 142.612343,8.1131604 145.339066,7.34750693 L145.34763,7.34750693 C141.764523,11.8643485 140.190491,16.249299 140.190491,16.249299 C147.543396,9.2282396 159.716023,5.01286337 161.565811,4.53668515 C163.415598,4.08448713 168.740587,2.10954653 170.246109,1.76868515 C171.624885,1.43810099 172.294577,2.31680396 172.205513,3.15611089 C172.087332,4.2472099 171.624885,6.05771485 171.624885,6.05771485 C175.708119,7.05631881 177.480832,9.07065545 177.480832,9.07065545 C177.323257,8.52767525 177.402045,7.59929901 177.402045,7.59929901 C183.031906,12.6248634 184.566545,15.0211703 184.724119,19.575695 C184.881694,24.1387842 186.878779,24.8342099 188.03147,25.4508436 C189.192726,26.0691901 192.046194,27.7032693 192.962523,28.4740614 C193.649343,29.0547248 193.354747,29.7073287 192.962523,30.1715168 C192.577151,30.6305663 192.577151,30.7898634 192.50864,31.327705 C192.162662,33.6966059 191.111023,34.654101 189.65346,35.1885168 C188.187332,35.7263584 186.565343,34.8819129 186.565343,34.8819129 C184.950204,36.6598733 184.643619,35.4985465 184.566545,34.8082594 C184.498034,34.1111208 183.641651,34.654101 183.031906,34.8819129 C182.411885,35.1131505 182.184087,34.2652792 182.184087,34.2652792 C179.253545,33.8798832 177.972396,35.6167347 177.972396,35.6167347 C180.520991,35.9627347 181.800428,37.701299 181.908332,38.3967248 C182.026513,39.1075663 183.179204,38.6296752 183.179204,38.6296752 C183.179204,38.6296752 183.287109,38.3967248 183.759832,38.1706257 C184.220566,37.9376752 184.34046,38.0507248 184.220566,38.6296752 C184.104098,39.2069129 183.985917,39.6762396 183.985917,39.6762396 L185.265353,40.4915663 C184.79263,43.6261208 183.415566,43.4925168 182.716757,43.1516554 C178.277268,40.9249228 170.355726,40.4915663 170.355726,40.4915663 C170.81646,39.7944277 171.929757,38.9003089 171.929757,38.9003089 C151.597513,38.9003089 148.161704,41.3788337 147.11863,42.6874673 C146.399268,43.5952891 147.021002,45.0032693 147.021002,45.0032693 C144.599151,45.4674574 138.458885,47.0227446 136.105545,49.1878139 C133.842981,51.2603881 133.085938,56.1300812 133.007151,57.9251703 C132.986598,58.302002 133.351417,58.2917248 133.508991,58.0741901 Z"/>
    <path fill="#60553E" d="M186.937527 79.8769861C185.12542 73.7945802 180.127569 69.9149267 177.351176 66.5457089 176.219037 65.173699 174.547378 63.2484317 174.547378 63.2484317 176.17108 64.1768079 179.254059 64.6392832 179.254059 64.6392832 178.406239 63.9387188 176.475952 61.6280554 175.70692 60.6911149 173.562537 58.1132436 169.844122 55.2304812 167.078005 53.9766594 161.645112 51.5084119 155.986133 51.1915307 155.218814 51.0442238 154.441218 50.8849267 152.827793 51.1915307 153.821197 49.6413822 154.824878 48.0929465 160.680824 43.5367089 160.680824 43.5367089 159.451059 43.5367089 154.057559 44.0111743 152.432144 44.2321347 150.818718 44.4702238 150.445335 43.9272436 150.357984 42.8498475 150.357984 42.8498475 147.108867 45.9158871 148.664059 47.4814515 148.90042 47.714402 149.588952 47.7931941 150.445335 47.407798 151.282878 47.0172634 152.97509 46.4742832 153.595112 46.4040554 153.595112 46.4040554 152.207771 48.565699 151.902899 49.4940752 151.596314 50.4224515 151.517527 50.8849267 152.97509 51.3491149 154.441218 51.8030257 161.84208 54.1342436 166.379197 57.2242634 170.924878 60.315996 175.629846 64.2658772 179.105048 71.5233129 182.568261 78.801303 180.658527 84.309897 180.119005 85.3170653 182.609367 83.7275208 184.870218 81.9101644 186.97692 79.8461545L186.937527 79.8769861zM197.073676 64.4721069C192.617059 60.8391069 184.793144 54.3507505 175.246186 52.1205921 175.246186 52.1205921 188.867814 57.5812257 193.728644 71.325305 195.047473 69.1431069 196.150495 66.8821168 197.073676 64.4721069"/>
    <path fill="#60553E" d="M170.335172 89.9878941C171.792736 86.5809931 173.395885 78.4842505 171.703672 72.2151416 171.703672 72.2151416 172.017109 86.9663891 161.93063 91.8343693 164.765257 91.4986465 167.67696 90.866597 170.314619 89.9964584L170.335172 89.9878941zM199.938962 48.3678624C198.630409 47.8368723 190.568419 45.5467634 190.568419 45.5467634 193.266026 45.3977436 194.348494 43.3936842 194.348494 43.3936842 191.810174 44.0788327 187.951313 44.3905752 184.724462 43.9263871 184.724462 43.9263871 192.195547 47.1705653 199.634089 54.2532881L199.634089 54.1847733C199.83277 52.4753277 199.949238 50.7264861 199.949238 48.9399614 199.949238 48.7241396 199.949238 48.6042386 199.938962 48.3678624"/>
    <path fill="#FEFEFE" d="M262.33434,129.188152 L264.264628,124.835747 L266.172649,129.188152 L262.33434,129.188152 Z M273.890372,133.554261 L266.813223,117.419014 L259.835415,117.419014 C260.739755,118.071618 261.763989,119.16443 262.178479,120.12535 L256.252309,133.564539 C255.642564,134.95539 255.180117,135.607994 253.713989,136.969727 L260.720915,136.969727 C259.835415,135.962558 259.746351,135.102697 260.11117,134.253113 C260.11117,134.253113 260.484553,133.3864 260.729479,132.800598 L267.767234,132.800598 L268.397532,134.253113 C268.810309,135.172925 268.810309,135.734747 267.806628,136.969727 L276.574277,136.969727 C275.130415,135.69535 274.537798,135.025618 273.890372,133.554261 Z"/>
    <path stroke="#60553E" stroke-linejoin="round" stroke-width=".095" d="M262.33434,129.188152 L264.264628,124.835747 L266.172649,129.188152 L262.33434,129.188152 Z M273.890372,133.554261 L266.813223,117.419014 L259.835415,117.419014 C260.739755,118.071618 261.763989,119.16443 262.178479,120.12535 L256.252309,133.564539 C255.642564,134.95539 255.180117,135.607994 253.713989,136.969727 L260.720915,136.969727 C259.835415,135.962558 259.746351,135.102697 260.11117,134.253113 C260.11117,134.253113 260.484553,133.3864 260.729479,132.800598 L267.767234,132.800598 L268.397532,134.253113 C268.810309,135.172925 268.810309,135.734747 267.806628,136.969727 L276.574277,136.969727 C275.130415,135.69535 274.537798,135.025618 273.890372,133.554261 Z"/>
    <path fill="#FEFEFE" d="M68.8094287,120.499955 C71.6731734,120.499955 72.3120351,121.436896 73.6908117,123.146342 L76.5922372,116.471282 C75.5303223,117.130738 74.5369181,117.656589 73.2574819,117.656589 C71.7622372,117.656589 71.0137585,117.08449 68.5936202,117.08449 C62.4310883,117.08449 58.2793436,121.142282 58.2793436,127.183579 C58.2793436,133.34649 62.0303011,137.334054 68.2870351,137.334054 C71.7519606,137.334054 74.2114926,135.74451 75.8557479,133.444124 L74.4392904,130.235916 C72.8926628,132.447233 71.2484074,133.928866 68.8094287,133.918589 C65.6887691,133.918589 63.8595351,130.867965 63.8595351,127.183579 C63.8595351,123.637936 65.5517479,120.499955 68.8094287,120.499955"/>
    <path stroke="#60553E" stroke-linejoin="round" stroke-width=".095" d="M68.8094287,120.499955 C71.6731734,120.499955 72.3120351,121.436896 73.6908117,123.146342 L76.5922372,116.471282 C75.5303223,117.130738 74.5369181,117.656589 73.2574819,117.656589 C71.7622372,117.656589 71.0137585,117.08449 68.5936202,117.08449 C62.4310883,117.08449 58.2793436,121.142282 58.2793436,127.183579 C58.2793436,133.34649 62.0303011,137.334054 68.2870351,137.334054 C71.7519606,137.334054 74.2114926,135.74451 75.8557479,133.444124 L74.4392904,130.235916 C72.8926628,132.447233 71.2484074,133.928866 68.8094287,133.918589 C65.6887691,133.918589 63.8595351,130.867965 63.8595351,127.183579 C63.8595351,123.637936 65.5517479,120.499955 68.8094287,120.499955 Z"/>
    <path fill="#FEFEFE" d="M94.4759117,133.356596 L88.4915074,126.116289 L94.1128053,120.74815 C95.8050181,119.138051 96.5928904,118.495725 98.286816,117.418329 L89.1218053,117.418329 C90.2248266,118.632754 90.3412947,119.088378 89.5551351,119.857457 C89.5654117,119.857457 84.0845606,125.090279 84.0845606,125.090279 L84.0845606,120.47923 C84.0845606,119.078101 84.5949649,118.267913 85.4119543,117.418329 L77.3825074,117.418329 C78.2166245,118.267913 78.7201777,119.078101 78.7201777,120.47923 L78.7201777,133.918418 C78.7201777,135.310982 78.2166245,136.10918 77.3825074,136.969042 L85.4119543,136.969042 C84.5949649,136.10918 84.0845606,135.310982 84.0845606,133.918418 L84.0845606,129.04016 L88.5908479,134.461398 C89.3684436,135.400051 89.1029649,135.883081 88.2071883,136.969042 L98.4717947,136.969042 C96.6699649,135.735774 95.9625926,135.163675 94.4759117,133.356596"/>
    <path stroke="#60553E" stroke-linejoin="round" stroke-width=".095" d="M94.4759117,133.356596 L88.4915074,126.116289 L94.1128053,120.74815 C95.8050181,119.138051 96.5928904,118.495725 98.286816,117.418329 L89.1218053,117.418329 C90.2248266,118.632754 90.3412947,119.088378 89.5551351,119.857457 C89.5654117,119.857457 84.0845606,125.090279 84.0845606,125.090279 L84.0845606,120.47923 C84.0845606,119.078101 84.5949649,118.267913 85.4119543,117.418329 L77.3825074,117.418329 C78.2166245,118.267913 78.7201777,119.078101 78.7201777,120.47923 L78.7201777,133.918418 C78.7201777,135.310982 78.2166245,136.10918 77.3825074,136.969042 L85.4119543,136.969042 C84.5949649,136.10918 84.0845606,135.310982 84.0845606,133.918418 L84.0845606,129.04016 L88.5908479,134.461398 C89.3684436,135.400051 89.1029649,135.883081 88.2071883,136.969042 L98.4717947,136.969042 C96.6699649,135.735774 95.9625926,135.163675 94.4759117,133.356596 Z"/>
    <path fill="#FEFEFE" d="M118.411987,117.418843 L110.391104,117.418843 C111.206381,118.268427 111.720211,119.078615 111.720211,120.479744 L111.720211,120.560249 L105.400104,128.05406 L105.400104,120.479744 C105.400104,119.078615 105.901945,118.268427 106.729211,117.418843 L98.7083277,117.418843 C99.525317,118.268427 100.035721,119.078615 100.035721,120.479744 L100.035721,133.918932 C100.035721,135.309783 99.525317,136.109694 98.7083277,136.969555 L106.729211,136.969555 C105.901945,136.109694 105.400104,135.309783 105.400104,133.918932 L105.400104,133.771625 L111.720211,126.267536 L111.720211,133.918932 C111.720211,135.309783 111.206381,136.109694 110.391104,136.969555 L118.411987,136.969555 C117.594998,136.109694 117.082881,135.309783 117.082881,133.918932 L117.082881,120.479744 C117.082881,119.078615 117.594998,118.268427 118.411987,117.418843"/>
    <path stroke="#60553E" stroke-linejoin="round" stroke-width=".095" d="M118.411987,117.418843 L110.391104,117.418843 C111.206381,118.268427 111.720211,119.078615 111.720211,120.479744 L111.720211,120.560249 L105.400104,128.05406 L105.400104,120.479744 C105.400104,119.078615 105.901945,118.268427 106.729211,117.418843 L98.7083277,117.418843 C99.525317,118.268427 100.035721,119.078615 100.035721,120.479744 L100.035721,133.918932 C100.035721,135.309783 99.525317,136.109694 98.7083277,136.969555 L106.729211,136.969555 C105.901945,136.109694 105.400104,135.309783 105.400104,133.918932 L105.400104,133.771625 L111.720211,126.267536 L111.720211,133.918932 C111.720211,135.309783 111.206381,136.109694 110.391104,136.969555 L118.411987,136.969555 C117.594998,136.109694 117.082881,135.309783 117.082881,133.918932 L117.082881,120.479744 C117.082881,119.078615 117.594998,118.268427 118.411987,117.418843 Z"/>
    <path fill="#FEFEFE" d="M131.392355,116.311471 C134.894962,116.311471 136.599164,114.862382 136.599164,113.113541 C136.599164,112.334184 136.105887,111.414372 135.299174,110.684689 L131.815409,110.684689 C132.700909,111.54455 132.947547,112.334184 132.947547,112.699026 C132.947547,113.043313 132.553611,113.74559 131.392355,113.74559 C130.220823,113.74559 129.837164,113.043313 129.837164,112.699026 C129.837164,112.334184 130.064962,111.54455 130.969302,110.684689 L127.47526,110.684689 C126.687387,111.414372 126.176983,112.334184 126.176983,113.113541 C126.176983,114.862382 127.879472,116.311471 131.392355,116.311471"/>
    <path stroke="#60553E" stroke-linejoin="round" stroke-width=".095" d="M131.392355,116.311471 C134.894962,116.311471 136.599164,114.862382 136.599164,113.113541 C136.599164,112.334184 136.105887,111.414372 135.299174,110.684689 L131.815409,110.684689 C132.700909,111.54455 132.947547,112.334184 132.947547,112.699026 C132.947547,113.043313 132.553611,113.74559 131.392355,113.74559 C130.220823,113.74559 129.837164,113.043313 129.837164,112.699026 C129.837164,112.334184 130.064962,111.54455 130.969302,110.684689 L127.47526,110.684689 C126.687387,111.414372 126.176983,112.334184 126.176983,113.113541 C126.176983,114.862382 127.879472,116.311471 131.392355,116.311471 Z"/>
    <path fill="#FEFEFE" d="M34.392767,117.418843 C34.904884,118.25815 35.0624585,118.850803 34.5400649,120.145734 C34.5315011,120.145734 32.2672245,125.625209 31.0374585,128.595328 L27.4149585,120.145734 C26.9233947,119.047783 26.9131181,118.384902 27.4937457,117.418843 L19.0583734,117.418843 C20.2316181,118.485961 20.8499266,119.366377 21.5881287,120.834308 C21.5795649,120.834308 27.1580436,133.129298 28.1634372,135.361169 C26.8240543,138.492298 25.6730755,139.725565 24.1487138,139.725565 C22.1995862,139.725565 21.3825968,138.451189 20.2607351,136.35806 L18.3116074,140.515199 C19.3940755,141.64912 21.2746926,143.24209 24.030533,143.24209 C28.5573734,143.24209 30.3472138,139.893427 32.080533,135.835635 L38.4777138,120.808615 C39.1662457,119.225922 39.786267,118.3181 40.6032564,117.418843 L34.392767,117.418843 Z"/>
    <path stroke="#60553E" stroke-linejoin="round" stroke-width=".095" d="M34.392767,117.418843 C34.904884,118.25815 35.0624585,118.850803 34.5400649,120.145734 C34.5315011,120.145734 32.2672245,125.625209 31.0374585,128.595328 L27.4149585,120.145734 C26.9233947,119.047783 26.9131181,118.384902 27.4937457,117.418843 L19.0583734,117.418843 C20.2316181,118.485961 20.8499266,119.366377 21.5881287,120.834308 C21.5795649,120.834308 27.1580436,133.129298 28.1634372,135.361169 C26.8240543,138.492298 25.6730755,139.725565 24.1487138,139.725565 C22.1995862,139.725565 21.3825968,138.451189 20.2607351,136.35806 L18.3116074,140.515199 C19.3940755,141.64912 21.2746926,143.24209 24.030533,143.24209 C28.5573734,143.24209 30.3472138,139.893427 32.080533,135.835635 L38.4777138,120.808615 C39.1662457,119.225922 39.786267,118.3181 40.6032564,117.418843 L34.392767,117.418843 Z"/>
    <path fill="#FEFEFE" d="M9.02156489,126.572084 L7.59483085,126.572084 L7.59483085,118.365718 L8.65674574,118.365718 C11.4828096,118.365718 13.3206074,119.28553 13.3206074,122.219678 C13.3206074,125.189797 11.9538202,126.572084 9.02156489,126.572084 M17.1109585,116.973153 C15.4273096,115.284262 12.8495968,114.388431 9.6604266,114.388431 L0.430330851,114.388431 C1.52136277,115.462401 1.92557553,116.264025 1.92557553,117.803896 L1.92557553,133.54347 C1.92557553,135.093619 1.52136277,135.883252 0.430330851,136.969213 L9.07979894,136.969213 C7.98705426,135.883252 7.59483085,135.093619 7.59483085,133.54347 L7.59483085,130.569926 L9.6604266,130.569926 C12.6629053,130.569926 15.2611713,129.612431 16.9825011,127.887569 C18.4195117,126.445332 19.1765543,124.48752 19.1765543,122.247084 C19.1765543,120.155668 18.4589053,118.338312 17.1109585,116.973153"/>
    <path stroke="#60553E" stroke-linejoin="round" stroke-width=".095" d="M9.02156489,126.572084 L7.59483085,126.572084 L7.59483085,118.365718 L8.65674574,118.365718 C11.4828096,118.365718 13.3206074,119.28553 13.3206074,122.219678 C13.3206074,125.189797 11.9538202,126.572084 9.02156489,126.572084 Z M17.1109585,116.973153 C15.4273096,115.284262 12.8495968,114.388431 9.6604266,114.388431 L0.430330851,114.388431 C1.52136277,115.462401 1.92557553,116.264025 1.92557553,117.803896 L1.92557553,133.54347 C1.92557553,135.093619 1.52136277,135.883252 0.430330851,136.969213 L9.07979894,136.969213 C7.98705426,135.883252 7.59483085,135.093619 7.59483085,133.54347 L7.59483085,130.569926 L9.6604266,130.569926 C12.6629053,130.569926 15.2611713,129.612431 16.9825011,127.887569 C18.4195117,126.445332 19.1765543,124.48752 19.1765543,122.247084 C19.1765543,120.155668 18.4589053,118.338312 17.1109585,116.973153 Z"/>
    <path fill="#FEFEFE" d="M50.4941372,133.918589 C47.3923181,133.918589 45.5545202,130.867965 45.5545202,127.183579 C45.5545202,123.637936 47.2552968,120.499955 50.4941372,120.499955 C53.3767223,120.499955 54.0070202,121.436896 55.3943606,123.146342 L58.2786585,116.471282 C57.2253074,117.130738 56.2301904,117.656589 54.952467,117.656589 C53.4555096,117.656589 52.7070309,117.08449 50.2868926,117.08449 C44.1260734,117.08449 39.9828926,121.142282 39.9828926,127.183579 C39.9828926,133.34649 43.73385,137.334054 49.9820202,137.334054 C53.4469457,137.334054 55.9064777,135.74451 57.5592968,133.444124 L56.1325628,130.235916 C54.5876479,132.447233 52.9553819,133.928866 50.4941372,133.918589"/>
    <path stroke="#60553E" stroke-linejoin="round" stroke-width=".095" d="M50.4941372,133.918589 C47.3923181,133.918589 45.5545202,130.867965 45.5545202,127.183579 C45.5545202,123.637936 47.2552968,120.499955 50.4941372,120.499955 C53.3767223,120.499955 54.0070202,121.436896 55.3943606,123.146342 L58.2786585,116.471282 C57.2253074,117.130738 56.2301904,117.656589 54.952467,117.656589 C53.4555096,117.656589 52.7070309,117.08449 50.2868926,117.08449 C44.1260734,117.08449 39.9828926,121.142282 39.9828926,127.183579 C39.9828926,133.34649 43.73385,137.334054 49.9820202,137.334054 C53.4469457,137.334054 55.9064777,135.74451 57.5592968,133.444124 L56.1325628,130.235916 C54.5876479,132.447233 52.9553819,133.928866 50.4941372,133.918589 Z"/>
    <path fill="#FEFEFE" d="M232.043218,117.418843 L224.013771,117.418843 C224.837612,118.268427 225.349729,119.078615 225.349729,120.479744 L225.349729,125.073664 L219.553729,125.073664 L219.553729,120.479744 C219.553729,119.078615 220.045293,118.268427 220.881122,117.418843 L212.851676,117.418843 C213.677229,118.268427 214.189346,119.078615 214.189346,120.479744 L214.189346,133.918932 C214.189346,135.309783 213.677229,136.109694 212.851676,136.969555 L220.881122,136.969555 C220.045293,136.109694 219.553729,135.309783 219.553729,133.918932 L219.553729,128.732357 L225.349729,128.732357 L225.349729,133.918932 C225.349729,135.309783 224.837612,136.109694 224.013771,136.969555 L232.043218,136.969555 C231.217665,136.109694 230.705548,135.309783 230.705548,133.918932 L230.705548,120.479744 C230.705548,119.078615 231.217665,118.268427 232.043218,117.418843"/>
    <path stroke="#60553E" stroke-linejoin="round" stroke-width=".095" d="M232.043218,117.418843 L224.013771,117.418843 C224.837612,118.268427 225.349729,119.078615 225.349729,120.479744 L225.349729,125.073664 L219.553729,125.073664 L219.553729,120.479744 C219.553729,119.078615 220.045293,118.268427 220.881122,117.418843 L212.851676,117.418843 C213.677229,118.268427 214.189346,119.078615 214.189346,120.479744 L214.189346,133.918932 C214.189346,135.309783 213.677229,136.109694 212.851676,136.969555 L220.881122,136.969555 C220.045293,136.109694 219.553729,135.309783 219.553729,133.918932 L219.553729,128.732357 L225.349729,128.732357 L225.349729,133.918932 C225.349729,135.309783 224.837612,136.109694 224.013771,136.969555 L232.043218,136.969555 C231.217665,136.109694 230.705548,135.309783 230.705548,133.918932 L230.705548,120.479744 C230.705548,119.078615 231.217665,118.268427 232.043218,117.418843 Z"/>
    <path fill="#FEFEFE" d="M198.522162,129.188152 L200.450736,124.835747 L202.350194,129.188152 L198.522162,129.188152 Z M210.074768,133.554261 L202.980491,117.419014 L196.011247,117.419014 C196.925864,118.071618 197.931257,119.16443 198.354311,120.12535 L192.438417,133.564539 C191.818396,134.95539 191.355949,135.607994 189.889821,136.969727 L196.89846,136.969727 C196.011247,135.962558 195.915332,135.102697 196.276726,134.253113 C196.276726,134.253113 196.662098,133.3864 196.9173,132.800598 L203.955055,132.800598 L204.573364,134.253113 C204.987853,135.172925 204.987853,135.734747 203.992736,136.969727 L212.753534,136.969727 C211.316523,135.69535 210.715343,135.025618 210.074768,133.554261 Z"/>
    <path stroke="#60553E" stroke-linejoin="round" stroke-width=".095" d="M198.522162,129.188152 L200.450736,124.835747 L202.350194,129.188152 L198.522162,129.188152 Z M210.074768,133.554261 L202.980491,117.419014 L196.011247,117.419014 C196.925864,118.071618 197.931257,119.16443 198.354311,120.12535 L192.438417,133.564539 C191.818396,134.95539 191.355949,135.607994 189.889821,136.969727 L196.89846,136.969727 C196.011247,135.962558 195.915332,135.102697 196.276726,134.253113 C196.276726,134.253113 196.662098,133.3864 196.9173,132.800598 L203.955055,132.800598 L204.573364,134.253113 C204.987853,135.172925 204.987853,135.734747 203.992736,136.969727 L212.753534,136.969727 C211.316523,135.69535 210.715343,135.025618 210.074768,133.554261 Z"/>
    <path fill="#FEFEFE" d="M141.223974,117.418843 L133.203091,117.418843 C134.020081,118.268427 134.532198,119.078615 134.532198,120.479744 L134.532198,120.560249 L128.213804,128.05406 L128.213804,120.479744 C128.213804,119.078615 128.724209,118.268427 129.541198,117.418843 L121.511751,117.418843 C122.347581,118.268427 122.849421,119.078615 122.849421,120.479744 L122.849421,133.918932 C122.849421,135.309783 122.347581,136.109694 121.511751,136.969555 L129.541198,136.969555 C128.724209,136.109694 128.213804,135.309783 128.213804,133.918932 L128.213804,133.771625 L134.532198,126.267536 L134.532198,133.918932 C134.532198,135.309783 134.020081,136.109694 133.203091,136.969555 L141.223974,136.969555 C140.406985,136.109694 139.894868,135.309783 139.894868,133.918932 L139.894868,120.479744 C139.894868,119.078615 140.406985,118.268427 141.223974,117.418843"/>
    <path stroke="#60553E" stroke-linejoin="round" stroke-width=".095" d="M141.223974,117.418843 L133.203091,117.418843 C134.020081,118.268427 134.532198,119.078615 134.532198,120.479744 L134.532198,120.560249 L128.213804,128.05406 L128.213804,120.479744 C128.213804,119.078615 128.724209,118.268427 129.541198,117.418843 L121.511751,117.418843 C122.347581,118.268427 122.849421,119.078615 122.849421,120.479744 L122.849421,133.918932 C122.849421,135.309783 122.347581,136.109694 121.511751,136.969555 L129.541198,136.969555 C128.724209,136.109694 128.213804,135.309783 128.213804,133.918932 L128.213804,133.771625 L134.532198,126.267536 L134.532198,133.918932 C134.532198,135.309783 134.020081,136.109694 133.203091,136.969555 L141.223974,136.969555 C140.406985,136.109694 139.894868,135.309783 139.894868,133.918932 L139.894868,120.479744 C139.894868,119.078615 140.406985,118.268427 141.223974,117.418843 Z"/>
    <path fill="#FEFEFE" d="M245.397483,132.931633 C245.397483,133.219395 245.318696,133.296474 245.111451,133.296474 L240.653121,133.296474 C241.30226,132.032375 241.43243,130.57986 241.43243,128.469603 L241.43243,121.477662 C241.43243,121.260128 241.509504,121.092266 241.8041,121.092266 L245.397483,121.092266 L245.397483,132.931633 Z M250.761866,132.141999 L250.761866,120.479058 C250.761866,119.07793 251.273983,118.267742 252.090972,117.418157 L236.136557,117.418157 C236.963823,118.267742 237.465664,119.07793 237.465664,120.479058 L237.465664,128.469603 C237.465664,131.864514 236.855919,133.306751 233.685589,134.610247 L233.685589,139.368603 C235.259621,137.957197 237.583845,136.96887 239.719664,136.96887 L246.952674,136.96887 C249.520111,136.96887 251.587419,138.263801 252.985036,139.368603 L252.985036,134.461227 C251.618249,134.044999 250.761866,133.573959 250.761866,132.141999 Z"/>
    <path stroke="#60553E" stroke-linejoin="round" stroke-width=".095" d="M245.397483,132.931633 C245.397483,133.219395 245.318696,133.296474 245.111451,133.296474 L240.653121,133.296474 C241.30226,132.032375 241.43243,130.57986 241.43243,128.469603 L241.43243,121.477662 C241.43243,121.260128 241.509504,121.092266 241.8041,121.092266 L245.397483,121.092266 L245.397483,132.931633 Z M250.761866,132.141999 L250.761866,120.479058 C250.761866,119.07793 251.273983,118.267742 252.090972,117.418157 L236.136557,117.418157 C236.963823,118.267742 237.465664,119.07793 237.465664,120.479058 L237.465664,128.469603 C237.465664,131.864514 236.855919,133.306751 233.685589,134.610247 L233.685589,139.368603 C235.259621,137.957197 237.583845,136.96887 239.719664,136.96887 L246.952674,136.96887 C249.520111,136.96887 251.587419,138.263801 252.985036,139.368603 L252.985036,134.461227 C251.618249,134.044999 250.761866,133.573959 250.761866,132.141999 Z"/>
    <path fill="#FEFEFE" d="M284.498388,127.816485 L283.355973,127.816485 L283.355973,121.052356 L284.193516,121.052356 C285.60141,121.052356 286.55542,121.340119 287.146324,121.922495 C287.639601,122.424366 287.884527,123.16604 287.884527,124.20404 C287.884527,126.70997 286.831176,127.816485 284.498388,127.816485 Z M295.442963,117.419356 L293.151282,122.761802 C292.913207,121.557653 292.36341,120.500812 291.51559,119.649515 C290.058027,118.198713 287.816016,117.419356 285.039622,117.419356 L276.676186,117.419356 C277.491463,118.268941 278.00358,119.077416 278.00358,120.480257 L278.00358,133.919446 C278.00358,135.310297 277.491463,136.110208 276.676186,136.970069 L284.693644,136.970069 C283.86809,136.110208 283.355973,135.310297 283.355973,133.919446 L283.355973,131.490594 L285.039622,131.490594 C287.639601,131.490594 289.891888,130.659851 291.39741,129.161089 C292.639165,127.89699 293.308856,126.197822 293.308856,124.24001 C293.308856,123.84605 293.276314,123.470931 293.21808,123.106089 C294.725314,121.982446 296.131495,121.081475 297.74492,121.081475 L300.204452,121.091752 L300.204452,133.919446 C300.204452,135.310297 299.704324,136.110208 298.878771,136.970069 L306.897941,136.970069 C306.080952,136.110208 305.570548,135.310297 305.570548,133.919446 L305.570548,121.091752 L307.281601,121.091752 C308.91558,121.091752 309.278686,121.35896 310.263527,122.868 L312.645984,117.419356 L295.442963,117.419356 Z"/>
    <path stroke="#60553E" stroke-linejoin="round" stroke-width=".095" d="M284.498388,127.816485 L283.355973,127.816485 L283.355973,121.052356 L284.193516,121.052356 C285.60141,121.052356 286.55542,121.340119 287.146324,121.922495 C287.639601,122.424366 287.884527,123.16604 287.884527,124.20404 C287.884527,126.70997 286.831176,127.816485 284.498388,127.816485 Z M295.442963,117.419356 L293.151282,122.761802 C292.913207,121.557653 292.36341,120.500812 291.51559,119.649515 C290.058027,118.198713 287.816016,117.419356 285.039622,117.419356 L276.676186,117.419356 C277.491463,118.268941 278.00358,119.077416 278.00358,120.480257 L278.00358,133.919446 C278.00358,135.310297 277.491463,136.110208 276.676186,136.970069 L284.693644,136.970069 C283.86809,136.110208 283.355973,135.310297 283.355973,133.919446 L283.355973,131.490594 L285.039622,131.490594 C287.639601,131.490594 289.891888,130.659851 291.39741,129.161089 C292.639165,127.89699 293.308856,126.197822 293.308856,124.24001 C293.308856,123.84605 293.276314,123.470931 293.21808,123.106089 C294.725314,121.982446 296.131495,121.081475 297.74492,121.081475 L300.204452,121.091752 L300.204452,133.919446 C300.204452,135.310297 299.704324,136.110208 298.878771,136.970069 L306.897941,136.970069 C306.080952,136.110208 305.570548,135.310297 305.570548,133.919446 L305.570548,121.091752 L307.281601,121.091752 C308.91558,121.091752 309.278686,121.35896 310.263527,122.868 L312.645984,117.419356 L295.442963,117.419356 Z"/>
    <path fill="#FEFEFE" d="M166.270607,133.671079 C162.658384,133.671079 160.051554,130.235059 160.051554,125.615446 C160.051554,121.583347 162.106873,117.616337 166.270607,117.616337 C169.567682,117.616337 170.69982,118.921545 171.958703,120.596733 L175.118756,113.40096 C173.957501,114.151198 172.85448,114.565713 171.496256,114.565713 C170.011288,114.565713 168.39615,113.892554 166.017118,113.892554 C158.850905,113.892554 154.04831,118.613228 154.04831,125.615446 C154.04831,132.420683 158.386746,137.394861 165.669427,137.394861 C169.79548,137.394861 172.607841,135.517554 174.399395,132.941396 L172.845916,129.505376 C171.259895,131.894832 169.499171,133.671079 166.270607,133.671079"/>
    <path stroke="#60553E" stroke-linejoin="round" stroke-width=".095" d="M166.270607,133.671079 C162.658384,133.671079 160.051554,130.235059 160.051554,125.615446 C160.051554,121.583347 162.106873,117.616337 166.270607,117.616337 C169.567682,117.616337 170.69982,118.921545 171.958703,120.596733 L175.118756,113.40096 C173.957501,114.151198 172.85448,114.565713 171.496256,114.565713 C170.011288,114.565713 168.39615,113.892554 166.017118,113.892554 C158.850905,113.892554 154.04831,118.613228 154.04831,125.615446 C154.04831,132.420683 158.386746,137.394861 165.669427,137.394861 C169.79548,137.394861 172.607841,135.517554 174.399395,132.941396 L172.845916,129.505376 C171.259895,131.894832 169.499171,133.671079 166.270607,133.671079 Z"/>
    <path fill="#FEFEFE" d="M187.854199,121.092095 C189.488178,121.092095 189.851284,121.359303 190.834412,122.868343 L193.218582,117.417986 L175.404103,117.417986 L172.874348,123.342808 C174.487773,122.099263 175.983018,121.081818 177.707773,121.081818 L180.470465,121.092095 L180.470465,133.918075 C180.470465,135.31064 179.970337,136.11055 179.144784,136.970412 L187.175944,136.970412 C186.346965,136.11055 185.845124,135.31064 185.845124,133.918075 L185.845124,121.092095 L187.854199,121.092095 Z"/>
    <path stroke="#60553E" stroke-linejoin="round" stroke-width=".095" d="M187.854199,121.092095 C189.488178,121.092095 189.851284,121.359303 190.834412,122.868343 L193.218582,117.417986 L175.404103,117.417986 L172.874348,123.342808 C174.487773,122.099263 175.983018,121.081818 177.707773,121.081818 L180.470465,121.092095 L180.470465,133.918075 C180.470465,135.31064 179.970337,136.11055 179.144784,136.970412 L187.175944,136.970412 C186.346965,136.11055 185.845124,135.31064 185.845124,133.918075 L185.845124,121.092095 L187.854199,121.092095 Z"/>
    <path fill="#60553E" d="M8.65691702 117.499176L6.73690638 117.499176 6.73690638 127.42184 9.02173617 127.42184C11.6491191 127.42184 14.1771617 126.375275 14.1771617 122.21985 14.1771617 118.42584 11.4333106 117.499176 8.65691702 117.499176M9.66059787 129.723939L6.73690638 129.723939 6.73690638 133.543642C6.73690638 135.035552 7.10172553 135.775513 7.34836383 136.109523L2.1021617 136.109523C2.3385234 135.775513 2.77185319 135.035552 2.77185319 133.543642L2.77185319 117.804067C2.77185319 116.312156 2.3385234 115.59275 2.1021617 115.248463L9.66059787 115.248463C15.0352574 115.248463 18.3306191 117.934246 18.3306191 122.245543 18.3306191 127.361889 14.1497574 129.723939 9.66059787 129.723939M37.6894989 120.479915L31.2940309 135.49837C29.4322543 139.873044 27.7794351 142.3824 24.0301904 142.3824 21.7761904 142.3824 20.1627649 141.157697 19.3354989 140.338945L20.3391798 138.19443C21.3137436 139.873044 22.5726266 140.571895 24.1483713 140.571895 26.3218713 140.571895 27.6903713 138.718568 29.0982649 135.340786L22.3465415 120.479915C21.9046479 119.493301 21.4713181 118.662558 20.9797543 118.268598L26.2636372 118.268598C26.0769457 118.749915 26.0769457 119.155865 26.6284564 120.479915L31.0473926 130.787974 35.3173181 120.479915C35.7797649 119.402519 35.8979457 118.900648 35.6821372 118.268598L38.8901479 118.268598C38.398584 118.900648 38.0937117 119.52242 37.6894989 120.479915M50.5033862 119.6502C46.4783862 119.6502 44.7073862 123.440784 44.7073862 127.183408 44.7073862 132.626913 47.9342372 134.757725 50.5033862 134.757725 53.0331415 134.757725 54.646567 133.543299 55.9260032 131.88524L56.5751415 133.325764C54.9925457 135.44116 52.5706947 136.477448 49.9827053 136.477448 43.9383543 136.477448 40.829684 132.289477 40.829684 127.183408 40.829684 121.664537 44.4607479 117.933903 50.2875777 117.933903 52.4816309 117.933903 53.8004606 118.526556 54.9531521 118.526556 55.6605245 118.526556 56.0835777 118.456329 56.6059713 118.21824L55.1689606 121.51723C54.1361628 120.232576 52.5706947 119.6502 50.5033862 119.6502M68.8094287 119.6502C64.7741521 119.6502 63.011716 123.440784 63.011716 127.183408 63.011716 132.626913 66.2402798 134.757725 68.8094287 134.757725 71.3289074 134.757725 72.9526096 133.543299 74.2320457 131.88524L74.8709074 133.325764C73.2865989 135.44116 70.8767372 136.477448 68.2870351 136.477448 62.2443968 136.477448 59.1357266 132.289477 59.1357266 127.183408 59.1357266 121.664537 62.7667904 117.933903 68.5936202 117.933903 70.7876734 117.933903 72.0962266 118.526556 73.2574819 118.526556 73.9562904 118.526556 74.3896202 118.456329 74.9017372 118.21824L73.4647266 121.51723C72.430216 120.232576 70.8767372 119.6502 68.8094287 119.6502M83.2274926 120.479915C83.2274926 119.195261 83.5614819 118.573489 83.7772904 118.268598L79.0243649 118.268598C79.2316096 118.573489 79.5655989 119.195261 79.5655989 120.479915L79.5655989 133.919103C79.5655989 135.193479 79.2316096 135.804974 79.0243649 136.109865L83.7772904 136.109865C83.5614819 135.804974 83.2274926 135.193479 83.2274926 133.919103L83.2274926 120.479915z"/>
    <path fill="#60553E" d="M95.9226851 136.109865C95.4311213 135.745024 94.6329723 134.885162 93.815983 133.919103L87.3314511 126.050172 93.1754085 120.479915C94.4565574 119.244935 94.8796106 118.820143 95.6469298 118.268598L90.7655468 118.268598C91.130366 118.791024 91.2485468 119.402519 90.1558021 120.479915L83.4143553 126.910034 89.2411851 133.919103C90.2140362 135.102697 90.2140362 135.597717 89.8509298 136.109865L95.9226851 136.109865zM112.052659 136.109865C112.268467 135.804974 112.564776 135.193479 112.564776 133.919103L112.564776 123.936489 104.543893 133.453202 104.543893 133.919103C104.543893 135.193479 104.879595 135.804974 105.103967 136.109865L100.342478 136.109865C100.54801 135.804974 100.892276 135.193479 100.892276 133.919103L100.892276 120.479915C100.892276 119.195261 100.54801 118.573489 100.342478 118.268598L105.103967 118.268598C104.879595 118.573489 104.543893 119.195261 104.543893 120.479915L104.543893 130.392301 112.564776 120.873875 112.564776 120.479915C112.564776 119.195261 112.268467 118.573489 112.052659 118.268598L116.74735 118.268598C116.531541 118.573489 116.235233 119.195261 116.235233 120.479915L116.235233 133.919103C116.235233 135.193479 116.531541 135.804974 116.74735 136.109865L112.052659 136.109865zM134.875607 136.109865C135.072576 135.804974 135.387724 135.193479 135.387724 133.919103L135.387724 123.936489 127.358278 133.453202 127.358278 133.919103C127.358278 135.193479 127.702544 135.804974 127.908076 136.109865L123.144873 136.109865C123.370959 135.804974 123.696384 135.193479 123.696384 133.919103L123.696384 120.479915C123.696384 119.195261 123.370959 118.573489 123.144873 118.268598L127.908076 118.268598C127.702544 118.573489 127.358278 119.195261 127.358278 120.479915L127.358278 130.392301 135.387724 120.873875 135.387724 120.479915C135.387724 119.195261 135.072576 118.573489 134.875607 118.268598L139.560022 118.268598C139.344214 118.573489 139.039341 119.195261 139.039341 120.479915L139.039341 133.919103C139.039341 135.193479 139.344214 135.804974 139.560022 136.109865L134.875607 136.109865zM131.391841 115.461202C128.310576 115.461202 127.022576 114.287885 127.022576 113.19336 127.022576 112.607558 127.327448 111.939539 127.800171 111.543865L129.405033 111.543865C129.129278 111.968657 128.980267 112.312945 128.980267 112.855925 128.980267 113.457143 129.708193 114.594489 131.391841 114.594489 133.065214 114.594489 133.774299 113.457143 133.774299 112.855925 133.774299 112.312945 133.616724 111.968657 133.340969 111.543865L134.954395 111.543865C135.416841 111.939539 135.723427 112.607558 135.723427 113.19336 135.723427 114.287885 134.473107 115.461202 131.391841 115.461202zM166.270607 116.776516C161.546799 116.776516 159.195171 121.209427 159.195171 125.614932 159.195171 132.012506 163.257852 134.52015 166.270607 134.52015 169.242256 134.52015 171.153703 133.108744 172.648948 131.15607L173.416267 132.841536C171.556203 135.340615 168.723288 136.544763 165.669427 136.544763 158.595703 136.544763 154.892703 131.606555 154.892703 125.614932 154.892703 119.128288 159.164341 114.743338 165.996565 114.743338 168.593118 114.743338 170.127756 115.42506 171.496256 115.42506 172.352639 115.42506 172.833927 115.354833 173.445384 115.087625L171.742895 118.967278C170.521693 117.468516 168.723288 116.776516 166.270607 116.776516M190.639156 121.209255C189.900954 120.262038 188.82705 120.232919 187.854199 120.232919L184.990454 120.232919 184.990454 133.91876C184.990454 135.193137 185.324444 135.804632 185.540252 136.109523L180.77705 136.109523C180.994571 135.804632 181.328561 135.193137 181.328561 133.91876L181.328561 120.232919 178.916986 120.232919C177.579316 120.232919 176.29988 120.065057 174.674465 121.209255L175.955614 118.268255 191.908316 118.268255 190.639156 121.209255zM200.450736 122.701338L197.203332 130.05812 203.658747 130.05812 200.450736 122.701338zM205.48113 136.109694C205.696938 135.804803 205.88363 135.102526 205.35096 133.918932L204.504853 131.954268 196.365789 131.954268 195.500843 133.918932C194.980162 135.102526 195.175417 135.804803 195.382662 136.109694L191.818396 136.109694C192.214045 135.715734 192.637098 135.193308 193.217726 133.918932L199.289481 120.104625 199.231247 119.974447C198.866428 119.128288 198.463928 118.633268 198.039162 118.268427L202.428981 118.268427 209.288609 133.918932C209.879513 135.193308 210.302566 135.715734 210.694789 136.109694L205.48113 136.109694zM225.645352 136.109865C225.861161 135.804974 226.196863 135.193479 226.196863 133.919103L226.196863 127.88637 218.696661 127.88637 218.696661 133.919103C218.696661 135.193479 219.06148 135.804974 219.249884 136.109865L214.484969 136.109865C214.700778 135.804974 215.03648 135.193479 215.03648 133.919103L215.03648 120.479915C215.03648 119.195261 214.700778 118.573489 214.484969 118.268598L219.249884 118.268598C219.06148 118.573489 218.696661 119.195261 218.696661 120.479915L218.696661 125.919994 226.196863 125.919994 226.196863 120.479915C226.196863 119.195261 225.861161 118.573489 225.645352 118.268598L230.408554 118.268598C230.221863 118.573489 229.857044 119.195261 229.857044 120.479915L229.857044 133.919103C229.857044 135.193479 230.221863 135.804974 230.408554 136.109865L225.645352 136.109865zM246.243761 120.232405L241.609016 120.232405C241.028388 120.232405 240.574505 120.688029 240.574505 121.239573L240.574505 128.469603C240.574505 131.085157 240.202835 132.962464 239.077548 134.156336L245.20925 134.156336C245.79159 134.156336 246.243761 133.690435 246.243761 133.109771L246.243761 120.232405zM246.952846 136.110722L239.718122 136.110722C238.380452 136.110722 236.155569 136.605742 234.531867 137.739662L234.531867 135.163504C237.64225 133.731544 238.310229 131.825118 238.310229 128.469603L238.310229 120.480771C238.310229 119.196118 237.977952 118.572633 237.760431 118.269454L250.457165 118.269454C250.239644 118.572633 249.905654 119.196118 249.905654 120.480771L249.905654 132.141999C249.905654 133.41295 250.436612 134.500623 252.130537 135.062445L252.130537 137.739662C250.515399 136.605742 248.290516 136.110722 246.952846 136.110722zM264.274733 122.701338L261.035893 130.05812 267.482744 130.05812 264.274733 122.701338zM269.303414 136.109694C269.520935 135.804803 269.69735 135.102526 269.185233 133.918932L268.339127 131.954268 260.17951 131.954268 259.323127 133.918932C258.812722 135.102526 258.999414 135.804803 259.204946 136.109694L255.642393 136.109694C256.036329 135.715734 256.469659 135.193308 257.050286 133.918932L263.122041 120.104625 263.043254 119.974447C262.690424 119.128288 262.294776 118.633268 261.863159 118.268427L266.251265 118.268427 273.112605 133.918932C273.693233 135.193308 274.116286 135.715734 274.518786 136.109694L269.303414 136.109694zM284.193859 120.192152L282.511922 120.192152 282.511922 128.676004 284.498731 128.676004C286.713337 128.676004 288.739539 127.766469 288.739539 124.203697 288.739539 120.964657 286.576316 120.192152 284.193859 120.192152M285.039965 130.640667L282.511922 130.640667 282.511922 133.919103C282.511922 135.193479 282.883593 135.804974 283.06172 136.109865L278.308795 136.109865C278.516039 135.804974 278.850029 135.193479 278.850029 133.919103L278.850029 120.479915C278.850029 119.195261 278.516039 118.573489 278.308795 118.268598L285.039965 118.268598C289.655869 118.268598 292.459667 120.539865 292.459667 124.239667 292.459667 128.605776 288.88855 130.640667 285.039965 130.640667M310.057652 121.209255C309.317737 120.262038 308.257535 120.232919 307.281259 120.232919L304.724099 120.232919 304.724099 133.91876C304.724099 135.193137 305.047812 135.804632 305.26362 136.109523L300.512407 136.109523C300.728216 135.804632 301.051929 135.193137 301.051929 133.91876L301.051929 120.232919 298.957216 120.232919C297.605844 120.232919 296.32812 120.065057 294.712982 121.209255L295.994131 118.268255 311.337088 118.268255 310.057652 121.209255zM319.861011 121.881729C319.239277 122.503501 318.377755 122.892323 317.428883 122.892323 316.480011 122.892323 315.615064 122.503501 314.991617 121.881729 314.369883 121.256531 313.981085 120.396669 313.981085 119.4426 313.981085 118.491956 314.369883 117.635521 314.99333 117.013749 315.616777 116.391976 316.480011 116.00658 317.428883 116.00658 318.377755 116.00658 319.237564 116.391976 319.857585 117.013749 320.479319 117.633808 320.864691 118.491956 320.864691 119.4426 320.864691 120.396669 320.481032 121.259956 319.861011 121.881729M317.428883 122.513778C318.273277 122.513778 319.040596 122.169491 319.593819 121.614521 320.147043 121.05955 320.487883 120.292184 320.487883 119.4426 320.487883 118.596442 320.147043 117.834214 319.593819 117.277531 319.040596 116.725986 318.273277 116.381699 317.428883 116.381699 316.582777 116.381699 315.813745 116.725986 315.257096 117.280956 314.70216 117.834214 314.357894 118.596442 314.357894 119.4426 314.357894 120.292184 314.70216 121.05955 315.257096 121.614521 315.813745 122.169491 316.582777 122.513778 317.428883 122.513778"/>
    <path fill="#60553E" d="M316.779916,119.392584 L317.567788,119.392584 C317.783597,119.392584 318.196373,119.29495 318.196373,118.662901 C318.196373,118.147327 317.930895,117.981178 317.507841,117.981178 L316.779916,117.981178 L316.779916,119.392584 Z M316.267799,117.52898 L317.588341,117.52898 C317.989129,117.52898 318.737607,117.595782 318.737607,118.613228 C318.737607,119.195604 318.441299,119.512485 318.098746,119.599842 L318.098746,119.630673 C318.598873,119.747149 318.63998,120.175366 318.648544,120.596733 C318.660533,121.16198 318.648544,121.329842 318.766724,121.557653 L318.254607,121.557653 C318.136427,121.369238 318.136427,121.239059 318.136427,120.708069 C318.127863,120.33295 318.136427,119.848208 317.518118,119.848208 L316.779916,119.848208 L316.779916,121.557653 L316.267799,121.557653 L316.267799,117.52898 Z"/>
  </g>
</svg>
