<svg xmlns="http://www.w3.org/2000/svg" width="669" height="74" viewBox="0 0 669 74">
  <g fill="none" fill-rule="evenodd" stroke="#2C2C2B" transform="translate(1 .55)">
    <path fill="#E11E22" d="M136.732 64.203C136.296 64.091 135.754 64.04 135.095 64.04L134.031 64.04 124.164 64.535C119.381 64.535 115.168 64.01 111.528 62.972 107.287 61.786 103.558 59.855 100.353 57.186 96.879 54.307 94.262 50.864 92.502 46.877 90.71 42.889 89.848 38.572 89.848 33.951 89.848 30.254 90.526 26.739 91.882 23.392 93.237 20.044 95.27 17.255 97.961 15.043 100.655 12.802 103.703 11.194 107.17 10.221 110.619 9.238 114.296 8.754 118.218 8.754L127.176 9.492 129.799 9.735C130.613 9.735 131.261 9.612 131.754 9.366 132.24 9.121 132.645 8.667 132.974 8.022L136.732 23.433 136.073 23.677C134.601 20.31 132.239 17.686 128.976 15.806 125.713 13.937 122.129 12.993 118.218 12.993 115.332 12.993 112.835 13.399 110.665 14.222 108.526 15.043 106.608 16.44 104.885 18.461 103.171 20.467 101.864 22.758 100.963 25.345 100.073 27.934 99.618 30.605 99.618 33.375 99.618 40.716 101.854 46.971 106.309 52.127 110.995 57.564 116.949 60.291 124.163 60.291 128.308 60.291 131.871 59.168 134.891 56.901 137.914 54.643 140.334 51.54 142.183 47.57L143.006 47.889 136.732 64.203zM176.102 60.291C181.544 60.291 185.862 58.194 189.076 54.002 192.058 50.147 193.559 45.423 193.559 39.821 193.56 32.585 191.458 26.313 187.275 20.989 183.084 15.647 178.125 12.995 172.355 12.995 166.875 12.995 162.575 15.137 159.476 19.435 156.649 23.355 155.225 28.166 155.225 33.871 155.246 40.605 156.988 46.533 160.532 51.638 164.502 57.406 169.691 60.291 176.101 60.291L176.102 60.291zM154.171 57.025C151.402 54.415 149.252 51.353 147.721 47.809 146.202 44.28 145.446 40.605 145.446 36.805 145.447 28.712 148.206 22.012 153.725 16.703 159.243 11.409 166.08 8.756 174.233 8.756 182.599 8.756 189.541 11.429 195.06 16.783 200.59 22.14 203.338 28.998 203.338 37.372 203.34 45.154 200.406 51.664 194.527 56.942 188.874 62.004 182.104 64.529 174.233 64.529 170.37 64.529 166.747 63.923 163.349 62.694 159.95 61.474 156.891 59.581 154.17 57.025L154.171 57.025zM224.138 53.27C224.138 56.049 224.497 57.812 225.184 58.582 225.9 59.336 227.661 59.724 230.499 59.724 233.008 59.724 235.359 59.53 237.587 59.148 239.814 58.767 241.798 58.034 243.503 56.94 245.208 55.855 246.582 54.314 247.618 52.294 248.655 50.291 249.168 48.247 249.168 46.167 249.168 42.653 247.869 39.409 245.246 36.468 243.02 33.919 240.085 31.888 236.434 30.356L224.138 35.008 224.138 53.27zM224.138 31.184C228.757 29.821 232.581 28.347 235.631 26.772 240.685 24.103 243.212 21.281 243.212 18.3 243.214 16.226 241.935 14.845 239.369 14.131 237.965 13.753 235.815 13.562 232.94 13.562 230.868 13.562 229.172 13.643 227.845 13.806 226.51 13.975 225.542 14.44 224.952 15.198 224.613 15.569 224.398 16.313 224.293 17.395 224.196 18.48 224.138 19.458 224.138 20.33L224.138 31.184zM239.795 9.812C243.552 9.812 246.311 10.115 248.103 10.702 251.317 11.746 252.914 13.753 252.914 16.746 252.914 19.516 251.491 21.992 248.673 24.162 247.744 24.873 245.121 26.393 240.773 28.735 245.778 30.356 249.786 32.559 252.827 35.328 256.575 38.759 258.453 42.753 258.453 47.323 258.453 54.227 255.326 58.871 249.081 61.266 246.137 62.406 242.903 63.059 239.339 63.219 235.775 63.384 232.765 63.471 230.334 63.471L209.866 63.471 209.866 62.733C211.648 62.465 212.983 61.748 213.864 60.572 214.726 59.397 215.161 57.008 215.161 53.353L215.163 20.49C215.163 16.642 214.755 14.085 213.941 12.82 213.118 11.582 211.763 10.819 209.866 10.545L209.866 9.812 239.795 9.812zM269.056 20.49C269.056 16.694 268.659 14.149 267.836 12.869 267.022 11.593 265.666 10.821 263.769 10.547L263.77 9.812 283.319 9.812 283.319 10.547C281.537 10.702 280.211 11.385 279.33 12.584 278.457 13.784 278.021 16.229 278.021 19.938L278.023 29.908 285.052 24.263C288.808 21.164 291.462 18.761 293.03 17.079 294.978 15.019 295.964 13.496 295.964 12.508 295.964 11.799 295.78 11.32 295.432 11.087 295.083 10.833 294.522 10.651 293.756 10.547L293.758 9.812 313.412 9.812 313.412 10.547C310.654 10.547 307.894 11.385 305.181 13.074 304.476 13.511 302.132 15.334 298.162 18.545L292.043 23.593C296.013 27.292 299.518 31.571 302.577 36.403 305.395 40.803 307.894 45.751 310.062 51.242L311.612 54.979C312.705 57.651 313.412 59.259 313.741 59.799 314.827 61.543 316.182 62.525 317.808 62.736L317.809 63.474 299.886 63.474 299.886 62.736C301.775 62.465 302.732 61.399 302.732 59.554 302.732 57.545 302.015 54.793 300.602 51.309 299.577 48.819 298.279 46.224 296.729 43.531 295.181 40.843 293.543 38.34 291.79 36.03 290.068 33.716 288.054 31.308 285.767 28.809L278.023 35.008 278.023 52.784C278.023 55.94 278.235 58.112 278.671 59.31 279.446 61.37 280.995 62.525 283.318 62.736L283.319 63.474 263.77 63.474 263.77 62.736C266.036 62.348 267.565 61.243 268.321 59.386 268.814 58.191 269.056 56.184 269.056 53.353L269.056 20.49zM349.122 60.291C354.565 60.291 358.883 58.194 362.087 54.002 365.081 50.147 366.57 45.423 366.57 39.821 366.572 32.585 364.479 26.313 360.296 20.989 356.104 15.647 351.136 12.995 345.366 12.995 339.875 12.995 335.596 15.137 332.488 19.435 329.67 23.355 328.256 28.166 328.256 33.871 328.256 40.605 330.009 46.533 333.553 51.638 337.513 57.406 342.713 60.291 349.122 60.291zM327.191 57.025C324.423 54.415 322.273 51.353 320.742 47.809 319.223 44.28 318.467 40.605 318.467 36.805 318.467 28.712 321.236 22.012 326.746 16.703 332.256 11.409 339.091 8.756 347.253 8.756 355.62 8.756 362.553 11.429 368.081 16.783 373.611 22.14 376.36 28.998 376.36 37.372 376.361 45.154 373.427 51.664 367.548 56.942 361.895 62.004 355.135 64.529 347.253 64.529 343.4 64.529 339.759 63.923 336.371 62.694 332.973 61.474 329.902 59.581 327.191 57.025zM393.645 15.442L393.645 52.788C393.645 55.938 393.857 58.114 394.283 59.314 395.049 61.375 396.597 62.522 398.94 62.737L398.941 63.471 383.052 63.471 383.052 62.737C385.328 62.406 386.856 61.323 387.612 59.477 388.105 58.28 388.347 56.235 388.347 53.353L388.348 20.49C388.348 16.642 387.931 14.085 387.117 12.82 386.305 11.582 384.939 10.819 383.05 10.545L383.052 9.812 403.676 9.812 403.676 10.545C402.745 10.761 402.28 11.32 402.28 12.179 402.282 12.891 402.648 13.881 403.355 15.198L412.699 32.278 421.985 17.221C423.419 14.933 424.135 13.288 424.135 12.252 424.135 11.337 423.65 10.761 422.672 10.545L422.672 9.812 442.242 9.812 442.242 10.545C439.956 10.923 438.426 12.046 437.671 13.891 437.188 15.091 436.935 17.1 436.935 19.922L436.935 52.788C436.935 56.592 437.341 59.128 438.164 60.409 438.97 61.692 440.334 62.465 442.241 62.737L442.242 63.471 422.672 63.471 422.672 62.737C424.957 62.465 426.468 61.404 427.242 59.554 427.717 58.302 427.969 56.235 427.969 53.353L427.97 15.442 410.115 44.394 393.645 15.442z"/>
    <path fill="#144689" d="M462.875 53.621C462.875 56.714 463.127 58.502 463.62 58.978 464.095 59.477 466.197 59.724 469.886 59.724 474.949 59.724 478.919 58.606 481.804 56.385 484.681 54.159 486.113 51.316 486.113 47.845 486.114 43.51 484.37 39.929 480.895 37.122 476.771 33.76 470.757 32.082 462.875 32.082L462.875 53.621zM453.909 19.925C453.909 17.1 453.696 15.116 453.25 13.968 452.495 12.017 450.975 10.872 448.7 10.545L448.7 9.812 482.618 9.812 484.158 9.812C484.982 9.812 485.639 9.744 486.162 9.606 486.676 9.472 487.091 9.19 487.421 8.754L491.411 24.89 490.684 25.141C489.165 21.24 486.849 18.393 483.723 16.674 480.625 14.932 476.537 14.058 471.492 14.058 467.494 14.058 465.035 14.203 464.172 14.498 463.312 14.808 462.875 15.663 462.875 17.09L462.875 18.683 462.875 20.531 462.875 28.407C473.315 28.407 481.525 30.438 487.499 34.515 492.892 38.136 495.573 42.67 495.573 48.09 495.575 53.041 493.811 56.775 490.277 59.317 486.473 62.081 480.711 63.471 472.995 63.471L448.613 63.471 448.613 62.733C450.404 62.465 451.739 61.748 452.592 60.573 453.475 59.397 453.909 57.011 453.909 53.353L453.909 19.925zM523.374 15.984L515.985 35.503C519.182 35.503 522.191 36.03 525 37.088 527.837 38.16 530.316 39.801 532.416 42.023L523.374 15.984zM510.041 52.552C509.595 53.802 509.245 54.858 509.042 55.729 508.821 56.603 508.703 57.473 508.703 58.344 508.704 59.637 509.14 60.701 510.002 61.51 510.883 62.327 511.938 62.736 513.186 62.736L513.187 63.474 496.551 63.474 496.551 62.736C497.531 62.525 498.333 62.231 498.953 61.879 499.583 61.523 500.202 60.905 500.832 60.043 501.462 59.165 502.129 57.983 502.846 56.451 503.319 55.369 503.862 54.057 504.453 52.552L517.591 17.887C518.029 16.694 518.338 15.803 518.522 15.198 518.716 14.605 518.823 13.912 518.823 13.163 518.823 12.45 518.581 11.881 518.125 11.451 517.66 11.006 517.05 10.702 516.294 10.54L516.296 9.812 534.402 9.812 534.402 10.54C532.804 10.983 532.029 11.961 532.029 13.486 532.031 13.912 532.097 14.406 532.223 14.953 532.37 15.488 532.542 16.059 532.755 16.674L546.698 56.777C547.087 57.768 547.482 58.729 547.928 59.724 548.743 61.29 549.991 62.297 551.675 62.736L551.675 63.474 533.172 63.474 533.172 62.736C534.586 62.406 535.592 61.755 536.212 60.784 536.852 59.799 537.171 58.552 537.171 57.035 537.171 53.011 535.079 49.175 530.887 45.541 526.335 41.571 520.961 39.591 514.774 39.591L510.041 52.552zM568.961 52.786C568.961 55.94 569.181 58.114 569.618 59.31 570.384 61.373 571.922 62.519 574.256 62.736L574.275 63.468 554.698 63.468 554.698 62.736C556.489 62.466 557.824 61.745 558.696 60.576 559.558 59.397 560.002 57.005 560.002 53.35L560.003 20.491C560.003 16.642 559.587 14.082 558.774 12.823 557.95 11.579 556.594 10.824 554.697 10.54L554.698 9.814 574.275 9.814 574.275 10.54C571.982 10.824 570.45 11.881 569.705 13.73 569.201 14.977 568.959 17.046 568.959 19.921L568.961 24.731 593.272 24.731 593.272 20.491C593.272 17.231 593.05 14.977 592.605 13.73 591.898 11.608 590.348 10.54 587.967 10.54L587.967 9.814 607.534 9.814 607.534 10.54C605.24 10.824 603.721 11.911 602.974 13.808 602.471 15.063 602.229 17.103 602.229 19.921L602.229 52.786C602.229 55.878 602.452 58.039 602.877 59.225 603.643 61.29 605.192 62.466 607.534 62.736L607.534 63.468 587.967 63.468 587.967 62.736C590.232 62.736 591.761 61.758 592.536 59.802 593.012 58.542 593.272 56.402 593.272 53.35L593.272 28.655 568.961 28.655 568.961 52.786zM618.709 20.49C618.709 16.694 618.302 14.149 617.48 12.869 616.656 11.593 615.31 10.821 613.403 10.547L613.404 9.812 632.973 9.812 632.973 10.547C631.181 10.702 629.844 11.385 628.982 12.584 628.102 13.784 627.665 16.229 627.665 19.938L627.667 29.908 634.695 24.263C638.452 21.164 641.096 18.761 642.693 17.079 644.63 15.019 645.598 13.496 645.598 12.508 645.598 11.799 645.434 11.32 645.084 11.087 644.717 10.833 644.165 10.651 643.4 10.547L643.402 9.812 663.066 9.812 663.066 10.547C660.288 10.547 657.546 11.385 654.825 13.074 654.119 13.511 651.786 15.334 647.816 18.545L641.687 23.593C645.657 27.292 649.161 31.571 652.221 36.403 655.039 40.803 657.546 45.751 659.726 51.242L661.274 54.979C662.349 57.651 663.066 59.259 663.385 59.799 664.462 61.543 665.834 62.525 667.452 62.736L667.453 63.474 649.53 63.474 649.53 62.736C651.419 62.465 652.376 61.399 652.376 59.554 652.376 57.545 651.669 54.793 650.265 51.309 649.23 48.819 647.932 46.224 646.382 43.531 644.842 40.843 643.187 38.34 641.454 36.03 639.711 33.716 637.696 31.308 635.411 28.809L627.667 35.008 627.667 52.784C627.667 55.94 627.889 58.112 628.315 59.31 629.08 61.37 630.639 62.525 632.972 62.736L632.973 63.474 613.404 63.474 613.404 62.736C615.68 62.348 617.209 61.243 617.953 59.386 618.458 58.191 618.709 56.184 618.709 53.353L618.709 20.49zM43.583 1.043L43.583 19.73 36.38 19.73C27.25 19.73 19.851 27.131 19.851 36.277 19.851 45.417 27.248 52.823 36.38 52.823L43.583 52.823 43.583 71.505C59.986 68.174 72.322 53.667 72.322 36.277 72.322 18.877 59.986 4.377 43.583 1.043z"/>
    <path fill="#E11E22" d="M36.38,58.565 C24.083,58.565 14.099,48.586 14.099,36.273 C14.1,23.965 24.082,13.988 36.38,13.988 L37.823,13.988 L37.823,0.356 C37.348,0.335 36.863,0.323 36.38,0.323 C16.53,0.323 0.4366,16.42 0.4366,36.273 C0.438,56.132 16.53,72.229 36.38,72.229 C36.865,72.229 37.348,72.205 37.823,72.193 L37.823,58.565 L36.38,58.565 Z"/>
  </g>
</svg>
