<svg id="Layer_1" xmlns="http://www.w3.org/2000/svg" width="200" height="34" viewBox="0 0 200 34"><style>.st0{filter:url(#Adobe_OpacityMaskFilter)}.st1{fill:#fff}.st2{mask:url(#c);fill:url(#SVGID_1_)}.st3{filter:url(#Adobe_OpacityMaskFilter_1_)}.st4{mask:url(#f);fill:url(#SVGID_2_)}.st5{filter:url(#Adobe_OpacityMaskFilter_2_)}.st6{mask:url(#i);fill:url(#SVGID_3_)}.st7{filter:url(#Adobe_OpacityMaskFilter_3_)}.st8{mask:url(#l);fill:url(#SVGID_4_)}.st9{filter:url(#Adobe_OpacityMaskFilter_4_)}.st10{mask:url(#o);fill:url(#SVGID_5_)}.st11{fill:#010101}</style><g transform="translate(0 4)"><defs><filter id="Adobe_OpacityMaskFilter" filterUnits="userSpaceOnUse" x="-3" y="-1" width="12" height="28"><feColorMatrix values="1 0 0 0 0 0 1 0 0 0 0 0 1 0 0 0 0 0 1 0"/></filter></defs><mask maskUnits="userSpaceOnUse" x="-3" y="-1" width="12" height="28" id="c"><g class="st0"><path id="a" class="st1" d="M0 3.9v14.5c2.3 4.3 6.8 7.3 12 7.4-4.1-.2-7.4-3.5-7.4-7.6V1.8C4.6.8 5.4 0 6.4 0 3.6 0 1.2.6 0 2.9"/></g></mask><linearGradient id="SVGID_1_" gradientUnits="userSpaceOnUse" x1="-187.417" y1="396.357" x2="-187.417" y2="395.763" gradientTransform="matrix(12 0 0 -28 2252 11101)"><stop offset="0" stop-color="#5c1a52"/><stop offset=".25" stop-color="#a51c45"/><stop offset=".4" stop-color="#bd1e35"/><stop offset=".51" stop-color="#d12027"/><stop offset=".65" stop-color="#b41d3b"/><stop offset=".74" stop-color="#a51c45"/><stop offset=".81" stop-color="#8e1b49"/><stop offset=".93" stop-color="#6a1a50"/><stop offset="1" stop-color="#5c1a52"/></linearGradient><path class="st2" d="M-3-1H9v28H-3V-1z"/></g><defs><filter id="Adobe_OpacityMaskFilter_1_" filterUnits="userSpaceOnUse" x="-2.9" y="-3.9" width="18.9" height="17.8"><feColorMatrix values="1 0 0 0 0 0 1 0 0 0 0 0 1 0 0 0 0 0 1 0"/></filter></defs><mask maskUnits="userSpaceOnUse" x="-2.9" y="-3.9" width="18.9" height="17.8" id="f"><g class="st3"><path id="d" class="st1" d="M6.4 0C2.9 0 0 2.9 0 6.4v2.1c1.2-2.4 3.7-3.9 6.4-3.9h4.5c1.3 0 2.3-1 2.3-2.3 0-1.3-1-2.3-2.3-2.3H6.4z"/></g></mask><linearGradient id="SVGID_2_" gradientUnits="userSpaceOnUse" x1="-202.251" y1="380.568" x2="-201.459" y2="380.568" gradientTransform="matrix(13.7973 -5.8851 -5.1004 -11.9577 4732.096 3368.043)"><stop offset="0" stop-color="#e21e26"/><stop offset=".12" stop-color="#ca1d32"/><stop offset=".25" stop-color="#b51d3d"/><stop offset=".38" stop-color="#a91c43"/><stop offset=".5" stop-color="#a51c45"/><stop offset=".59" stop-color="#931c48"/><stop offset=".75" stop-color="#751b4e"/><stop offset=".9" stop-color="#631a51"/><stop offset="1" stop-color="#5c1a52"/></linearGradient><path class="st4" d="M-2.9 2l13.8-5.9 5.1 12L2.2 14-2.9 2z"/><g transform="translate(31 4)"><defs><filter id="Adobe_OpacityMaskFilter_2_" filterUnits="userSpaceOnUse" x="1" y="0" width="13" height="26"><feColorMatrix values="1 0 0 0 0 0 1 0 0 0 0 0 1 0 0 0 0 0 1 0"/></filter></defs><mask maskUnits="userSpaceOnUse" x="1" y="0" width="13" height="26" id="i"><g class="st5"><path id="g" class="st1" d="M6.1 6.4c0 .4 0 .7-.1 1.1-.1.7-.4 1.4-.8 2-.7 1.1-.5 2.3.5 2.9.7.4 1.3.8 1.8 1.4 1.2 1.3 1.9 3.1 1.9 4.9 0 3.6-2.7 6.7-6.1 7.1 4.9-.2 9-3.1 10.7-7.2 0-3.3-1.5-6.5-3.9-8.7.4-1.1.6-2.2.6-3.4 0-.6-.1-1.8-.3-2.5C8 1.8 4.7.4 1.2.4H.9c2.8.1 5.2 3.1 5.2 6z"/></g></mask><linearGradient id="SVGID_3_" gradientUnits="userSpaceOnUse" x1="-219.731" y1="395.323" x2="-219.731" y2="394.689" gradientTransform="matrix(13 0 0 -26 2864 10282)"><stop offset="0" stop-color="#5c1a52"/><stop offset=".2" stop-color="#931b48"/><stop offset=".26" stop-color="#a51c45"/><stop offset=".5" stop-color="#d12027"/><stop offset=".58" stop-color="#bd1e35"/><stop offset=".68" stop-color="#ab1d41"/><stop offset=".75" stop-color="#a51c45"/><stop offset=".78" stop-color="#9b1c47"/><stop offset=".93" stop-color="#6d1a4f"/><stop offset="1" stop-color="#5c1a52"/></linearGradient><path class="st6" d="M1 0h13v26H1V0z"/></g><defs><filter id="Adobe_OpacityMaskFilter_3_" filterUnits="userSpaceOnUse" x="-7.4" y="-12.7" width="64.8" height="62.5"><feColorMatrix values="1 0 0 0 0 0 1 0 0 0 0 0 1 0 0 0 0 0 1 0"/></filter></defs><mask maskUnits="userSpaceOnUse" x="-7.4" y="-12.7" width="64.8" height="62.5" id="l"><g class="st7"><path id="j" class="st1" d="M31.8 0c4.8 0 8.8 3.5 9.6 8.1-2.5-2.2-5.7-3.6-9.2-3.6h-7.4v17.2c0 6.7-5.6 12.2-12.4 12.2-6.8 0-12.3-5.4-12.4-12 2.3 4.3 6.8 7.3 12 7.4h.4c4.3 0 7.8-3.4 7.8-7.6V0h11.6z"/></g></mask><linearGradient id="SVGID_4_" gradientUnits="userSpaceOnUse" x1="-203.926" y1="404.414" x2="-203.077" y2="404.414" gradientTransform="matrix(47.3792 -18.8736 -17.3933 -43.6632 16701.17 13835.607)"><stop offset="0" stop-color="#219cd8"/><stop offset=".15" stop-color="#2299d5"/><stop offset=".26" stop-color="#2690cc"/><stop offset=".36" stop-color="#2d81bc"/><stop offset=".45" stop-color="#376ba5"/><stop offset=".53" stop-color="#444f88"/><stop offset=".61" stop-color="#532d65"/><stop offset=".65" stop-color="#5c1a52"/><stop offset=".69" stop-color="#661a50"/><stop offset=".75" stop-color="#821b4b"/><stop offset=".82" stop-color="#a51c45"/><stop offset=".96" stop-color="#d41e2d"/><stop offset="1" stop-color="#e21e26"/></linearGradient><path class="st8" d="M-7.4 6.2L40-12.7 57.4 31 10 49.8-7.4 6.2z"/><g transform="translate(24 22)"><defs><filter id="Adobe_OpacityMaskFilter_4_" filterUnits="userSpaceOnUse" x="0" y="0" width="23" height="13"><feColorMatrix values="1 0 0 0 0 0 1 0 0 0 0 0 1 0 0 0 0 0 1 0"/></filter></defs><mask maskUnits="userSpaceOnUse" x="0" y="0" width="23" height="13" id="o"><g class="st9"><path id="m" class="st1" d="M10.4 7.2H2.3C1 7.2 0 8.3 0 9.5s1 2.3 2.3 2.3h7.4C16 11.8 21.1 6.6 21.1.1V0c-1.7 4.1-5.8 7-10.7 7.2"/></g></mask><linearGradient id="SVGID_5_" gradientUnits="userSpaceOnUse" x1="-219.114" y1="362.423" x2="-220.111" y2="362.423" gradientTransform="matrix(23 0 0 -13 5062 4718)"><stop offset="0" stop-color="#e21e26"/><stop offset=".5" stop-color="#a51c45"/><stop offset=".59" stop-color="#931c48"/><stop offset=".75" stop-color="#751b4e"/><stop offset=".9" stop-color="#631a51"/><stop offset="1" stop-color="#5c1a52"/></linearGradient><path class="st10" d="M0 0h23v13H0V0z"/></g><path class="st11" d="M63.5 31.2c0 .1 0 .2-.2.2h-1c-.2 0-.2 0-.2-.2v-6.5c0-.1.1-.3.2-.3.7-.3 1.5-.4 2.2-.4 1.9 0 2.5 1.2 2.5 2.7 0 1.5-.7 2.7-2.4 2.7-.4 0-.8 0-1.1-.1v1.9zm.7-5.9c-.3 0-.5 0-.8.1v2.7c.3.1.6.1.8.1.7 0 1.1-.4 1.1-1.5.1-1.1-.3-1.4-1.1-1.4zm8.6.9c0 .7-.3.9-.8.9h-2.6c0 .8.5 1.1 1.2 1.1.4 0 .8-.1 1.2-.2.2 0 .2 0 .3.1l.3.7c.1.1 0 .2-.1.2-.5.3-1.2.5-1.8.4-1.7 0-2.6-.8-2.6-2.7 0-1.7 1-2.8 2.5-2.8 1.6.1 2.4.9 2.4 2.3m-3.2 0h1.9c0-.6-.2-1-.9-1-.6 0-1.1.5-1 1m5.7 3h-1.1c-.1 0-.2 0-.2-.2v-4.9c0-.1.1-.2.2-.2h1.1c.1 0 .2 0 .2.2v1.7h.5c.4 0 .7-.1.8-.7l.4-1.1c0-.1.1-.1.2-.1h1.1c.1 0 .1.1.1.2l-.4 1.3c-.1.4-.3.7-.7.9.5.1.8.5.9.9l.5 1.7c0 .1 0 .2-.1.2h-1.2c-.1 0-.2 0-.2-.1l-.5-1.5c-.1-.4-.5-.6-.8-.6h-.6V29c0 .2-.1.2-.2.2m7.2.3c-1.7 0-2.5-1-2.5-2.7s1-2.7 2.5-2.7c1.7 0 2.5 1 2.5 2.7.1 1.6-.8 2.6-2.5 2.7m.1-4.3c-.7 0-1 .6-1 1.5 0 1 .3 1.5 1 1.5s1-.6 1-1.5c-.1-.8-.3-1.5-1-1.5m4.6 4h-1c-.2 0-.2 0-.2-.2v-4.8c0-.1.1-.2.2-.2h1c.2 0 .2 0 .2.2v1.7h1.9v-1.7c0-.1.1-.2.2-.2h1c.2 0 .2 0 .2.2V29c0 .2 0 .2-.2.2h-1c-.2 0-.2 0-.2-.2v-2h-1.9v2c.1.2 0 .2-.2.2m8.6-1.3c.2-.1.2-.1.3.1l.3.7c.1.1.1.2-.1.3-.6.3-1.2.4-1.9.4-1.6 0-2.4-.9-2.4-2.7 0-1.7 1-2.8 2.5-2.8.5 0 1.1.1 1.6.3.2.1.2.1.1.3l-.3.8c-.1.1-.1.1-.3.1-.3-.1-.7-.2-1-.2-.8 0-1.1.7-1.1 1.5s.2 1.4 1.1 1.4c.4.1.8 0 1.2-.2m4.3-2.7V29c0 .2 0 .2-.2.2h-1c-.2 0-.2 0-.2-.2v-3.8h-1.4c-.3 0-.3-.1-.3-.2v-.7c0-.2 0-.2.2-.2h4.3c.2 0 .2 0 .2.2v.7c0 .1-.1.2-.2.2h-1.4zm4.4 6c0 .1 0 .2-.2.2h-1c-.2 0-.2 0-.2-.2v-6.5c0-.1.1-.3.2-.3.7-.3 1.5-.4 2.2-.4 1.9 0 2.5 1.2 2.5 2.7 0 1.5-.7 2.7-2.4 2.7-.4 0-.8 0-1.1-.1v1.9zm.7-5.9c-.3 0-.5 0-.8.1v2.7c.3.1.6.1.8.1.7 0 1.1-.4 1.1-1.5.1-1.1-.3-1.4-1.1-1.4zm7.2 4.8c-.2.8-1 1.4-1.8 1.3-.3 0-.7 0-1-.1-.2 0-.2-.1-.2-.2l.2-.8c0-.2.1-.1.2-.1h.5c.5 0 .7-.1.9-.6l.2-.5h-.3c-.3 0-.4-.1-.5-.4l-1.5-4.4c-.1-.1 0-.2.1-.2h1.2c.2 0 .3 0 .3.2l.6 2 .5 1.7h.1l.5-1.8.6-2c0-.1.1-.2.3-.2h1.2c.1 0 .2.1.1.2l-2.2 5.9zm3.9-.9h-1.1c-.1 0-.2 0-.2-.2v-4.9c0-.1.1-.2.2-.2h1.1c.1 0 .2 0 .2.2v1.7h.5c.3 0 .7-.1.8-.7l.4-1.1c0-.1.1-.1.2-.1h1.1c.1 0 .1.1.1.2l-.4 1.3c-.1.4-.3.7-.7.9.5.1.8.5.9.9l.5 1.7c0 .1 0 .2-.1.2h-1.2c-.1 0-.2 0-.2-.1l-.5-1.5c-.1-.4-.5-.6-.8-.6h-.6V29c0 .2-.1.2-.2.2m9.5-1.2h.5c.3 0 .3.2.3.4l-.1 2.1v.1h-1c-.1 0-.2 0-.2-.2l-.1-1.4h-3.6c-.5 0-.6-.3-.6-.6V24c0-.1.1-.2.2-.2h1c.2 0 .2 0 .2.2v3.9h1.9V24c0-.1.1-.2.2-.2h1.1c.2 0 .2 0 .2.2v4zm2.2-3.8c0-.1.1-.2.2-.2h1.1c.2 0 .2 0 .2.2v3h.1c.5-.9.6-1 .8-1.3.3-.4.6-.9 1-1.6.1-.2.4-.4.6-.3h.5c.4 0 .6.1.6.6v4.5c0 .1-.1.2-.2.2h-1.1c-.1 0-.2 0-.2-.2v-3h-.1c-.3.5-.6.9-.9 1.4-.3.4-.6 1-.9 1.4-.1.2-.4.4-.6.3h-.5c-.5 0-.6-.2-.6-.6v-4.4zm6 0c0-.1.1-.2.2-.2h1.1c.2 0 .2 0 .2.2v3h.1c.5-.9.6-1 .8-1.3.3-.4.6-.9 1-1.6.1-.2.4-.4.6-.3h.5c.4 0 .6.1.6.6v4.5c0 .1-.1.2-.2.2h-1.1c-.1 0-.2 0-.2-.2v-3h-.1c-.3.5-.6.9-.9 1.4-.3.4-.6 1-.9 1.4-.1.2-.4.4-.6.3h-.5c-.5 0-.6-.2-.6-.6v-4.4zm10 0c0-.1.1-.2.2-.2h1.1c.2 0 .2 0 .2.2v3h.1c.5-.9.6-1 .8-1.3.3-.4.6-.9 1-1.6.1-.2.4-.4.6-.3h.5c.4 0 .6.1.6.6v4.5c0 .1-.1.2-.2.2h-1.1c-.1 0-.2 0-.2-.2v-3h-.1c-.3.5-.6.9-.9 1.4-.3.4-.6 1-.9 1.4-.1.2-.4.4-.6.3h-.5c-.5 0-.6-.2-.6-.6v-4.4zm10.5 7c0 .1 0 .2-.2.2h-1c-.1 0-.2 0-.2-.2v-6.5c0-.1.1-.3.2-.3.7-.3 1.5-.4 2.2-.4 1.9 0 2.5 1.2 2.5 2.7 0 1.5-.7 2.7-2.4 2.7-.4 0-.8 0-1.1-.1v1.9zm.7-5.9c-.3 0-.5 0-.8.1v2.7c.3.1.6.1.8.1.7 0 1.1-.4 1.1-1.5.1-1.1-.3-1.4-1.1-1.4zm8.3 3.8c-.7.3-1.4.4-2.1.4-1.8 0-2.3-.7-2.3-1.6 0-1 .7-1.8 2.1-1.8h1.1v-.2c0-.4-.1-.7-.9-.7-.5 0-.9.1-1.4.2-.2 0-.2 0-.3-.1l-.2-.7c0-.1 0-.2.1-.2.6-.2 1.3-.3 1.9-.3 1.4 0 2.1.6 2.1 1.8v2.9c.1.1 0 .2-.1.3zm-1.3-2.1h-.8c-.4 0-.9.1-.9.7 0 .5.3.6.9.6.3 0 .6 0 .8-.1V27zm3.6-1.6c-.2.1-.2 0-.2-.1l-.2-.7c-.1-.2-.1-.2.1-.3.6-.3 1.3-.4 1.9-.4 1.2 0 2 .4 2 1.4 0 .5-.3.9-.8 1.1.5.1.9.6.9 1.2 0 1.1-1.1 1.7-2.4 1.7-.7 0-1.4-.1-2-.4-.1-.1-.1-.1-.1-.2l.3-.7c0-.1.1-.1.3-.1.5.1.9.2 1.4.2.8 0 1-.3 1-.6s-.3-.5-1.2-.5c-.2 0-.4-.1-.4-.3v-.3c0-.2.1-.3.4-.3.7 0 1-.2 1-.5s-.4-.4-.8-.4-.8.1-1.2.2m9.2 1c.5.2.9.7.8 1.2 0 1-.8 1.6-1.9 1.6h-2.3c-.5 0-.6-.2-.6-.5v-4.1c0-.3.1-.6.6-.6h2.3c.9 0 1.7.4 1.7 1.3 0 .4-.2.8-.6 1.1zm-2.6-.5h1.2c.1 0 .2 0 .3-.1.1-.1.1-.2.1-.3 0-.2-.2-.4-.4-.4h-1.2v.8zm1.3 1h-1.3v1.2h1.2c.2 0 .3 0 .5-.1.1-.1.2-.3.2-.4 0-.2-.1-.3-.2-.4-.1-.3-.2-.3-.4-.3zm3.3-2.7c0-.1.1-.2.2-.2h1.1c.2 0 .2 0 .2.2v3h.1c.5-.9.6-1 .8-1.3.3-.4.6-.9 1-1.6.1-.2.4-.4.6-.3h.5c.4 0 .6.1.6.6v4.5c0 .1-.1.2-.2.2h-1.1c-.1 0-.2 0-.2-.2v-3c-.3.5-.6.9-.9 1.4-.3.4-.6 1-.9 1.4-.1.2-.4.4-.6.3h-.5c-.5 0-.6-.2-.6-.6-.1.1-.1-4.4-.1-4.4zm9.1 1V29c0 .2 0 .2-.2.2h-1c-.2 0-.2 0-.2-.2v-3.8h-1.4c-.1 0-.2-.1-.2-.2v-.7c0-.2 0-.2.2-.2h4.3c.2 0 .2 0 .2.2v.7c0 .1-.1.2-.2.2h-1.5zm2.9-1c0-.1.1-.2.2-.2h1.1c.2 0 .2 0 .2.2v3h.1c.5-.9.6-1 .8-1.3.3-.4.6-.9 1-1.6.1-.2.4-.4.6-.3h.5c.4 0 .6.1.6.6v4.5c0 .1-.1.2-.2.2h-1.1c-.1 0-.2 0-.2-.2v-3h-.1c-.3.5-.6.9-.9 1.4-.3.4-.6 1-.9 1.4-.1.2-.4.4-.6.3h-.5c-.5 0-.6-.2-.6-.6v-4.4zm9.5 3h-.8c-.5 0-.8.1-.9.6-.1.4-.2.8-.4 1.2-.1.2-.2.2-.3.2h-1c-.1 0-.1 0-.1-.1.1-.4.3-.9.4-1.3.1-.4.4-.7.8-.8-.6-.2-1-.7-.9-1.3 0-.9.7-1.6 1.8-1.6h2.2c.3 0 .5.1.6.4v4.7c0 .1-.1.2-.2.2h-1c-.2 0-.2 0-.2-.2v-2zm-1-.9h1v-1.2h-1.1c-.2 0-.3 0-.5.1-.1.1-.2.3-.2.4.1.4.3.7.8.7zM71.8 5c.2 0 .3.1.2.3L68.5 15c-.6 1.7-1.6 2.3-3.4 2.3-.6 0-1.1-.1-1.7-.2-.3-.1-.4-.1-.3-.4l.3-1.4c.1-.3.1-.2.4-.2.3 0 .6.1 1 .1.8 0 1.1-.1 1.4-.9l.3-.8h-.4c-.6 0-.7-.1-1-.7l-3-7.5c-.1-.2 0-.3.2-.3h2c.4 0 .5.1.6.3l1.3 3.5 1 2.8h.1l.9-3 1.1-3.3c0-.2.1-.3.5-.3h2zm3.7 15.4c0 .3-.1.3-.4.3h-1.8c-.3 0-.4 0-.4-.3V9.2c0-.2.1-.5.3-.5 1.4-.5 2.7-.7 4-.7 3.3 0 4.4 2.1 4.4 4.7s-1.3 4.7-4.1 4.7c-.7 0-1.3-.1-2-.2v3.2zm1.3-10.3c-.4 0-.9.1-1.3.2V15c.5.1.9.2 1.4.2 1.2 0 2-.7 2-2.6 0-1.8-.8-2.4-2.1-2.5 0 .1 0 0 0 0zm13.9 6.7c-1.2.5-2.4.7-3.7.6-3.1 0-4-1.2-4-2.9 0-1.8 1.2-3.1 3.7-3.1h1.9v-.3c0-.6-.2-1.2-1.5-1.2-.8 0-1.6.1-2.4.3-.3.1-.4 0-.4-.2L84 8.9c-.1-.2 0-.3.2-.4.9-.3 2.1-.5 3.2-.5 2.5 0 3.7 1.1 3.7 3.1v5c0 .3-.2.6-.4.7zm-2.2-3.6h-1.4c-.6 0-1.6.1-1.6 1.2 0 .8.6 1.1 1.5 1.1.5 0 1-.1 1.4-.2l.1-2.1zM101 8c.8 0 1 .3 1 1v7.6c0 .3-.1.3-.4.3h-1.7c-.3 0-.4-.1-.4-.3V10h-2.1l-.1.9c-.2 4-.5 5.6-3.2 6.4-.3.1-.4 0-.5-.2l-.5-1.1c-.1-.3-.1-.4.2-.5 1.2-.6 1.5-1.1 1.7-4.6l.1-1.9c0-.8.3-1 1.1-1h4.8zm4.1 9c-.9 0-1.1-.4-1.1-1V8.3c0-.2.1-.3.4-.3h1.7c.3 0 .4.1.4.3v2.5h2.1c3.4 0 3.7 2.2 3.7 3.1 0 1.8-1.5 3.1-3.4 3.1h-3.8zm3.5-4.3h-2V15h2c.3 0 .7-.1.9-.3.2-.2.4-.5.3-.9 0-.3-.1-.6-.3-.8-.3-.2-.6-.3-.9-.3zm11.9 2.1c.3-.1.4-.1.4.2l.5 1.3c.1.2.1.3-.1.5-1 .5-2.1.7-3.2.7-2.7 0-4.2-1.6-4.2-4.7 0-2.9 1.7-4.7 4.3-4.7.9 0 1.9.2 2.7.6.3.1.3.2.2.5l-.5 1.3c-.1.3-.2.2-.5.2-.6-.2-1.1-.3-1.7-.3-1.4 0-1.9 1.2-1.9 2.5 0 1.4.4 2.4 1.9 2.4.8-.1 1.5-.3 2.1-.5m4.7 2.2h-1.9c-.2 0-.3 0-.3-.3V8.3c0-.2.1-.3.3-.3h1.9c.2 0 .3 0 .3.3v3h.8c.6 0 1.1-.2 1.4-1.1l.6-1.9c0-.1.2-.2.3-.2h1.9c.2 0 .2.2.2.3l-.6 2.2c-.1.7-.6 1.3-1.2 1.6 1 .3 1.2.8 1.5 1.6l.9 3c0 .1.1.3-.2.3h-2c-.1 0-.3-.1-.3-.2l-.8-2.6c-.2-.6-.8-1.1-1.5-1h-1v3.5c0 .2-.1.2-.3.2m7.8-8.7c0-.2.1-.3.3-.3h1.9c.3 0 .3.1.3.3v5.2h.1c.9-1.5 1.1-1.7 1.4-2.2.4-.7 1-1.5 1.7-2.8.2-.4.6-.6 1.1-.6h.8c.6 0 1 .2 1 1v7.8c0 .2-.1.3-.3.3h-1.9c-.3 0-.3 0-.3-.3v-5.2h-.1l-1.5 2.4c-.5.8-1.1 1.6-1.6 2.5-.2.4-.6.6-1.1.6h-.8c-.8 0-1-.3-1-1V8.3zm11-.1c0-.2.1-.3.3-.3h1.8c.3 0 .3.1.3.3v5.2h.1c.9-1.5 1.1-1.7 1.4-2.2.4-.7 1-1.5 1.7-2.8.2-.4.6-.6 1.1-.6h.8c.6 0 1 .2 1 1v7.8c0 .2-.1.3-.3.3h-1.9c-.3 0-.3 0-.3-.3v-5.2l-1.5 2.4c-.5.8-1.1 1.6-1.6 2.5-.2.4-.6.6-1.1.6h-.8c-.8 0-1-.3-1-1V8.2zm1-3.1c-.1-.1-.2-.2.1-.4l.7-.6c.2-.2.3-.1.4.1.7.7 1.5 1.2 2.1 1.2.6 0 1.1-.2 2.2-1.2.2-.2.3-.1.4 0l.6.6c.2.2.1.3.1.4-1.1 1.4-2.2 2.1-3.4 2.1-1.3-.2-2.5-1.1-3.2-2.2zm14 10.8V6.2c0-.8.3-1.2 1.1-1.2h6.7c.3 0 .3.1.3.4v1.5c0 .2-.1.3-.3.3h-5.2v2.1h2.5c4.1 0 4.4 2.7 4.4 3.9 0 2.2-1.8 3.8-4.2 3.8H160c-.8 0-1-.3-1-1.1m5.1-4.4h-2.5v3.2h2.5c.4 0 .9-.1 1.2-.4.3-.3.5-.8.5-1.2 0-.4-.2-.9-.5-1.2-.3-.3-.7-.4-1.2-.4m13.6 5.3c-1.2.5-2.4.7-3.7.6-3.1 0-4-1.2-4-2.9 0-1.8 1.2-3.1 3.6-3.1h1.9v-.3c0-.6-.2-1.2-1.5-1.2-.8 0-1.6.1-2.4.3-.3.1-.4 0-.4-.2l-.3-1.1c-.1-.2 0-.3.2-.4 1.1-.4 2.2-.5 3.3-.5 2.5 0 3.6 1.1 3.6 3.1v5c.1.3-.1.6-.3.7zm-2.2-3.6h-1.4c-.6 0-1.6.1-1.6 1.2 0 .8.6 1.1 1.5 1.1.5 0 1-.1 1.4-.2l.1-2.1zm7.6 3.8h-1.7c-.3 0-.4-.1-.4-.3V8.3c0-.2.1-.3.4-.3h1.7c.3 0 .4.1.4.3v2.9h3.2V8.3c0-.2.1-.3.4-.3h1.7c.3 0 .4.1.4.3v8.3c0 .3-.1.3-.4.3h-1.7c-.3 0-.4-.1-.4-.3v-3.4h-3.2v3.4c0 .3 0 .4-.4.4m10.1 0h-1.9c-.2 0-.3 0-.3-.3V8.3c0-.2.1-.3.3-.3h1.9c.2 0 .3 0 .3.3v3h.8c.6 0 1.1-.2 1.4-1.1l.6-1.9c0-.1.2-.2.3-.2h1.9c.2 0 .2.2.2.3l-.6 2.2c-.1.7-.6 1.3-1.2 1.6 1 .3 1.2.8 1.5 1.6l.9 3c0 .1.1.3-.2.3h-2c-.1 0-.3-.1-.3-.2l-.8-2.6c-.2-.6-.8-1.1-1.5-1h-1v3.5c0 .2-.1.2-.3.2"/></svg>